<?xml version="1.0" encoding="utf-8"?>
<!-- Generator: Adobe Illustrator 16.0.0, SVG Export Plug-In . SVG Version: 6.00 Build 0)  -->
<!DOCTYPE svg PUBLIC "-//W3C//DTD SVG 1.1//EN" "http://www.w3.org/Graphics/SVG/1.1/DTD/svg11.dtd">
<svg version="1.1" xmlns="http://www.w3.org/2000/svg" xmlns:xlink="http://www.w3.org/1999/xlink" x="0px" y="0px"
	 width="1024px" height="1024px" viewBox="0 0 1024 1024" enable-background="new 0 0 1024 1024" xml:space="preserve">

<g>
	<path d="M668.197,860.018h-27.043l-22.514-160.801l-25.293,3.553l21.998,157.248h-28.518l-11.051-79.055
		l-25.295,3.553l10.572,75.502H461.96l6.502-46.555l-25.285-3.549l-7.016,50.104h-28.126l16.97-121.488l-25.285-3.535
		l-17.484,125.023h-27.917l49.746-355.662c7.429-53.161,53.519-93.225,107.174-93.225c53.694,0,99.782,40.064,107.196,93.244
		L668.197,860.018z M930.564,728.32l-20.73-10.365c-0.203-0.121-22.615-11.582-49.932-44.203
		c-25.312-30.252-60.129-85.367-82.127-176.191c-14.979-61.842-40.014-100.726-74.436-115.618
		c-27.645-11.977-60.486-7.963-94.943,11.583l12.613,22.22c18.979-10.775,46.896-21.312,72.172-10.364
		c26.664,11.548,46.775,44.581,59.783,98.186c33.117,136.811,93.965,199.598,125.537,224.066
		c-14.207,5.045-27.781,5.68-40.496,1.871c-34.318-10.312-53.279-49.436-53.469-49.83l-11.566,5.473l-11.529,5.439
		c0.824,1.734,17.758,37.012,51.152,55.631c-9.387,1.457-18.619,1.08-27.662-1.217c-38.814-9.852-63.232-50.742-63.473-51.154
		l-11.016,6.451l-11.051,6.418c0.822,1.408,14.467,24.453,38.746,42.898c-11.531,2.988-21.98,2.693-31.195-0.926
		c-23.697-9.336-33.564-38.025-34.061-39.52l-29.137-208.347c-4.48-31.952-20.336-61.209-44.699-82.399
		c-24.35-21.175-55.529-32.842-87.807-32.842c-32.259,0-63.445,11.667-87.778,32.842c-24.358,21.19-40.22,50.447-44.7,82.399
		l-29.367,209.825c-2.353,6.211-12.527,29.684-33.367,37.973c-9.241,3.688-19.735,3.998-31.342,0.994
		c24.28-18.445,37.931-41.49,38.736-42.898l-22.066-12.834c-0.248,0.393-24.314,41.113-63.31,51.082
		c-9.101,2.316-18.376,2.73-27.796,1.254c33.365-18.619,50.345-53.896,51.152-55.631l-23.106-10.879
		c-0.197,0.377-18.857,39.295-53.33,49.729c-12.759,3.877-26.358,3.26-40.625-1.803c31.573-24.486,92.394-87.256,125.545-224.066
		c12.913-53.261,32.844-86.225,59.253-97.963c24.528-10.913,51.624-1.303,70.035,8.665l12.167-22.477
		c-33.633-18.207-65.652-21.484-92.567-9.523c-34.035,15.133-58.847,53.931-73.716,115.292
		c-21.998,90.824-56.824,145.957-82.143,176.191c-27.291,32.621-49.71,44.082-49.865,44.17l-19.614,10.605l18.627,11.785
		c18.875,11.412,37.424,17.16,55.399,17.229c17.819,10.092,35.725,15.152,53.45,15.152c7.86,0,15.693-0.996,23.459-3.004
		c4.004-1.012,7.857-2.281,11.583-3.74c15.374,7.533,29.978,11.307,43.679,11.307c9.016-0.016,17.628-1.629,25.833-4.906
		c6.236-2.469,11.754-5.75,16.635-9.453l-17.143,122.67h372.615l-17.211-122.961c4.977,3.826,10.639,7.223,17.006,9.744
		c8.203,3.277,16.814,4.906,25.84,4.906c13.693-0.016,28.314-3.773,43.689-11.307c3.705,1.459,7.568,2.746,11.564,3.74
		c7.773,2.008,15.617,3.004,23.475,3.004c17.742,0,35.623-5.061,53.434-15.152c17.984-0.068,36.531-5.816,55.408-17.229
		L930.564,728.32z"/>
	<path d="M511.249,138.433c-77.312,0-137.858,36.43-137.858,82.965c0,16.165,7.397,31.746,21.381,44.975
		l17.571-18.533c-8.888-8.442-13.401-17.33-13.401-26.442c0-13.949,10.681-27.608,30.115-38.487
		c21.731-12.217,50.938-18.927,82.193-18.927c31.272,0,60.478,6.71,82.22,18.927c19.408,10.879,30.113,24.538,30.113,38.487
		c0,11.652-7.686,21.158-14.104,27.094l17.297,18.789c14.619-13.433,22.342-29.307,22.342-45.883
		C649.117,174.863,588.578,138.433,511.249,138.433"/>
	<path d="M511.249,356.58c-37.124,0-67.308-30.199-67.308-67.316c0-37.115,30.184-67.314,67.308-67.314
		c37.142,0,67.308,30.199,67.308,67.314C578.557,326.38,548.391,356.598,511.249,356.58 M511.249,196.398
		c-51.195,0-92.858,41.663-92.858,92.865c0,51.204,41.664,92.867,92.858,92.867c51.212,0,92.874-41.663,92.874-92.867
		C604.123,238.061,562.461,196.398,511.249,196.398"/>
</g>
</svg>
