<?xml version="1.0" encoding="utf-8"?>
<!-- Generator: Adobe Illustrator 16.0.0, SVG Export Plug-In . SVG Version: 6.00 Build 0)  -->
<!DOCTYPE svg PUBLIC "-//W3C//DTD SVG 1.1//EN" "http://www.w3.org/Graphics/SVG/1.1/DTD/svg11.dtd">
<svg version="1.1" id="Ebene_1" xmlns="http://www.w3.org/2000/svg" xmlns:xlink="http://www.w3.org/1999/xlink" x="0px" y="0px"
	 width="1024px" height="1024px" viewBox="0 0 1024 1024" enable-background="new 0 0 1024 1024" xml:space="preserve">
<path fill="currentColor" d="M477.117,206.659c19.23,0,34.845,15.605,34.845,34.839c0,19.231-15.614,34.839-34.845,34.839
	c-6.428,0-11.635,5.238-11.635,11.648c0,6.396,5.207,11.634,11.635,11.634c32.015,0,58.111-26.052,58.111-58.121
	c0-32.07-26.097-58.105-58.111-58.105c-6.428,0-11.635,5.207-11.635,11.632C465.482,201.437,470.689,206.659,477.117,206.659"/>
<path fill="currentColor" d="M546.877,206.659c19.174,0,34.825,15.605,34.825,34.839c0,19.231-15.651,34.839-34.825,34.839
	c-6.441,0-11.648,5.238-11.648,11.648c0,6.396,5.207,11.634,11.648,11.634c31.995,0,58.105-26.052,58.105-58.121
	c0-32.07-26.11-58.105-58.105-58.105c-6.441,0-11.648,5.207-11.648,11.632C535.229,201.437,540.436,206.659,546.877,206.659"/>
<path fill="currentColor" d="M404.089,658.727c0,11.017-1.565,21.084-4.665,30.279c-3.16,9.211-7.849,17.125-13.981,23.793
	c-6.207,6.711-13.854,11.873-23.16,15.576c-9.233,3.611-19.941,5.492-32.057,5.492c-7.284,0-14.146-0.736-20.503-2.14
	c-6.383-1.473-12.117-3.159-17.083-5.174c-4.973-1.942-9.075-3.957-12.4-6.035c-3.334-2.168-5.381-3.565-6.133-4.362
	c-0.834-0.83-1.406-1.551-1.821-2.363c-0.413-0.801-0.752-1.686-1.044-2.682c-0.294-0.945-0.542-2.228-0.716-3.699
	c-0.121-1.537-0.226-3.357-0.226-5.434c0-3.898,0.353-6.593,1.107-8.054c0.759-1.414,1.745-2.149,2.97-2.149
	c1.069,0,3.163,1.065,6.276,3.354c3.16,2.213,7.18,4.623,12.161,7.24c4.959,2.619,10.753,5.043,17.306,7.27
	c6.605,2.271,13.869,3.354,21.868,3.354c8.18,0,15.379-1.217,21.588-3.701c6.131-2.543,11.34-6.035,15.554-10.535
	c4.267-4.559,7.427-9.946,9.534-16.117c2.098-6.245,3.16-13.03,3.16-20.405c0-7.855-1.354-14.988-4.103-21.293
	c-2.754-6.386-6.667-11.894-11.812-16.451c-5.155-4.562-11.407-8.127-18.821-10.607c-7.441-2.483-15.792-3.764-25.042-3.764h-21.928
	c-0.698,0-1.406-0.197-2.158-0.604c-0.708-0.405-1.424-1.008-2.047-1.881c-0.656-0.812-1.114-1.864-1.529-3.221
	c-0.397-1.279-0.631-2.949-0.631-4.904c0-1.762,0.165-3.221,0.52-4.424c0.339-1.281,0.819-2.291,1.406-3.162
	c0.52-0.873,1.219-1.477,1.926-1.883c0.752-0.406,1.572-0.615,2.513-0.615h19.354c8.016,0,15.208-1.188,21.634-3.672
	c6.508-2.483,11.993-6.127,16.556-10.746c4.56-4.635,8.072-10.217,10.524-16.721c2.461-6.514,3.696-13.768,3.696-21.76
	c0-5.898-0.828-11.482-2.468-16.722c-1.634-5.235-4.093-9.796-7.361-13.753c-3.271-3.914-7.364-6.984-12.346-9.21
	c-4.959-2.273-10.753-3.356-17.368-3.356c-7.012,0-13.333,1.145-19.06,3.491c-5.673,2.424-10.76,4.966-15.154,7.796
	c-4.372,2.813-8.015,5.432-10.753,7.779c-2.808,2.349-4.794,3.554-5.968,3.554c-0.647,0-1.294-0.121-1.879-0.394
	c-0.58-0.27-1.047-0.812-1.446-1.608c-0.353-0.738-0.647-1.821-0.819-3.221c-0.181-1.415-0.311-3.16-0.311-5.433
	c0-1.431,0.085-2.709,0.19-3.838c0.121-1.067,0.353-2.091,0.692-3.024c0.353-0.948,0.774-1.805,1.174-2.68
	c0.473-0.826,1.234-1.819,2.279-3.024c1.002-1.218,3.102-2.964,6.32-5.296c3.223-2.363,7.135-4.711,11.755-6.923
	c4.627-2.214,9.88-4.094,15.846-5.718c5.898-1.522,12.282-2.348,19.015-2.348c10.175,0,19,1.625,26.428,4.709
	c7.487,3.159,13.688,7.51,18.586,13.033c4.911,5.493,8.599,12.008,11,19.521c2.407,7.584,3.572,15.725,3.572,24.528
	c0,8.098-0.933,15.698-2.812,22.694c-1.868,7.043-4.673,13.289-8.309,18.724c-3.688,5.444-8.127,10.008-13.438,13.618
	c-5.336,3.703-11.422,6.187-18.247,7.525v0.406c7.66,0.752,14.672,2.889,21.173,6.244c6.425,3.434,12.041,7.869,16.781,13.229
	c4.731,5.359,8.418,11.619,11.115,18.736C402.75,642.744,404.089,650.465,404.089,658.727 M580.452,649.471
	c0,10.205-1.339,20.406-4.08,30.478c-2.738,10.065-7.072,19.143-13.047,27.069c-5.914,7.918-13.515,14.373-22.858,19.341
	c-9.314,5.026-20.527,7.51-33.636,7.51c-8.722,0-16.426-1.279-23.162-3.822c-6.72-2.559-12.634-6.246-17.721-11.018
	c-5.086-4.828-9.354-10.744-12.746-17.711c-3.446-7.06-6.253-15.05-8.414-24.123c-2.174-9.062-3.738-19.011-4.678-29.802
	c-1.002-10.805-1.47-22.495-1.47-35.123c0-11.286,0.527-22.561,1.692-33.905c1.116-11.363,3.103-22.154,5.863-32.492
	c2.678-10.279,6.313-19.881,10.857-28.82c4.521-8.923,10.128-16.583,16.864-23.084c6.718-6.533,14.672-11.619,23.791-15.32
	c9.195-3.764,19.701-5.644,31.709-5.644c4.259,0,8.459,0.255,12.673,0.873c4.214,0.6,8.143,1.354,11.77,2.288
	c3.551,0.933,6.604,1.941,9.059,3.16c2.439,1.143,4.094,2.136,4.905,2.813c0.755,0.736,1.354,1.476,1.701,2.151
	c0.348,0.736,0.646,1.475,0.875,2.271c0.165,0.798,0.36,1.686,0.464,2.694c0.121,0.934,0.184,2.093,0.184,3.434
	c0,1.398,0,2.754-0.062,3.957c-0.06,1.145-0.225,2.136-0.513,2.935c-0.301,0.752-0.721,1.428-1.294,1.821
	c-0.601,0.466-1.293,0.736-2.226,0.736c-1.281,0-2.921-0.45-5.028-1.398c-2.167-0.934-4.785-1.958-7.916-3.161
	c-3.129-1.146-6.937-2.211-11.392-3.16c-4.438-0.873-9.708-1.339-15.788-1.339c-11.527,0-21.398,2.77-29.705,8.263
	c-8.24,5.508-15.087,12.898-20.484,22.227c-5.355,9.315-9.338,20.078-11.971,32.235c-2.634,12.207-4.1,24.97-4.455,38.406
	c3.16-2.152,6.78-4.242,10.715-6.32c3.913-2.075,8.24-3.957,12.914-5.643c4.68-1.596,9.662-2.951,14.913-4.02
	c5.274-1.021,10.829-1.533,16.607-1.533c12.463-0.017,22.876,1.864,31.183,5.688c8.352,3.822,15.021,8.998,20.047,15.65
	c5.039,6.578,8.605,14.373,10.699,23.236C579.414,630.057,580.452,639.523,580.452,649.471 M558.524,651.818
	c0-8.246-0.691-15.787-2.229-22.636c-1.459-6.771-3.973-12.61-7.522-17.518c-3.521-4.846-8.248-8.592-14.116-11.287
	c-5.898-2.693-13.154-4.031-21.853-4.031c-4.801,0-9.609,0.48-14.449,1.476c-4.852,1.021-9.541,2.36-14.101,4.047
	c-4.5,1.654-8.767,3.672-12.806,5.961c-4.08,2.363-7.721,4.77-10.88,7.402c0,18.377,1.068,33.832,3.159,46.323
	c2.114,12.549,5.207,22.633,9.354,30.277c4.1,7.721,9.187,13.229,15.335,16.522c6.073,3.357,13.206,5.029,21.287,5.029
	c8.472,0,15.771-1.869,21.928-5.557c6.184-3.775,11.271-8.605,15.243-14.582c4.048-5.974,6.982-12.625,8.849-19.879
	C557.592,666.115,558.524,658.936,558.524,651.818 M740.275,649.275c0,13.483-2.002,25.494-5.854,35.981
	c-3.853,10.476-9.36,19.34-16.434,26.592c-7.072,7.179-15.547,12.688-25.435,16.39c-9.887,3.748-20.768,5.629-32.688,5.629
	c-6.848,0-13.333-0.603-19.474-1.881c-6.199-1.279-11.708-2.679-16.495-4.289c-4.801-1.687-8.713-3.281-11.707-4.98
	c-3.04-1.61-4.967-2.891-5.778-3.688c-0.769-0.871-1.354-1.597-1.58-2.211c-0.286-0.543-0.587-1.279-0.828-2.152
	c-0.149-0.871-0.346-1.865-0.453-3.146c-0.121-1.203-0.179-2.691-0.179-4.439c0-1.549,0.058-3.023,0.226-4.303
	c0.182-1.338,0.467-2.408,0.886-3.34c0.408-0.966,0.875-1.625,1.446-2.095c0.543-0.391,1.174-0.676,1.897-0.676
	c1.098,0,2.902,0.887,5.372,2.559c2.452,1.73,5.794,3.552,10.066,5.644c4.198,2.002,9.393,3.883,15.667,5.568
	c6.186,1.745,13.619,2.557,22.167,2.557c8.11,0,15.667-1.144,22.604-3.43c6.982-2.287,13.003-5.914,18.148-10.955
	c5.146-4.953,9.166-11.273,12.103-18.918c2.919-7.72,4.395-17.006,4.395-27.871c0-9.195-1.295-17.188-3.823-24.109
	c-2.5-6.848-6.308-12.627-11.453-17.186c-5.146-4.562-11.633-7.992-19.457-10.22c-7.856-2.272-16.977-3.354-27.513-3.354
	c-7.192,0-13.196,0.42-18.058,1.279c-4.848,0.797-9.36,1.278-13.456,1.278c-2.979,0-5.146-0.799-6.47-2.483
	c-1.415-1.609-2.106-4.83-2.106-9.541V487.57c0-3.688,0.934-6.501,2.678-8.596c1.762-2.016,4.153-3.009,7.072-3.009h94.451
	c0.873,0,1.745,0.197,2.558,0.663c0.783,0.466,1.477,1.127,2.047,2.076c0.604,0.933,1.024,2.018,1.295,3.355
	c0.302,1.279,0.422,2.83,0.422,4.5c0,3.024-0.542,5.584-1.641,7.66c-1.068,2.139-2.634,3.163-4.681,3.163h-84.789v80.634
	c3.973-0.604,8.128-0.994,12.387-1.131c4.259-0.135,9.466-0.192,15.5-0.192c13.033-0.017,24.38,1.803,34.026,5.432
	c9.661,3.551,17.609,8.578,23.989,15.033c6.306,6.365,11.046,14.102,14.206,22.967C738.695,629.047,740.275,638.785,740.275,649.275
	"/>
<path fill="currentColor" d="M826.26,812.11 M849.375,812.11 M174.917,800.584V229.866h175.528c5.396-26.502,28.88-46.488,56.925-46.488
	c32.053,0,58.112,26.051,58.112,58.121c0,32.069-26.059,58.105-58.112,58.105c-6.411,0-11.632-5.207-11.632-11.632
	c0-6.412,5.22-11.635,11.632-11.635c19.233,0,34.848-15.608,34.848-34.839c0-19.234-15.614-34.839-34.848-34.824
	c-15.164,0-27.925,9.692-32.748,23.191h21.115c6.409,0,11.632,5.221,11.632,11.633s-5.223,11.632-11.632,11.632H198.191v104.595
	h627.611V253.13H673.533c-5.464,26.503-28.896,46.473-56.992,46.473c-6.397,0-11.559-5.207-11.559-11.632
	c0-6.412,5.162-11.635,11.559-11.635c19.263,0,34.915-15.608,34.915-34.839c0-19.234-15.652-34.839-34.915-34.824
	c-6.397,0-11.559-5.253-11.559-11.664c0-6.41,5.162-11.633,11.559-11.633c28.096,0,51.528,19.97,56.992,46.488h175.474v570.718
	l-0.632,11.528c0.001,21.007-16.034,38.089-36.969,38.089l-598.875-0.017c-20.941,0-36.984-17.08-36.984-38.073L174.917,800.584
	 M198.19,800.584l0.474,11.526c0,8.245,5.667,13.959,13.868,13.959l598.875,0.014c8.188,0,13.854-5.711,13.854-13.973l0.541-11.528
	V380.989H198.19V800.584"/>
</svg>
