<?xml version="1.0" encoding="utf-8"?>
<!-- Generator: Adobe Illustrator 21.0.2, SVG Export Plug-In . SVG Version: 6.00 Build 0)  -->
<svg version="1.1" id="Ebene_1" xmlns="http://www.w3.org/2000/svg" xmlns:xlink="http://www.w3.org/1999/xlink" x="0px" y="0px"
	 viewBox="0 0 1024 1024" style="enable-background:new 0 0 1024 1024;" xml:space="preserve">
<title>mtb-weiss</title>
<path d="M806.1,742.7c-64.8,18.3-132.1-19.4-150.4-84.2c-14.8-52.6,7.2-108.7,53.8-137.1L757,632c3.8,8.9,14,13,22.9,9.2
	c8.9-3.8,13-14,9.2-22.9l-47.6-110.7c64.9-17.8,132,20.3,149.8,85.2C909.2,657.8,871,724.8,806.1,742.7 M511.9,588.1l-76.4-144.3
	l181-51.7L511.9,588.1z M406.4,607.8c-3.9-34.7-19.3-67-43.7-92l43.5-53l76.8,145H406.4z M287.5,607.8l53-64.8
	c16.5,18,27.3,40.6,30.7,64.8H287.5z M250.8,747c-67.3,0.2-122-54.3-122.2-121.6c-0.2-67.3,54.3-122,121.6-122.2
	c22.3-0.1,44.3,6,63.4,17.6l-76.3,93.2c-6.1,7.4-5,18.4,2.5,24.5c3.1,2.5,7,3.9,11,3.9h120.5C362.6,702.4,311.3,746.9,250.8,747
	L250.8,747z M909.2,547.4C873,484,797.7,454,727.8,475.2l-85-198.2h60.7c9.6,0,17.4-7.8,17.4-17.4c0-9.6-7.8-17.4-17.4-17.4h-87.1
	c-9.6,0-17.4,7.8-17.4,17.4c0,2.4,0.5,4.7,1.4,6.9l35.9,83.8l-217.3,62.1l-34.8-65.7h40.8c9.6-0.3,17.1-8.4,16.8-18
	c-0.3-9.2-7.7-16.5-16.8-16.8H303c-9.6,0.3-17.1,8.4-16.8,18c0.3,9.2,7.7,16.5,16.8,16.8h41.8l43.7,82.7l-52.7,64.4
	c-72.6-46.9-169.6-26.1-216.5,46.5s-26.1,169.6,46.5,216.5c72.6,46.9,169.6,26.1,216.5-46.5c13.2-20.4,21.4-43.5,24.1-67.6h105.5
	c1.2,0,2.3-0.1,3.5-0.3c1-0.2,2-0.5,3-0.9c3.7-1.4,6.7-4.1,8.7-7.5l0.3-0.5L655,393.9l40.8,95.1c-75.1,42.8-101.2,138.3-58.4,213.4
	c42.8,75.1,138.3,101.2,213.4,58.4S952,622.5,909.2,547.4C909.2,547.5,909.2,547.4,909.2,547.4z"/>
</svg>
