<?xml version="1.0" encoding="utf-8"?>
<!-- Generator: Adobe Illustrator 16.0.0, SVG Export Plug-In . SVG Version: 6.00 Build 0)  -->
<!DOCTYPE svg PUBLIC "-//W3C//DTD SVG 1.1//EN" "http://www.w3.org/Graphics/SVG/1.1/DTD/svg11.dtd">
<svg version="1.1" xmlns="http://www.w3.org/2000/svg" xmlns:xlink="http://www.w3.org/1999/xlink" x="0px" y="0px" width="1024px"
	 height="1024px" viewBox="0 0 1024 1024" enable-background="new 0 0 1024 1024" xml:space="preserve">
<g id="Ebene_1">
</g>
<g id="Ebene_2">
	<g>
		<path fill="currentColor" d="M853.329,758.476c0,2.331-5.331,6.812-13.661,6.812h-27.3c-8.7,0-18.581-7.677-20.699-16.184l-0.39-1.569
			c-5.17-20.666-25.904-36.847-47.187-36.847H279.872c-21.282,0-42,16.181-47.153,36.775l-0.423,1.695
			c-2.118,8.452-11.964,16.129-20.682,16.129h-27.3c-8.346,0-13.641-4.481-13.641-6.812V574.154c0-7.537,6.125-13.661,13.641-13.661
			h655.355c7.52,0,13.661,6.124,13.661,13.661V758.476z M230.989,331.296c173.312-96.794,388.674-96.794,561.914-0.054
			c2.878,1.642,5.808,6.688,5.808,9.106v113.17c-4.482-1.395-9.087-2.242-13.641-2.242h-40.977v-40.958
			c0-22.588-18.37-40.977-40.96-40.977H566.599c-22.587,0-40.958,18.388-40.958,40.977v40.958h-27.3v-40.958
			c0-22.588-18.386-40.977-40.976-40.977H320.847c-22.587,0-40.976,18.388-40.976,40.977v40.958h-40.941
			c-4.589,0-9.177,0.847-13.659,2.242V340.366C225.271,337.931,228.201,332.884,230.989,331.296 M716.792,451.277H552.941v-40.958
			c0-7.535,6.141-13.659,13.657-13.659h136.534c7.537,0,13.659,6.124,13.659,13.659V451.277z M471.022,451.277H307.189v-40.958
			c0-7.535,6.124-13.659,13.658-13.659h136.518c7.552,0,13.658,6.124,13.658,13.659V451.277z M238.931,478.576h546.139
			c9.122,0,20.082,7.906,22.978,16.572l12.686,38.045H203.266l12.671-38.045C218.814,486.482,229.79,478.576,238.931,478.576
			 M850.01,534.677l-16.06-48.158c-1.695-5.153-4.48-9.971-7.94-14.347V340.313c-0.017-12.353-8.436-26.435-19.677-32.859
			c-181.551-101.399-407.115-101.399-588.755,0.054c-11.153,6.354-19.588,20.435-19.605,32.84v131.824
			c-3.477,4.376-6.23,9.193-7.924,14.347l-16.076,48.158c-17.559,4.606-30.618,20.488-30.618,39.478v184.321
			c0,18.812,18.371,34.112,40.958,34.112h27.3c21.318,0,42.018-16.167,47.151-36.76l0.459-1.695
			c2.1-8.451,11.947-16.146,20.647-16.146h464.221c8.718,0,18.581,7.694,20.683,16.199l0.422,1.571
			c5.154,20.663,25.872,36.83,47.171,36.83h27.3c22.587,0,40.977-15.3,40.977-34.112V574.154
			C880.645,555.165,867.586,539.283,850.01,534.677"/>
	</g>
</g>
</svg>
