<?xml version="1.0" encoding="utf-8"?>
<!-- Generator: Adobe Illustrator 16.0.0, SVG Export Plug-In . SVG Version: 6.00 Build 0)  -->
<!DOCTYPE svg PUBLIC "-//W3C//DTD SVG 1.1//EN" "http://www.w3.org/Graphics/SVG/1.1/DTD/svg11.dtd">
<svg version="1.1" id="Ebene_1" xmlns="http://www.w3.org/2000/svg"  x="0px" y="0px"
	 width="1024px" height="1024px" viewBox="0 0 1024 1024" enable-background="new 0 0 1024 1024" xml:space="preserve">
<g>
	<path fill="currentColor" d="M841.838,846.792H182.142V239.447h123.663v38.55c0,10.043,8.134,18.166,18.158,18.166
		c10.024,0,18.166-8.123,18.166-18.166v-38.55h89.033v38.55c0,10.043,8.144,18.166,18.166,18.166
		c10.023,0,18.148-8.123,18.148-18.166v-38.55h89.06v38.55c0,10.043,8.135,18.166,18.139,18.166
		c10.043,0,18.165-8.123,18.165-18.166v-38.55h89.053v38.55c0,10.043,8.124,18.166,18.126,18.166
		c10.043,0,18.207-8.123,18.207-18.166v-38.55h21.175h41.607h60.831V846.792z M781.007,203.107h-41.607h-21.175v-44.03
		c0-10.043-8.164-18.172-18.207-18.172c-10.002,0-18.126,8.128-18.126,18.172v44.03h-89.053v-44.03
		c0-10.043-8.122-18.172-18.165-18.172c-10.004,0-18.139,8.128-18.139,18.172v44.03h-89.06v-44.03
		c0-10.043-8.125-18.172-18.148-18.172c-10.021,0-18.166,8.128-18.166,18.172v44.03h-89.033v-44.03
		c0-10.043-8.142-18.172-18.166-18.172c-10.023,0-18.158,8.128-18.158,18.172v44.03H145.818v679.987h732.363V203.107H781.007z"/>
	<path fill="none" stroke="#323232" stroke-width="0.25" stroke-miterlimit="10" d="M841.838,846.792H182.142V239.447h123.663v38.55
		c0,10.043,8.134,18.166,18.158,18.166c10.024,0,18.166-8.123,18.166-18.166v-38.55h89.033v38.55
		c0,10.043,8.144,18.166,18.166,18.166c10.023,0,18.148-8.123,18.148-18.166v-38.55h89.06v38.55
		c0,10.043,8.135,18.166,18.139,18.166c10.043,0,18.165-8.123,18.165-18.166v-38.55h89.053v38.55
		c0,10.043,8.124,18.166,18.126,18.166c10.043,0,18.207-8.123,18.207-18.166v-38.55h21.175h41.607h60.831V846.792z M781.007,203.107
		h-41.607h-21.175v-44.03c0-10.043-8.164-18.172-18.207-18.172c-10.002,0-18.126,8.128-18.126,18.172v44.03h-89.053v-44.03
		c0-10.043-8.122-18.172-18.165-18.172c-10.004,0-18.139,8.128-18.139,18.172v44.03h-89.06v-44.03
		c0-10.043-8.125-18.172-18.148-18.172c-10.021,0-18.166,8.128-18.166,18.172v44.03h-89.033v-44.03
		c0-10.043-8.142-18.172-18.166-18.172c-10.023,0-18.158,8.128-18.158,18.172v44.03H145.818v679.987h732.363V203.107H781.007z"/>
</g>
<rect x="301.472" y="541.402" fill="currentColor" width="45.573" height="45.594"/>
<rect x="301.472" y="541.402" fill="none" stroke="#323232" stroke-width="0.25" stroke-miterlimit="10" width="45.573" height="45.594"/>
<rect x="301.837" y="665.233" fill="currentColor" width="45.585" height="45.557"/>
<rect x="301.837" y="665.233" fill="none" stroke="#323232" stroke-width="0.25" stroke-miterlimit="10" width="45.585" height="45.557"/>
<rect x="426.836" y="665.233" fill="currentColor" width="45.575" height="45.557"/>
<rect x="426.836" y="665.233" fill="none" stroke="#323232" stroke-width="0.25" stroke-miterlimit="10" width="45.575" height="45.557"/>
<rect x="551.846" y="665.233" fill="currentColor" width="45.545" height="45.557"/>
<rect x="551.846" y="665.233" fill="none" stroke="#323232" stroke-width="0.25" stroke-miterlimit="10" width="45.545" height="45.557"/>
<rect x="300.412" y="417.5" fill="currentColor" width="45.565" height="45.556"/>
<rect x="300.412" y="417.5" fill="none" stroke="#323232" stroke-width="0.25" stroke-miterlimit="10" width="45.565" height="45.556"/>
<rect x="425.394" y="541.293" fill="currentColor" width="45.573" height="45.586"/>
<rect x="425.394" y="541.293" fill="none" stroke="#323232" stroke-width="0.25" stroke-miterlimit="10" width="45.573" height="45.586"/>
<rect x="550.402" y="541.293" fill="currentColor" width="45.544" height="45.586"/>
<rect x="550.402" y="541.293" fill="none" stroke="#323232" stroke-width="0.25" stroke-miterlimit="10" width="45.544" height="45.586"/>
<rect x="675.382" y="541.293" fill="currentColor" width="45.556" height="45.586"/>
<rect x="675.382" y="541.293" fill="none" stroke="#323232" stroke-width="0.25" stroke-miterlimit="10" width="45.556" height="45.586"/>
<rect x="424.313" y="417.433" fill="currentColor" width="45.585" height="45.544"/>
<rect x="424.313" y="417.433" fill="none" stroke="#323232" stroke-width="0.25" stroke-miterlimit="10" width="45.585" height="45.544"/>
<rect x="549.312" y="417.433" fill="currentColor" width="45.596" height="45.544"/>
<rect x="549.312" y="417.433" fill="none" stroke="#323232" stroke-width="0.25" stroke-miterlimit="10" width="45.596" height="45.544"/>
<rect x="674.263" y="417.433" fill="currentColor" width="45.556" height="45.544"/>
<rect x="674.263" y="417.433" fill="none" stroke="#323232" stroke-width="0.25" stroke-miterlimit="10" width="45.556" height="45.544"/>
</svg>
