<?xml version="1.0" encoding="utf-8"?>
<!-- Generator: Adobe Illustrator 16.0.0, SVG Export Plug-In . SVG Version: 6.00 Build 0)  -->
<!DOCTYPE svg PUBLIC "-//W3C//DTD SVG 1.1//EN" "http://www.w3.org/Graphics/SVG/1.1/DTD/svg11.dtd">
<svg version="1.1" id="Ebene_1" xmlns="http://www.w3.org/2000/svg" xmlns:xlink="http://www.w3.org/1999/xlink" x="0px" y="0px"
	 width="1024px" height="1024px" viewBox="0 0 1024 1024" enable-background="new 0 0 1024 1024" xml:space="preserve">
<g>
	<path d="M888.096,187.086c-8.538-7.685-14.475-11.996-17.646-12.89c-3.171-0.894-5.651-1.341-7.441-1.341l-14.229,9.474
		c-10.409,5.896-27.812,19.232-52.208,40.01l-88.843,75.302c-34.886,29.438-81.401,71.684-139.789,126.86
		c-58.327,55.176-121.411,116.653-189.231,184.474L184.717,439.381L112.159,512c144.668,144.71,249.593,257.744,314.709,339.146
		l77.985-121.41c158.311-238.756,293.952-408.35,406.988-508.699C904.604,206.074,896.716,194.771,888.096,187.086"/>
</g>
</svg>
