<?xml version="1.0" encoding="utf-8"?>
<!-- Generator: Adobe Illustrator 16.0.0, SVG Export Plug-In . SVG Version: 6.00 Build 0)  -->
<!DOCTYPE svg PUBLIC "-//W3C//DTD SVG 1.1//EN" "http://www.w3.org/Graphics/SVG/1.1/DTD/svg11.dtd">
<svg version="1.1" id="Ebene_1" xmlns="http://www.w3.org/2000/svg" xmlns:xlink="http://www.w3.org/1999/xlink" x="0px" y="0px"
	 width="1024px" height="1024px" viewBox="0 0 1024 1024" enable-background="new 0 0 1024 1024" xml:space="preserve">
<g id="Ebene_1_1_">
</g>
<g>
	<path fill="currentColor" d="M510.95,877.044c-199.072,0-361.039-161.948-361.039-361.04c0-199.072,161.967-361.039,361.039-361.039
		c199.092,0,361.041,161.967,361.041,361.039C871.99,715.096,710.042,877.044,510.95,877.044z M510.95,185.052
		c-182.488,0-330.953,148.464-330.953,330.952c0,182.489,148.465,330.953,330.953,330.953c182.49,0,330.954-148.464,330.954-330.953
		C841.903,333.516,693.439,185.052,510.95,185.052z"/>
	<path fill="currentColor" d="M510.95,154.965c-199.412,0-361.039,161.659-361.039,361.039c0,199.385,161.627,361.04,361.039,361.04
		V154.965z"/>
</g>
</svg>
