<?xml version="1.0" encoding="utf-8"?>
<!-- Generator: Adobe Illustrator 21.0.2, SVG Export Plug-In . SVG Version: 6.00 Build 0)  -->
<svg version="1.1" id="Ebene_1" xmlns="http://www.w3.org/2000/svg" xmlns:xlink="http://www.w3.org/1999/xlink" x="0px" y="0px"
	 viewBox="0 0 1024 1024" style="enable-background:new 0 0 1024 1024;" xml:space="preserve">
<path d="M321.6,454.8H385v88.8h-63.4V454.8L321.6,454.8z M232.8,454.8h63.4v88.8h-63.4V454.8z M397.8,429.5H220.2
	c-7,0-12.7,5.7-12.7,12.7l0,0v114.1c0,7,5.7,12.7,12.7,12.7l0,0h177.6c7,0,12.7-5.7,12.7-12.7V442.2
	C410.4,435.2,404.8,429.5,397.8,429.5z"/>
<path d="M309,810c-28,0-50.7-22.7-50.7-50.7s22.7-50.7,50.7-50.7s50.7,22.7,50.7,50.7l0,0C359.7,787.3,337,810,309,810z M309,683.1
	c-42,0-76.1,34.1-76.1,76.1s34.1,76.1,76.1,76.1s76.1-34.1,76.1-76.1l0,0C385.1,717.2,351,683.2,309,683.1z"/>
<path d="M867,860.7h-63.4V708.5h28.6l34.8,116L867,860.7L867,860.7z M778.2,746.6H731c-25.4-16.2-57.9-16.2-83.3,0h-81.6
	c-25.4-16.2-57.9-16.2-83.2,0h-21.8V556.3h317.1L778.2,746.6L778.2,746.6z M729.9,840.4c-16.7,22.4-48.3,26.9-70.7,10.3
	c-9.3-6.9-15.9-16.8-18.7-28h61.6v-25.4h-61.7c2.9-11.1,9.4-20.9,18.5-27.9c22.4-16.8,54.2-12.2,71,10.2
	C743.4,797.6,743.4,822.4,729.9,840.4L729.9,840.4z M614.5,797.3h-15.1c-1.5-8.9-4.7-17.5-9.2-25.4h33.5
	C619.2,779.8,616.1,788.4,614.5,797.3z M573.5,822.7c-7.1,27.1-34.7,43.3-61.8,36.2s-43.3-34.7-36.2-61.8s34.7-43.3,61.8-36.2
	c17.8,4.7,31.7,18.6,36.3,36.4h-49v25.4L573.5,822.7L573.5,822.7z M156.8,340.7h304.4v38H156.8V340.7z M435.8,746.6h-0.6
	c-7-69.7-69.1-120.5-138.8-113.6c-60.1,6-107.6,53.5-113.6,113.6h-0.6V404.1h253.6V746.6z M309,860.7c-56,0-101.5-45.4-101.5-101.4
	s45.4-101.5,101.4-101.5s101.5,45.4,101.5,101.4l0,0C410.4,815.3,365,860.7,309,860.7z M651.4,454.8h76.1v76.1h-76.1V454.8z
	 M626,353.4h126.8v76.1H626V353.4z M626,264.6h-12.7c-3.4,0-6.7-1.4-9-3.9c-2.3-2.3-3.7-5.5-3.6-8.8c0-21-17-38-38-38h-12.8
	c-7,0-12.7-5.7-12.7-12.7l0,0v-12.7c0-9.4-3.5-18.4-9.7-25.4h62.6c5.4,15.2,19.8,25.3,35.9,25.4h12.7c3.4,0,6.7,1.4,9,3.9
	c2.4,2.3,3.7,5.5,3.6,8.8c0,21,17,38,38,38l0,0H702c7,0,12.7,5.6,12.7,12.6v0.1V328H664v-25.4C664.1,281.7,647.1,264.7,626,264.6
	C626.1,264.6,626,264.6,626,264.6z M891.8,819l-38-126.8c-1.6-5.4-6.6-9.1-12.2-9h-38V543.6c0-7-5.7-12.7-12.7-12.7h-38v-76.1h12.7
	c7,0,12.7-5.7,12.7-12.7l0,0V340.7c0-7-5.7-12.7-12.7-12.7l0,0h-25.4v-76.1c0-21-17-38-38-38h-12.8c-7,0-12.7-5.7-12.7-12.7l0,0
	c-0.1-20.9-17.1-37.9-38-38H626c-7,0-12.7-5.7-12.7-12.7s-5.7-12.7-12.7-12.7H473.8c-7,0-12.7,5.7-12.7,12.7l0,0
	c0,14,11.4,25.3,25.4,25.3h12.7c7,0,12.7,5.7,12.7,12.7v12.7c0,21,17,38,38,38h12.7c7,0,12.7,5.7,12.7,12.7c0.1,21,17.1,37.9,38,38
	H626c7,0,12.7,5.7,12.7,12.7V328h-25.3c-7,0-12.7,5.7-12.7,12.7v101.6c0,7,5.7,12.7,12.7,12.7h12.7v76.1h-165v-127h12.7
	c7,0,12.7-5.7,12.7-12.7V328c0-7-5.7-12.7-12.7-12.7H144.1c-7,0-12.7,5.7-12.7,12.7v63.4c0,7,5.7,12.7,12.7,12.7l0,0h12.7v355.1
	c0,7,5.7,12.7,12.7,12.7h13.3c7,69.7,69.1,120.5,138.8,113.6c60.1-6,107.6-53.5,113.6-113.6h23.7c-21.1,36.3-8.8,82.8,27.5,103.9
	c36.3,21.1,82.8,8.8,103.9-27.5c4.6-7.9,7.8-16.7,9.3-25.7h15c6.9,41.4,46.1,69.4,87.5,62.5s69.4-46.1,62.5-87.5
	c-1.5-9.1-4.7-17.8-9.3-25.7h23.1v101.5c0,7,5.7,12.7,12.7,12.7h88.8c7,0,12.7-5.7,12.7-12.7v-50.7
	C892.4,821.4,892.2,820.2,891.8,819z"/>
<rect x="486.5" y="581.7" width="25.4" height="63.4"/>
<rect x="537.2" y="581.7" width="25.4" height="63.4"/>
<rect x="588" y="581.7" width="25.4" height="63.4"/>
</svg>
