<?xml version="1.0" encoding="utf-8"?>
<!-- Generator: Adobe Illustrator 16.0.0, SVG Export Plug-In . SVG Version: 6.00 Build 0)  -->
<!DOCTYPE svg PUBLIC "-//W3C//DTD SVG 1.1//EN" "http://www.w3.org/Graphics/SVG/1.1/DTD/svg11.dtd">
<svg version="1.1" id="Ebene_1" xmlns="http://www.w3.org/2000/svg" xmlns:xlink="http://www.w3.org/1999/xlink" x="0px" y="0px"
	 width="1024px" height="1024px" viewBox="0 0 1024 1024" enable-background="new 0 0 1024 1024" xml:space="preserve">
<g id="Ebene_1_1_">
</g>
<g>
	<path fill="currentColor" d="M814.207,451.136c-12.638,53.61-41.94,102.44-84.664,141.128L510.137,788.002L294.53,592.322
		c-42.798-38.775-72.085-87.591-84.738-141.187c-9.102-38.517-5.364-60.259-5.35-60.415l0.193-1.298
		c8.352-94.025,73.623-162.285,155.236-162.285c60.23,0,113.226,36.991,138.385,96.549l11.826,28.048l11.838-28.048
		c24.767-58.631,80.559-96.534,142.229-96.534c81.57,0,146.876,68.262,155.379,163.512
		C819.572,390.877,823.31,412.634,814.207,451.136 M844.922,386.655c-9.758-107.334-85.735-185.209-180.802-185.209
		c-63.34,0-121.327,34.081-153.983,88.717c-32.318-55.335-87.932-88.73-150.266-88.73c-95.05,0-171.042,77.876-180.772,185.208
		c-0.77,4.737-3.93,29.688,5.67,70.372c13.846,58.703,45.835,112.07,92.498,154.353l232.729,211.202L746.73,611.382
		c46.649-42.299,78.647-95.652,92.484-154.369C848.829,416.341,845.664,391.392,844.922,386.655"/>
	<path fill="currentColor" d="M383.524,279.521c-70.85,0-128.475,57.631-128.475,128.475c0,7.104,5.742,12.869,12.853,12.869
		c7.104,0,12.839-5.765,12.839-12.869c0-56.662,46.106-102.768,102.783-102.768c7.105,0,12.854-5.749,12.854-12.839
		C396.378,285.27,390.607,279.521,383.524,279.521"/>
</g>
</svg>
