<?xml version="1.0" encoding="utf-8"?>
<!-- Generator: Adobe Illustrator 16.0.0, SVG Export Plug-In . SVG Version: 6.00 Build 0)  -->
<!DOCTYPE svg PUBLIC "-//W3C//DTD SVG 1.1//EN" "http://www.w3.org/Graphics/SVG/1.1/DTD/svg11.dtd">
<svg version="1.1" id="Ebene_1" xmlns="http://www.w3.org/2000/svg" xmlns:xlink="http://www.w3.org/1999/xlink" x="0px" y="0px"
	 width="1024px" height="1024px" viewBox="0 0 1024 1024" enable-background="new 0 0 1024 1024" xml:space="preserve">
<g>
	<path fill="currentColor" d="M720.773,760.613c-84.967,0-154.129-70.672-154.129-157.568c0-86.852,69.162-157.553,154.129-157.553
		c84.996,0,154.131,70.701,154.131,157.553C874.904,689.941,805.77,760.613,720.773,760.613 M478.722,567.807
		c-16.11-83.986-88.645-147.617-175.481-147.617c-33.149,0-64.189,9.258-90.803,25.422l55.489-103.452l0.032-0.077
		c0.112-0.151,0.187-0.331,0.218-0.468c0.076-0.075,0.076-0.104,0.105-0.18c0.03-0.059,0.084-0.12,0.113-0.181l10.865-21.396
		c17.897-35.147,53.407-57.253,90.621-56.469c1.59,0.045,3.18,0.105,4.771,0.227c50.965,3.438,92.844,46.984,95.371,99.185
		c0.898,18.351-2.88,36.581-10.895,52.729c-1.131,1.886-1.734,4.117-1.734,6.469c0,6.98,5.512,12.604,12.327,12.664h84.619
		c6.801,0,12.305-5.684,12.305-12.664c0-2.308-0.604-4.48-1.66-6.319c-8.082-16.193-11.852-34.453-10.977-52.88
		c2.502-52.201,44.406-95.747,95.355-99.185c1.629-0.121,3.18-0.181,4.793-0.227c37.246-0.723,72.68,21.322,90.547,56.469
		l10.918,21.396c0.029,0.061,0.104,0.15,0.135,0.257c0.061,0.135,0.15,0.316,0.258,0.512c0,0.03,0.027,0.03,0.027,0.06
		l55.52,103.528c-26.598-16.164-57.676-25.422-90.787-25.422c-86.805,0-159.393,63.631-175.479,147.617H478.722z M303.241,760.613
		c-84.983,0-154.138-70.672-154.138-157.568c0-86.852,69.155-157.553,154.138-157.553c84.997,0,154.106,70.701,154.106,157.553
		C457.347,689.941,388.238,760.613,303.241,760.613 M871.588,504.855c-0.033,0-0.033-0.032-0.033-0.032l-0.148-0.225
		l-93.123-173.582l-0.285-0.529c-0.031-0.15-0.107-0.3-0.168-0.406l-0.182-0.362l-11.006-21.577
		c-22.182-43.591-66.48-71.14-113.027-70.009c-1.961,0.03-3.891,0.106-5.881,0.241c-64.324,4.313-115.229,57.252-118.395,123.161
		c-0.813,16.329,1.358,32.553,6.363,47.813H488.35c4.945-15.261,7.139-31.485,6.362-47.813
		c-3.211-65.908-54.131-118.847-118.44-123.161c-1.975-0.135-3.919-0.211-5.864-0.241c-46.419-1.13-90.826,26.418-113.073,70.009
		l-11.038,21.773l-0.105,0.166c-0.082,0.106-0.114,0.256-0.189,0.377l-93.334,173.988l-0.204,0.376c0,0.032-0.044,0.032-0.044,0.061
		c-17.755,28.377-28.023,62.063-28.023,98.161c0,100.859,80.239,182.855,178.844,182.855c98.618,0,178.829-81.996,178.829-182.855
		c0-3.318-0.076-6.635-0.278-9.92h60.426c-0.211,3.285-0.287,6.602-0.287,9.92c0,100.859,80.23,182.855,178.844,182.855
		c98.643,0,178.83-81.996,178.83-182.855C899.604,566.902,889.305,533.232,871.588,504.855"/>
	<path fill="currentColor" d="M194.586,661.607c-5.776,0-10.932-4.176-12.108-10.176c-5.729-29.389-9.786-67.672,9.87-103.408
		c26.755-48.671,74.509-78.708,121.62-76.416c6.809,0.331,12.07,6.241,11.762,13.223c-0.324,6.997-6.114,12.409-12.922,12.062
		c-37.876-1.793-76.704,23.146-98.938,63.539c-15.658,28.484-12.047,60.949-7.155,86.039c1.329,6.861-3.007,13.51-9.695,14.881
		C196.208,661.52,195.386,661.607,194.586,661.607"/>
	<path fill="currentColor" d="M829.428,661.607c-0.801,0-1.613-0.088-2.443-0.256c-6.678-1.371-11.006-8.02-9.68-14.881
		c4.9-25.09,8.504-57.555-7.146-86.039c-22.242-40.393-61.098-65.332-98.945-63.539c-6.768,0.302-12.604-5.065-12.904-12.062
		c-0.332-6.982,4.928-12.892,11.76-13.223c47.15-2.248,94.844,27.744,121.607,76.416c19.646,35.736,15.59,74.02,9.859,103.408
		C840.375,657.432,835.217,661.607,829.428,661.607"/>
</g>
</svg>
