<?xml version="1.0" encoding="utf-8"?>
<!-- Generator: Adobe Illustrator 21.0.2, SVG Export Plug-In . SVG Version: 6.00 Build 0)  -->
<svg version="1.1" id="Ebene_1" xmlns="http://www.w3.org/2000/svg" xmlns:xlink="http://www.w3.org/1999/xlink" x="0px" y="0px"
	 viewBox="0 0 1024 1024" style="enable-background:new 0 0 1024 1024;" xml:space="preserve">
<style type="text/css">
	.st0{fill:#323232;}
</style>
<path class="st0" d="M495.1,663c-3.7,0.1-7.3-1.4-9.9-4l-64.6-64.3c-4.6-6.1-3.4-14.9,2.8-19.5c4.9-3.7,11.7-3.7,16.7,0l53.2,54.1
	l111.3-126.1c5-5.6,13.7-6.1,19.3-1.1c5.6,5,6.1,13.7,1.1,19.3L504,658.3c-2.4,3-6.1,4.7-9.9,4.6H495.1z"/>
<path class="st0" d="M755.9,849.6H323.3h-21.6c-19,2-38.3-1.2-55.6-9.3c-12.1-6.9-22.7-16.3-30.9-27.5
	c-11.3-15.7-17.1-34.7-16.4-54.1V338.5c0-7.4,0-14.8,0-22.6v-3.7c0-6.8,0-13.6,0-20.4c0-6.8,0-5.3,0-7.7c1.2-9.9,4.7-19.4,10.2-27.8
	c3-4.6,6.6-8.8,10.8-12.4l9.6-6.8l7.1-3.7l9.6-3.1l9.6-2.8l10.2-2.2c10.3-1,20.6-1,30.9,0h418.4c11.7-0.9,23.5-0.9,35.2,0
	c10.8,0.8,21.3,3.8,30.9,8.7c23.3,13.9,38.6,37.9,41.4,64.9c1.2,14.6,1.2,29.3,0,43.9c0,5.6,0,11.1,0,16.4v366.5c0,9,0,17.9,0,26.6
	c0.7,12.5-0.1,25-2.2,37.4c-2.8,12.1-7.7,23.6-14.5,34c-6.9,11.6-18,20.1-30.9,23.8C768.8,849,762.4,849.7,755.9,849.6z
	 M745.4,822.1h10.2c4.4,0.1,8.7-0.5,13-1.5c6.2-2.1,11.2-6.6,14.2-12.4c5.2-7.7,8.9-16.3,11.1-25.3c2-10.2,2.9-20.5,2.8-30.9
	c0-8.3,0-17,0-25.3V717c0-5.9,0-11.7,0-17.6V341.6c1.3-13.2,1.3-26.4,0-39.6c-1.5-18.1-11.3-34.4-26.6-44.2
	c-6.6-3.3-13.7-5.3-21-5.9c-10.3-0.7-20.6-0.7-30.9,0H293.9c-8.3-0.8-16.7-0.8-25,0h-7.4l-7.1,2.2l-6.5,2.5l-4.6,2.2l-5.3,5.6l0,0
	c-2.3,1.8-4.3,4-5.9,6.5c-3.1,4.9-5.1,10.3-5.9,16.1c0,1.9,0,3.7,0,5.6c-0.3,6.1-0.3,12.2,0,18.2v4c0,7.7,0,15.5,0,23.2v420.9
	c-1.1,13,1.9,25.9,8.7,37.1c6.3,8.2,14.3,15,23.5,19.8c13.4,5.1,27.8,6.8,42,4.9h445V822.1z M229,254.4L229,254.4z"/>
<path class="st0" d="M387.8,332.3c-7.6,0-13.7-6-13.9-13.6V189.5c-2.3-7.3,1.8-15.1,9.2-17.4c7.3-2.3,15.1,1.8,17.4,9.2
	c0.8,2.7,0.8,5.5,0,8.2v129.2C400.5,325.8,395,331.8,387.8,332.3z"/>
<path class="st0" d="M638.5,332.3c-7.5,0-13.6-6.1-13.6-13.6V189.5c0-7.6,6-13.7,13.6-13.9c7.5,0,13.6,6.1,13.6,13.6
	c0,0.1,0,0.2,0,0.3v129.2C652.1,326.2,646,332.3,638.5,332.3z"/>
<rect x="212.6" y="369.4" class="st0" width="597.1" height="27.5"/>
</svg>
