<?xml version="1.0" encoding="utf-8"?>
<!-- Generator: Adobe Illustrator 16.0.0, SVG Export Plug-In . SVG Version: 6.00 Build 0)  -->
<!DOCTYPE svg PUBLIC "-//W3C//DTD SVG 1.1//EN" "http://www.w3.org/Graphics/SVG/1.1/DTD/svg11.dtd">
<svg version="1.1" id="Ebene_1" xmlns="http://www.w3.org/2000/svg" xmlns:xlink="http://www.w3.org/1999/xlink" x="0px" y="0px"
	 width="1024px" height="1024px" viewBox="0 0 1024 1024" enable-background="new 0 0 1024 1024" xml:space="preserve">
<g id="Ebene_1_1_">
</g>
<g>
	<path fill="currentColor" d="M675.547,339.927c-25.854,0-38.768,9.191-38.768,27.572v59.122h83.43l-5.896,75.558h-77.533v262.743H538.92
		V502.179h-51.878v-75.558h51.878v-51.219c0-37.25,5.697-63.305,17.064-78.164c19.268-25.425,46.209-38.107,80.795-38.107
		c43.807,0,75.127,3.265,93.967,9.851l-13.17,77.502C703.146,342.131,689.117,339.927,675.547,339.927 M823.338,200.667
		c-11.395-11.396-24.965-17.092-40.713-17.092h-541.28c-15.76,0-29.346,5.696-40.713,17.092
		c-11.379,11.394-17.063,24.938-17.063,40.713v541.264c0,15.777,5.684,29.318,17.063,40.743
		c11.367,11.366,24.953,17.036,40.713,17.036h541.28c15.748,0,29.318-5.67,40.713-17.036c11.395-11.425,17.094-24.966,17.094-40.743
		V241.381C840.432,225.605,834.732,212.062,823.338,200.667"/>
</g>
</svg>
