<?xml version="1.0" encoding="utf-8"?>
<!-- Generator: Adobe Illustrator 16.0.0, SVG Export Plug-In . SVG Version: 6.00 Build 0)  -->
<!DOCTYPE svg PUBLIC "-//W3C//DTD SVG 1.1//EN" "http://www.w3.org/Graphics/SVG/1.1/DTD/svg11.dtd">
<svg version="1.1" id="Ebene_1" xmlns="http://www.w3.org/2000/svg" xmlns:xlink="http://www.w3.org/1999/xlink" x="0px" y="0px"
	 width="1024px" height="1024px" viewBox="0 0 1024 1024" enable-background="new 0 0 1024 1024" xml:space="preserve">
<g>
	<path fill="currentColor" d="M722.606,353.944c-51.428,96.086-184.193,172.5-210.575,186.988
		c-26.374-14.506-159.297-91.183-210.612-186.988c-18.436-34.464-26.057-70.806-21.442-102.33
		c8.133-55.596,60.906-84.696,108.818-84.696c23.868,0,46.303,6.646,64.837,19.234c16.114,10.955,28.983,24.863,37.211,40.229
		c4.572,8.547,8.677,18.303,12.22,29.011c1.266,3.852,4.879,6.489,8.949,6.489c4.087,0,7.712-2.637,8.986-6.489
		c3.516-10.688,7.639-20.447,12.212-29.011c8.229-15.367,21.1-29.274,37.203-40.229c18.533-12.588,40.949-19.234,64.844-19.234
		c47.914,0,100.678,29.1,108.818,84.696C748.681,283.138,741.069,319.48,722.606,353.944 M635.257,148.034
		c-27.674,0-53.785,7.79-75.428,22.507c-18.639,12.659-33.608,28.888-43.28,46.943c-1.562,2.92-3.074,5.962-4.537,9.109
		c-1.457-3.147-2.969-6.189-4.535-9.126c-9.652-18.039-24.607-34.287-43.244-46.946c-21.679-14.698-47.764-22.488-75.438-22.488
		c-56.036,0-117.821,34.638-127.507,100.872c-5.189,35.48,3.146,75.937,23.491,113.932
		c57.757,107.87,211.857,191.334,222.442,196.979c0.343,0.191,0.705,0.385,1.083,0.543c0.791,0.334,1.625,0.562,2.452,0.668
		c0.43,0.072,0.843,0.088,1.275,0.088c1.679,0,3.347-0.457,4.824-1.334c11.061-5.875,164.573-88.932,222.421-196.943
		c20.324-37.976,28.674-78.452,23.488-113.932C753.062,182.672,691.274,148.034,635.257,148.034"/>
	<path fill="currentColor" d="M829.614,579.279c-20.219-0.703-35.641,13.801-36.148,14.293l-87.844,79.033
		c-3.867,3.5-4.184,9.477-0.705,13.346c3.52,3.885,9.479,4.184,13.348,0.703l87.965-79.176c0.105-0.121,10.619-10.037,22.752-9.334
		c6.312,0.213,11.99,3.113,17.404,8.896c12.203,13.047-3.938,41.109-6.662,45.592c-48.736,51.727-181.785,186.322-222.469,199.209
		c-49.918,15.787-192.354-2.428-286.77-60.008c-48.538-29.592-72.556-37.91-102.771-35.555
		c-7.323,0.564-45.372,15.053-67.385,23.615c-4.86,1.896-7.278,7.367-5.372,12.238c1.891,4.854,7.368,7.262,12.211,5.361
		c26.753-10.41,57.347-21.66,62.006-22.398c25.547-1.938,46.935,5.713,91.48,32.859c77.547,47.299,181.039,68.045,249.475,68.01
		c21.84,0,40.107-2.094,52.818-6.119c53.893-17.057,223.967-197.295,231.176-204.959c0.354-0.387,0.703-0.828,1.02-1.299
		c1.16-1.795,28.588-44.271,5.027-69.434C851.31,584.641,841.007,579.631,829.614,579.279"/>
	<path fill="currentColor" d="M599.513,676.404c-19.006-0.051-36.977-0.088-47.701-2.795c-36.341-9.074-71.419-32.457-124.51-67.869
		l-3.947-2.637c-58.913-39.246-138.418-34.34-165.977-23.156c-22.974,9.32-94.991,25.793-95.729,25.934
		c-5.082,1.178-8.264,6.225-7.095,11.307c1.151,5.096,6.207,8.264,11.305,7.119c3.007-0.686,74.235-16.965,98.611-26.846
		c20.599-8.354,94.971-14.246,148.406,21.359l3.946,2.637c54.734,36.486,90.883,60.59,130.417,70.49
		c12.941,3.236,32.02,3.287,52.219,3.342c39.967,0.104,89.742,0.244,92.1,26.318c0.121,1.354,0.438,4.941-5.715,9.865
		c-36.346,29.168-186.937,28.73-200.099,24.527c-3.05-0.969-17.106-7.244-70.848-46.875c-4.192-3.113-10.101-2.215-13.195,1.967
		c-3.102,4.203-2.215,10.129,1.979,13.223c40.096,29.557,65.75,46.279,76.264,49.654c5.344,1.707,23.533,3.006,47.496,3.006
		c54.966,0,140.292-6.783,170.202-30.732c11.637-9.336,13.359-19.48,12.729-26.338C706.433,676.703,647.142,676.545,599.513,676.404
		"/>
</g>
</svg>
