<?xml version="1.0" encoding="utf-8"?>
<!-- Generator: Adobe Illustrator 16.0.0, SVG Export Plug-In . SVG Version: 6.00 Build 0)  -->
<!DOCTYPE svg PUBLIC "-//W3C//DTD SVG 1.1//EN" "http://www.w3.org/Graphics/SVG/1.1/DTD/svg11.dtd">
<svg version="1.1" id="Ebene_1" xmlns="http://www.w3.org/2000/svg" xmlns:xlink="http://www.w3.org/1999/xlink" x="0px" y="0px"
	 width="1024px" height="1024px" viewBox="0 0 1024 1024" enable-background="new 0 0 1024 1024" xml:space="preserve">
<g id="Ebene_1_1_">
</g>
<g>
	<path fill="currentColor" d="M823.092,284.844c-2.213-12.125-6.106-23.818-11.481-34.783c-5.373-10.932-12.291-21.192-20.565-30.399
		l-0.032-0.016l-0.091-0.122v-0.015c-4.81-5.42-11.405-12.001-19.635-18.215c-6.244-4.688-13.452-9.176-21.544-12.765l-0.413-0.183
		l-0.061-0.031c-9.055-4.352-18.429-7.619-28.08-9.818c-9.619-2.167-19.543-3.282-29.681-3.282c-14.962,0-29.515,2.427-43.255,7.114
		c-13.742,4.704-26.721,11.666-38.508,20.796l-0.029,0.016l-0.169,0.137c-7.117,5.558-13.437,12-18.674,18.138
		c-9.589,11.238-15.573,21.377-16.629,23.224h-0.029l-0.198,0.383c-5.298,9.727-9.359,20.123-12.108,30.902
		c-2.733,10.748-4.138,21.879-4.138,33.042c0,2.382,0.062,4.733,0.17,6.978c0.12,2.337,0.318,4.673,0.549,6.978
		c0.182,1.816,0.825,3.542,1.816,5.008c0.992,1.45,2.366,2.688,3.971,3.528c1.145,0.595,2.366,1.158,3.647,1.694v0.016
		c1.222,0.503,2.474,0.976,3.727,1.373l1.083,0.353l0.352,1.083c5.16,15.758,13.346,29.973,23.789,42.036
		c10.655,12.305,23.667,22.367,38.232,29.587l4.031,2.001l-4.001,2.032c-6.198,3.159-12.093,6.84-17.591,10.977
		c-5.525,4.17-10.718,8.827-15.526,13.939l-0.048,0.062h-0.013c-2.018,2.168-2.978,4.978-2.887,7.756
		c0.06,2.779,1.222,5.541,3.42,7.588l0.045,0.045v0.016c2.184,2.015,4.992,2.994,7.773,2.916c2.779-0.092,5.541-1.236,7.604-3.435
		c2.412-2.565,4.946-4.992,7.572-7.253c2.642-2.29,5.375-4.411,8.184-6.367l2.443-1.694l0.992,2.793
		c3.894,11.039,10.916,20.599,19.804,27.3c8.58,6.474,18.931,10.322,29.941,10.322h1.953l0.017-0.016
		c10.993,0,21.328-4.108,29.849-11.023c8.84-7.16,15.743-17.361,19.422-29.102l0.854-2.779l2.474,1.557
		c14.323,8.963,26.05,21.467,34.157,35.988c7.999,14.368,12.487,30.721,12.487,47.607v136.746v1.222l-1.007,0.67l-119.734,77.688
		h0.013l-0.013,0.016h-0.03c-2.505,1.632-4.139,4.137-4.719,6.87c-0.581,2.733-0.107,5.665,1.481,8.184h0.015h0.016v0.03
		c1.023,1.574,2.411,2.81,3.969,3.648v0.017c1.56,0.854,3.359,1.312,5.192,1.312c1.054,0,2.105-0.138,3.084-0.442
		c0.979-0.289,1.953-0.731,2.87-1.328l125.723-81.579c1.558-1.007,2.808-2.384,3.647-3.941c0.84-1.572,1.328-3.357,1.328-5.205
		V518.816c0-22.808-6.353-44.445-17.711-62.95c-11.451-18.583-27.973-34.035-48.218-44.295l-4.001-2.03l4.017-2
		c19.405-9.681,35.927-24.354,47.835-42.325c11.575-17.465,18.811-38.049,20.11-60.158l0.076-0.93l0.671-0.611
		c1.787-1.634,3.481-3.421,4.994-5.284c1.512-1.849,2.884-3.848,4.105-5.954c0.643-1.114,1.085-2.336,1.312-3.604
		C823.307,287.408,823.307,286.095,823.092,284.844 M688.822,454.797h-1.97c-8.551,0-16.429-4.137-22.141-10.688
		c-5.633-6.474-9.191-15.329-9.191-24.933h0.017l-0.017-0.626l-0.091-2.992l2.916,0.779c5.053,1.329,10.229,2.336,15.48,3.006
		c5.132,0.659,10.4,1.007,15.788,1.007c4.582,0,9.101-0.258,13.499-0.731c4.519-0.503,8.961-1.252,13.254-2.229l2.932-0.657
		l-0.186,2.977c-0.518,9.421-4.183,18.17-9.617,24.537v0.015C703.999,450.706,696.654,454.797,688.822,454.797 M689.614,398.533
		c-20.185,0-39.239-5.986-55.24-16.444c-16.168-10.566-29.223-25.774-37.164-44.02l-1.021-2.352l2.489-0.702
		c8.762-2.473,16.474-7.452,22.352-14.092c5.831-6.565,9.834-14.812,11.238-23.866l0.336-2.168l2.167,0.29
		c3.848,0.474,7.787,0.857,11.788,1.101c3.833,0.26,7.757,0.381,11.728,0.381c13.221,0,26.2-1.39,38.688-4.076
		c12.551-2.734,24.644-6.78,36.049-12.079l2.367-1.099l0.748,2.519c2.871,9.865,8.932,18.43,16.949,24.445
		c7.831,5.878,17.558,9.359,28.094,9.359c0.732,0,1.541-0.015,2.335-0.06c0.779-0.031,1.558-0.093,2.306-0.154l3.039-0.306
		l-0.61,2.993c-4.794,23.072-17.543,43.316-35.195,57.685C735.681,390.028,713.571,398.533,689.614,398.533 M781.195,293.913
		c-6.93,0-13.191-2.826-17.742-7.36h0.018c-4.551-4.55-7.377-10.812-7.377-17.728l0,0l0.031-7.313h-0.031
		c0-1.985-0.55-3.893-1.496-5.543c-0.977-1.647-2.381-3.052-4.121-4.014c-1.742-0.962-3.681-1.406-5.588-1.358
		c-1.925,0.045-3.849,0.611-5.498,1.664c-11.772,7.388-24.69,13.039-38.323,16.84c-13.649,3.787-28.05,5.74-42.781,5.74v-0.014
		c-5.772,0-11.544-0.291-17.209-0.902h-0.016c-5.696-0.596-11.329-1.496-16.84-2.686c-1.604-0.367-3.27-0.337-4.842,0.03
		c-1.558,0.367-3.052,1.099-4.336,2.123c-1.268,1.037-2.291,2.336-2.962,3.786h-0.03c-0.673,1.436-1.069,3.054-1.069,4.703v7.987
		c0,6.901-2.809,13.176-7.33,17.726l-0.028,0.016c-4.551,4.534-10.81,7.344-17.712,7.344h-0.123l-2.564-0.139l-0.137-0.014
		l-0.596-0.062l-0.077-0.032l-0.87-0.137l-1.893-0.289v-1.908l-0.062-3.376v-0.03c0-9.314,1.161-18.582,3.435-27.575
		c2.275-8.947,5.665-17.65,10.094-25.804l0.03-0.062l0.091-0.199l0.029-0.032c0.033-0.043,12.171-21.115,29.73-34.826l0.105-0.077
		l0.03-0.03c9.864-7.635,20.705-13.452,32.187-17.375c11.512-3.924,23.682-5.939,36.187-5.939c8.428,0,16.734,0.915,24.826,2.748
		c8.047,1.817,15.878,4.55,23.422,8.168l1.131,0.489c7.511,3.343,14.153,7.71,19.788,12.245c5.633,4.521,10.26,9.177,13.772,13.116
		l0.228,0.276c6.305,7.007,11.695,14.749,16.019,23.039c4.364,8.291,7.663,17.101,9.771,26.232l0.273,1.131l-0.764,0.884
		c-2.381,2.688-5.282,4.826-8.505,6.292l-0.013,0.016C788.28,293.118,784.77,293.913,781.195,293.913z M576.354,626.537
		c14.811-8.702,27.209-21.224,35.759-36.172c8.261-14.411,13.009-31.131,13.009-48.904c0-8.062-0.978-15.879-2.779-23.314
		c-1.861-7.712-4.656-15.055-8.215-21.956l-0.272-0.505v-0.519c0,0-0.338-0.168-0.521-0.458l-0.091-0.137
		c-8.489-15.665-21.102-28.812-36.401-37.928c-14.75-8.795-31.987-13.865-50.401-13.865c-18.398,0-35.667,5.07-50.408,13.865
		c-15.277,9.116-27.911,22.277-36.4,37.943l-0.045,0.106c-0.198,0.306-0.527,0.441-0.527,0.458v0.519l-0.266,0.503
		c-3.566,6.887-6.369,14.261-8.239,21.957c-1.801,7.451-2.771,15.268-2.771,23.33c0,17.773,4.727,34.478,12.994,48.891
		c8.566,14.948,20.949,27.468,35.774,36.186l3.521,2.061l-3.634,1.88c-18.131,9.389-32.943,23.392-43.18,40.2
		c-10.192,16.72-15.887,36.218-15.887,56.692h-0.016v48.036h0.016c0,1.863,0.488,3.663,1.343,5.236
		c0.863,1.572,2.13,2.946,3.689,3.955l98.19,62.493h0.015c0.871,0.58,1.832,0.993,2.794,1.284c0.962,0.273,2.018,0.41,3.055,0.41
		c1.038,0,2.061-0.137,3.023-0.41v0.014c0.993-0.289,1.923-0.702,2.81-1.251l98.405-62.189c1.573-1.007,2.854-2.382,3.711-3.969
		c0.869-1.589,1.358-3.422,1.358-5.315h0.015l-0.215-48.339l-0.03-0.016c0-20.491-5.709-39.928-15.862-56.586
		c-10.275-16.841-25.117-30.857-43.226-40.23l-3.62-1.896L576.354,626.537z M526.456,464.599c11.544,0,22.567,2.581,32.398,7.177
		c10.263,4.78,19.271,11.773,26.477,20.323l2.2,2.656l-3.329,0.961c-8.948,2.565-18.384,4.537-28.094,5.849
		c-9.682,1.298-19.636,1.97-29.652,1.97c-10.045,0-20.002-0.672-29.689-1.985c-9.697-1.312-19.124-3.268-28.081-5.833l-3.349-0.961
		l2.237-2.656c7.19-8.55,16.214-15.543,26.452-20.307C503.897,467.179,514.884,464.599,526.456,464.599 M449.595,541.447
		c0-4.338,0.372-8.612,1.061-12.781c0.718-4.215,1.802-8.367,3.192-12.383l0.702-2.076l2.099,0.671
		c10.742,3.421,22.086,6.047,33.852,7.819c11.672,1.77,23.741,2.656,35.957,2.656v0.015c12.154,0,24.247-0.901,35.989-2.671
		c11.725-1.772,23.07-4.398,33.804-7.819l2.091-0.671l0.733,2.076c1.372,4.001,2.444,8.168,3.177,12.367
		c0.672,4.185,1.052,8.475,1.052,12.811c0,21.163-8.625,40.386-22.55,54.295c-13.91,13.909-33.133,22.552-54.312,22.552
		c-21.185-0.015-40.4-8.643-54.317-22.552C458.222,581.847,449.595,562.624,449.595,541.447 M552.046,639.928
		c-0.854,6.52-4.03,12.018-8.306,15.986c-4.672,4.337-10.673,6.87-16.368,6.87h-1.604c-5.969,0-12.275-2.61-17.146-6.978
		c-4.557-4.061-7.9-9.665-8.703-16.123l-0.406-3.253l3.176,0.794c3.825,0.947,7.765,1.665,11.765,2.169
		c3.909,0.473,7.91,0.719,11.985,0.719v0.014c3.878,0,7.757-0.244,11.56-0.686c3.848-0.458,7.602-1.131,11.299-2.002l3.175-0.764
		L552.046,639.928z M525.264,824.22l-85.021-54.158l-1.061-0.687v-1.208V727.37c0-14.764,3.717-28.887,10.428-41.33
		c6.788-12.598,16.665-23.454,28.895-31.501l2.223-1.466l1.077,2.46c3.832,8.732,10.236,15.879,17.825,20.903
		c7.923,5.235,17.163,8.137,26.138,8.137h1.604c9.283,0,18.079-2.963,25.438-8.031c7.65-5.253,13.802-12.748,17.497-21.467
		l1.039-2.476l2.26,1.452c12.398,8.001,22.506,18.933,29.469,31.65c6.84,12.521,10.641,26.797,10.641,41.73l0.185,41.039
		l0.015,1.254l-1.068,0.671l-85.168,53.823l-1.207,0.747L525.264,824.22z M430.034,467.653l0.016-0.016v0.016
		c1.551-2.535,1.94-5.466,1.298-8.153c-0.625-2.718-2.296-5.191-4.848-6.795l-0.06-0.03h-0.016l0.016-0.017
		c-1.956-1.205-3.909-2.352-5.878-3.419c-2.048-1.114-4.145-2.169-6.268-3.176l-4.16-1.955l4.091-2.076
		c8.008-4.093,15.573-9.1,22.537-14.917c6.909-5.755,13.205-12.323,18.786-19.575l0.986-1.297l1.533,0.533
		c2.237,0.78,4.597,1.375,7.001,1.788c2.336,0.38,4.772,0.595,7.275,0.595c12.025,0,22.934-4.901,30.828-12.781
		c7.894-7.894,12.778-18.811,12.778-30.826h0.016v-32.751c0-20.506-3.923-40.477-11.382-58.968
		c-7.46-18.521-18.497-35.605-32.727-50.354c-14.162-14.705-30.782-26.339-48.937-34.477c-18.124-8.154-37.82-12.825-58.18-13.635
		h-0.078h-0.014c-1.795-0.076-3.521-0.138-5.161-0.153c-1.656,0-3.298,0-4.924,0.06c-20.276,0.475-40.011,4.841-58.288,12.673
		c-18.26,7.833-35.063,19.146-49.53,33.591c-14.834,14.78-26.347,32.063-34.118,50.906c-7.779,18.826-11.863,39.271-11.863,60.386
		h-0.016v32.706h0.016c0,12.031,4.893,22.948,12.787,30.841c7.902,7.88,18.811,12.797,30.835,12.797c2.487,0,4.923-0.23,7.251-0.611
		c2.427-0.413,4.788-1.007,7.025-1.788l1.524-0.533l0.994,1.297c6.136,8.001,13.191,15.161,20.917,21.33
		c7.787,6.199,16.292,11.419,25.332,15.543l4.167,1.908l-4.06,2.125c-19.949,10.488-36.104,25.908-47.25,44.292
		c-11.131,18.368-17.275,39.743-17.275,62.219v107.781c0,1.848,0.466,3.633,1.313,5.222c0.839,1.541,2.092,2.932,3.642,3.925
		l119.437,77.486c0.887,0.596,1.856,1.023,2.84,1.329c0.986,0.273,2.039,0.426,3.084,0.426c1.825,0,3.641-0.441,5.222-1.312v-0.014
		c1.551-0.825,2.924-2.062,3.939-3.634c1.642-2.504,2.092-5.482,1.519-8.215c-0.579-2.718-2.206-5.237-4.725-6.87l-113.432-73.611
		l-1.029-0.686v-1.206V554.958c0-15.482,3.594-30.369,10.19-43.682c6.672-13.438,16.43-25.3,28.644-34.568l2.473-1.895l1.016,2.947
		c4,11.606,11.192,21.743,20.216,28.904c8.642,6.871,19.009,10.979,29.858,10.979h1.97c11.321,0,21.597-4.887,29.987-12.626
		c9.413-8.69,16.498-20.918,20.093-33.866l0.802-2.856l2.513,1.527l1.174,0.686l0.032,0.017l1.174,0.717v0.015
		c2.566,1.575,5.52,1.971,8.253,1.344c2.704-0.641,5.192-2.32,6.787-4.887L430.034,467.653z M278.877,286.125
		c-4.129,7.023-7.322,14.598-9.458,22.476c-2.13,7.848-3.223,16.002-3.223,24.231h-0.014v32.706h0.014
		c0,3.405-0.802,6.656-2.206,9.528c-1.45,2.991-3.58,5.604-6.16,7.634l-0.153,0.121l-0.236,0.123l-0.718,0.55l-0.16,0.106
		c-1.764,1.207-3.719,2.153-5.793,2.796c-2.039,0.624-4.177,0.961-6.383,0.961v-0.016c-6.001,0-11.46-2.458-15.415-6.396
		c-3.939-3.941-6.397-9.392-6.397-15.392l0.015-32.751h-0.015c0-37.133,14.559-70.618,38.401-95.047
		c23.827-24.414,56.975-39.79,94.107-40.675h0.016c1.372-0.03,2.792-0.03,4.236-0.03c1.466,0.015,2.969,0.06,4.472,0.106
		c36.538,1.451,69.121,17.07,92.574,41.485c23.451,24.414,37.759,57.593,37.759,94.175v32.722h0.015
		c0,6.015-2.458,11.465-6.396,15.407h-0.016c-3.94,3.953-9.397,6.412-15.399,6.412v-0.016c-2.222,0-4.381-0.335-6.396-0.946
		c-2.077-0.643-4.033-1.589-5.802-2.796l-0.076-0.045l-0.092-0.078l-0.688-0.533l-0.236-0.123L458.9,382.7
		c-2.596-2.031-4.724-4.643-6.176-7.65h0.016c-1.412-2.87-2.205-6.107-2.205-9.497l0.013-32.751h-0.013
		c0-22.658-8.461-43.805-22.483-60.099c-14.054-16.291-33.714-27.757-56.112-31.056c-1.505-0.214-3.025-0.137-4.429,0.26h-0.016
		c-1.42,0.367-2.785,1.053-3.969,2.001c-1.176,0.93-2.13,2.106-2.816,3.403h-0.016c-0.688,1.299-1.107,2.749-1.238,4.276
		c-0.359,4.625-0.97,9.282-1.809,13.88c-0.831,4.595-1.938,9.175-3.25,13.665l-0.49,1.603h-1.672h-63.944
		c-1.94,0-3.803,0.52-5.413,1.45h-0.016C281.251,283.102,279.861,284.46,278.877,286.125z M359.19,495.839h-1.956
		c-8.161,0-16.16-4.871-22.085-12.183c-5.803-7.178-9.651-16.782-9.665-26.493l-0.404-3.113l-0.428-3.283l3.207,0.823
		c4.922,1.251,9.979,2.2,15.123,2.841c5.032,0.626,10.176,0.946,15.383,0.946v0.031c4.877,0,9.772-0.321,14.619-0.886
		c4.893-0.579,9.673-1.435,14.307-2.533l2.909-0.704l-0.145,2.994c-0.45,10.062-4.52,20.399-10.161,28.186
		c-5.788,7.955-13.354,13.375-20.704,13.359V495.839z M358.365,433.573c-15.651,0-30.705-3.557-44.217-10.152
		c-13.575-6.611-25.629-16.324-35.164-28.554l-1.077-1.389l1.061-1.375c2.878-3.74,5.177-7.984,6.726-12.551
		c1.497-4.38,2.314-9.099,2.314-14l0.014-32.751h-0.014c0-4.962,0.534-9.941,1.579-14.78c1.032-4.871,2.596-9.604,4.627-14.123
		l0.596-1.33h1.465h65.464v-0.014c2.299,0,4.458-0.705,6.238-1.956c1.787-1.235,3.207-3.039,3.993-5.16
		c1.61-4.366,3.046-8.824,4.268-13.374c1.214-4.475,2.251-9.056,3.061-13.681l0.458-2.643l2.527,0.933
		c13.727,4.979,25.423,14.169,33.638,25.866c8.061,11.497,12.801,25.482,12.801,40.276h-0.014v32.722h0.014
		c0,4.917,0.809,9.635,2.298,14.03c1.55,4.566,3.848,8.81,6.726,12.536l1.062,1.375l-1.062,1.389
		c-9.542,12.23-21.597,21.942-35.164,28.554C389.054,430.017,374,433.573,358.365,433.573"/>
</g>
</svg>
