<?xml version="1.0" encoding="utf-8"?>
<!-- Generator: Adobe Illustrator 16.0.0, SVG Export Plug-In . SVG Version: 6.00 Build 0)  -->
<!DOCTYPE svg PUBLIC "-//W3C//DTD SVG 1.1//EN" "http://www.w3.org/Graphics/SVG/1.1/DTD/svg11.dtd">
<svg version="1.1" id="Ebene_1" xmlns="http://www.w3.org/2000/svg" xmlns:xlink="http://www.w3.org/1999/xlink" x="0px" y="0px"
	 width="1024px" height="1024px" viewBox="0 0 1024 1024" enable-background="new 0 0 1024 1024" xml:space="preserve">
<g>
	<path fill="currentColor" d="M632.038,206.487c18.127-30.272,57.511-40.13,87.767-21.971c30.286,18.143,40.144,57.527,21.986,87.781
		c-18.16,30.271-57.528,40.115-87.782,21.986C623.737,276.141,613.863,236.759,632.038,206.487 M640.128,317.39
		c14.626,8.753,30.726,12.937,46.632,12.937c30.936,0,61.126-15.758,78.151-44.167c25.781-42.998,11.771-98.968-31.228-124.749
		c-20.852-12.5-45.302-16.149-68.845-10.231c-23.574,5.902-43.421,20.608-55.938,41.444
		C583.121,235.622,597.131,291.609,640.128,317.39"/>
	<path fill="currentColor" d="M908.55,431.583c-23.396,21.759-133.91,31.666-180.346,28.262c-22.084-1.589-44.038-5.335-67.289-9.291
		c-21.953-3.762-44.652-7.62-67.854-9.614c-57.155-4.913-153.498,51.3-177.421,117.695c-3.641,10.069-4.581,28.829-6.032,57.252
		c-1.191,23.348-2.667,52.436-6.122,83.695c-9.12,82.333-31.162,138.417-42.01,149.412c-6.542-11.739-7.781-58.647-8.779-96.797
		c-0.429-16.133-0.901-33.482-1.645-51.689c-0.933-22.247-2.66-45.854-4.346-68.698c-2.424-32.996-4.938-67.11-4.938-96.732
		c0.018-16.62,3.308-44.281,10.532-53.717c4.532-5.886,3.404-14.349-2.49-18.873c-5.917-4.541-14.363-3.422-18.896,2.496
		c-9.267,12.08-13.184,32.639-14.844,48.48c-3.706-1.897-7.386-3.778-10.994-5.594c-44.142-22.327-82.269-41.588-120.768-98.142
		c-60.268-88.544-84.994-186.07-80.057-199.983c0.543-1.507,1.046-2.399,1.395-2.934c13.328,2.351,43.858,42.513,90.766,119.497
		c12.817,21.029,17.033,27.822,20.591,31.13c0.527,0.519,1.241,1.216,2.124,2.06c81.419,80.031,149.444,44.215,182.763,15.776
		c27.709-23.688,40.364-34.52,38.322-53.117c-2.293-20.771-18.362-60.364-100.429-92.273
		c-26.598-10.344-48.284-12.386-67.409-14.188c-28.042-2.657-52.249-4.928-88-33.14c-1.312-1.021-2.391-1.945-3.284-2.756
		c30.296-7.199,143.413,6.987,180.827,19.456l3,1.006c44.782,14.901,91.104,30.336,155.879,85.739
		c17.998,15.372,32.816,29.444,45.901,41.848c38.021,36.141,65.488,62.211,125.025,77.665c32.281,8.366,75.896,9.208,118.086,10.02
		c35.832,0.681,95.807,1.849,101.288,12.307C911.096,428.697,910.138,430.108,908.55,431.583 M810.326,388.585
		c-40.632-0.779-82.641-1.591-111.859-9.161c-52.775-13.702-76.821-36.531-113.238-71.115
		c-13.296-12.631-28.374-26.964-46.907-42.806c-68.786-58.823-119.844-75.815-164.886-90.813l-2.991-0.989
		c-20.835-6.972-197.307-43.567-217.599-5.999c-6.111,11.301-1.11,23.429,14.844,36.01c41.969,33.143,72.573,36.028,102.155,38.817
		c18.216,1.718,37.056,3.486,60.171,12.469c73.383,28.52,82.382,60.867,83.411,70.092c0.486,4.443-11.269,14.479-29.056,29.687
		c-46.72,39.919-95.962,35.038-146.37-14.51c-1.079-1.054-1.954-1.897-2.204-2.108c-2.045-2.367-9.647-14.852-16.369-25.878
		c-53.61-87.958-88.082-135.092-117.121-132.402c-6.064,0.568-17.138,3.989-23.292,20.397
		c-11.179,29.785,24.938,139.277,83.015,224.611c42.417,62.326,85.391,84.037,130.895,107.029
		c7.159,3.631,14.512,7.345,21.953,11.267c0.398,28.537,2.701,60.041,4.962,90.604c1.661,22.617,3.372,46.015,4.28,67.837
		c0.746,18.078,1.216,35.284,1.629,51.271c2.124,80.178,3.284,124.344,35.396,124.344c49.217,0,68.94-172.937,69.119-174.688
		c3.551-32.056,5.051-61.58,6.26-85.301c1.126-22.214,2.197-43.194,4.466-49.485c21.005-58.272,108.147-103.574,149.783-99.959
		c22.051,1.866,44.198,5.66,65.603,9.308c22.861,3.908,46.501,7.945,69.881,9.615c30.71,2.221,163.856-1.184,200.663-35.41
		c9.194-8.578,11.122-17.495,11.122-23.478C938.042,391.049,881.683,389.962,810.326,388.585"/>
</g>
</svg>
