<?xml version="1.0" encoding="utf-8"?>
<!-- Generator: Adobe Illustrator 16.0.0, SVG Export Plug-In . SVG Version: 6.00 Build 0)  -->
<!DOCTYPE svg PUBLIC "-//W3C//DTD SVG 1.1//EN" "http://www.w3.org/Graphics/SVG/1.1/DTD/svg11.dtd">
<svg version="1.1" id="Ebene_1" xmlns="http://www.w3.org/2000/svg" xmlns:xlink="http://www.w3.org/1999/xlink" x="0px" y="0px"
	 width="1024px" height="1024px" viewBox="0 0 1024 1024" enable-background="new 0 0 1024 1024" xml:space="preserve">
<g id="Ebene_1_1_">
</g>
<g>
	<g>
		<path fill="currentColor" d="M360.092,694.139c3.074,0.429,6.547,0.854,10.51,1.316c36.728,24.91,66.489,46.477,89.242,64.64
			c22.724,18.105,34.565,39.044,35.438,62.64c0,4.406-0.429,7.869-1.316,10.529l-2.629,6.547H243.948
			c-17.074,0-31.304-4.49-42.674-13.439c-11.354-8.983-17.276-21.797-17.719-38.417v-34.752
			c10.525-13.156,22.095-22.994,34.795-29.549c12.686-6.574,22.741-11.154,30.178-13.783c20.993-6.551,41.558-10.812,61.682-12.786
			c20.121-1.975,32.836-2.944,38.07-2.944L360.092,694.139L360.092,694.139z M229.52,555.983
			c17.475,7.209,37.171,11.043,59.036,11.501c9.611-0.458,19.693-1.086,30.203-1.976c-2.198,5.234-4.274,10.812-6.234,16.731
			c-1.958,5.923-2.958,12.786-2.958,20.681c0.44,14.445,3.487,26.687,9.193,36.728c5.68,10.068,12.017,19.479,19.008,28.231
			c-19.68,0-44.52,1.086-74.48,3.291c-29.962,2.197-56.534,11.352-79.73,27.539V528.756
			C196.684,539.71,212.001,548.751,229.52,555.983 M395.53,329.91c19.68,38.525,29.521,76.568,29.521,114.21
			c0,7.437-1.845,16.82-5.562,28.202c-3.719,11.382-9.954,22.312-18.724,32.809c-7.881,8.752-17.475,14.872-28.846,18.391
			c-11.397,3.49-23.198,5.234-35.438,5.234c-40.689-2.633-70.234-21.081-88.599-55.433c-18.364-34.379-27.359-68.82-26.916-103.369
			c0-12.701,1.201-25.057,3.633-37.072c2.402-12.04,7.521-23.083,15.402-33.151c7.881-10.065,17.719-17.933,29.518-23.625
			c11.839-5.693,24.086-8.522,36.768-8.522C346.088,270.67,375.854,291.439,395.53,329.91 M840.462,407.366h-0.627v-51.199h0.627
			V407.366z M779.422,183.576c17.077,0,31.292,4.721,42.649,14.129c11.386,9.382,17.273,24.828,17.702,46.253v112.236H719.069
			V235.433h-51.854v120.762H546.454v51.172h120.762v121.39h51.854v-121.39h120.703v380.587c-0.428,16.62-6.315,29.434-17.701,38.417
			c-11.357,8.949-25.572,13.439-42.649,13.439h-232.31c5.72-13.556,8.295-29.316,7.895-47.25
			c-1.315-32.378-12.271-59.836-32.836-82.349c-20.552-22.54-42.005-42.534-64.287-60.067l-34.122-26.227
			c-5.706-4.377-11.153-9.727-16.433-16.077c-5.234-6.351-7.85-14.757-7.85-25.284c0-10.466,2.73-19.448,8.209-26.885
			c5.448-7.437,11.467-14.245,18.034-20.369c20.565-14.872,38.369-32.547,53.485-53.139c15.09-20.565,23.055-48.139,23.955-82.695
			c-0.899-31.92-7.664-57.52-20.352-76.768c-12.686-19.252-25.369-33.921-38.085-43.963h58.437l53.787-43.305H355.485
			c-25.355-0.458-52.156,2.833-80.375,9.842c-28.229,6.975-56.117,21.42-83.675,43.302c-2.604,2.604-5.235,5.034-7.881,7.209
			v-51.827c0.443-21.425,6.364-36.871,17.719-46.253c11.37-9.409,25.6-14.129,42.674-14.129L779.422,183.576L779.422,183.576z"/>
	</g>
</g>
</svg>
