<?xml version="1.0" encoding="utf-8"?>
<!-- Generator: Adobe Illustrator 21.0.2, SVG Export Plug-In . SVG Version: 6.00 Build 0)  -->
<svg version="1.1" id="Ebene_1" xmlns="http://www.w3.org/2000/svg" xmlns:xlink="http://www.w3.org/1999/xlink" x="0px" y="0px"
	 viewBox="0 0 1024 1024" style="enable-background:new 0 0 1024 1024;" xml:space="preserve">
<title>wanderschuh</title>
<path d="M875.4,719.1c-8.5,5.5-17.2,10.6-26,15.5v-8.5h-25.9v21.7c-8.5,4-17.2,7.7-26,11.2v-6.9h-26v16.3c-8.6,2.8-17.2,5.4-26,7.7
	v-11h-26v17c-8.6,1.7-17.2,3.3-25.9,4.5v-8.6h-26v11.4c-8.6,0.7-17.3,1-26,1.2v-12.6h-26v13h-26v-13h-25.9v13h-26v-13h-26v13H494
	l-9.4-18.8c-1.7-3.5-4.9-6-8.7-6.8l-84.4-19.5c-5.1-1.2-10.4,0.9-13.5,5.1l-28.6,40h-6.3v-26h-25.9v26h-26v-26h-26v26h-25.9v-26h-26
	v26h-26v-26h-26v15.8c-8.2-7.3-12.9-17.8-13-28.8v-72.8l60.8,20.3c2.9,1,6.1,0.9,8.9-0.3l61-24.4l99.8,24.9c1.7,0.4,3.5,0.5,5.3,0.2
	l75.4-12.6l231.2,51.4c0.9,0.2,1.9,0.3,2.8,0.3c1.4,0,2.8-0.2,4.1-0.7l177.6-59.2L875.4,719.1 M148.6,310.8c0-7.2,5.8-13,13-13
	c7.2,0,13,5.8,13,13v21.6l-26,10.8V310.8z M293.9,310.8h36.3v72.5L250.6,463C223,450.4,193.3,443,163,441.3
	c-2.8-23.8-6.8-47.5-12.2-70.9L293.9,310.8z M165.4,467.4c108.2,8.2,194.7,94.7,202.9,203l-86.9-21.7c-2.6-0.7-5.4-0.5-8,0.5
	l-60.5,24.2l-59.7-19.9C166.2,592.4,170.3,529.7,165.4,467.4z M356.2,388.7v-77.9h6l74.1,111c1.1,1.6,2.5,2.9,4.1,3.9l26.2,16
	l-41.6,41.6l18.3,18.4l46.1-46.1l22.9,13.9l0.3,0.9l0.8-0.3l17.7,10.8l-41.3,41.3l18.3,18.3l45.8-45.8l41.7,25.4l-40.9,41l18.3,18.3
	l45.4-45.4l41.7,25.4l-40.6,40.6l18.3,18.3l45.1-45.1l41.7,25.4l-40.3,40.2l18.3,18.4l47.3-47.3l80.1,11.4l34,34L693,712.7
	l-230.1-51.1c-1.6-0.4-3.3-0.4-4.9-0.1L394.4,672c-5.1-83.5-51.8-155.7-119.8-196.4l77.8-77.8C354.9,395.4,356.2,392.1,356.2,388.7z
	 M382.2,283.3c0-16.8,10.7-31.7,26.6-36.9l29.9-10l8.3,26.2l-29.9,10c-5.3,1.8-8.9,6.7-8.9,12.3v48l-26-38.9V283.3z M454.7,287.3
	l45.7,144.6l-44.1-26.9l-22.2-33.3v-77.6L454.7,287.3z M897.6,652.1l-51.9-51.9c-2-2-4.6-3.3-7.4-3.7l-88.2-12.7l-216-131.4
	l-74.6-236.3c-2.2-6.8-9.4-10.6-16.3-8.5c-0.1,0-0.1,0-0.2,0.1l-42.4,14.1c-26.5,8.8-44.4,33.6-44.4,61.5v1.5h-64.9
	c-1.7,0-3.4,0.3-5,1l-85.8,35.8v-10.8c0-21.5-17.4-38.9-38.9-38.9c-21.5,0-38.9,17.4-38.9,38.9v51.9h0.2c-0.1,1.1,0,2.1,0.2,3.2
	c25,100.2,25,205,0,305.2c-0.3,1-0.4,2.1-0.4,3.1v77.9c0,35.8,29.1,64.9,64.9,64.9h168.7c4.2,0,8.1-2,10.6-5.4l27.4-38.4l70,16.1
	l10.2,20.5c2.2,4.4,6.7,7.2,11.6,7.2h145.2c94.1,0.1,186.1-27.8,264.4-80.1c3.6-2.4,5.8-6.4,5.8-10.8v-64.9
	C901.4,657.8,900,654.5,897.6,652.1L897.6,652.1z"/>
</svg>
