<?xml version="1.0" encoding="UTF-8"?>
<svg id="Ebene_1" data-name="Ebene 1" xmlns="http://www.w3.org/2000/svg" viewBox="0 0 1024 1024">
  <defs>
    <style>
      .cls-1 {
        fill: #2c2c2c;
      }
    </style>
  </defs>
  <path d="M512.073,506.046c21.227,0,39.377-7.556,54.443-22.673,15.078-15.121,22.618-33.293,22.618-54.519s-7.561-39.378-22.682-54.453c-15.117-15.069-33.293-22.603-54.528-22.603s-39.373,7.559-54.438,22.677c-15.078,15.118-22.615,33.294-22.615,54.528s7.559,39.373,22.679,54.443c15.117,15.07,33.293,22.601,54.524,22.601ZM512,917.536c-107.378-93.043-187.897-179.631-241.557-259.767-53.661-80.141-80.491-153.715-80.491-220.723,0-98.461,31.847-178.173,95.541-239.136,63.701-60.963,139.203-91.445,226.507-91.445s162.803,30.482,226.505,91.445c63.697,60.963,95.543,140.675,95.543,239.136,0,67.008-26.829,140.582-80.491,220.723-53.662,80.137-134.178,166.724-241.557,259.767Z"/>
</svg>
