<?xml version="1.0" encoding="UTF-8"?>
<svg id="Ebene_1" data-name="Ebene 1" xmlns="http://www.w3.org/2000/svg" viewBox="0 0 1024 1024">
  <path d="M338.043,281.594c-4.317.006-8.577.983-12.465,2.857-3.889,1.874-7.306,4.599-10,7.972l-175.685,219.577h256.903c7.639,0,14.964,3.034,20.365,8.436,5.401,5.401,8.436,12.726,8.436,20.365,0,22.915,9.103,44.892,25.307,61.096,16.203,16.203,38.18,25.307,61.096,25.307s44.892-9.103,61.096-25.307c16.203-16.203,25.307-38.181,25.307-61.096,0-7.639,3.034-14.964,8.436-20.365,5.401-5.401,12.726-8.436,20.365-8.436h256.903l-175.685-219.577c-2.696-3.373-6.112-6.098-10-7.972-3.888-1.874-8.151-2.851-12.465-2.857h-347.914ZM270.65,256.422c8.087-10.109,18.341-18.272,30.006-23.884,11.665-5.613,24.442-8.534,37.387-8.545h347.914c12.943.012,25.725,2.932,37.389,8.545,11.664,5.613,21.917,13.775,30.005,23.884l213.126,266.407c2.402,3.002,4.182,6.454,5.23,10.154,1.048,3.7,1.348,7.572.876,11.389l-22.465,179.947c-2.609,20.904-12.77,40.131-28.565,54.071-15.794,13.94-36.139,21.624-57.204,21.618H159.651c-21.065.006-41.409-7.678-57.203-21.618-15.795-13.94-25.953-33.167-28.565-54.071l-22.465-179.947c-.472-3.817-.175-7.689.874-11.389,1.049-3.7,2.828-7.152,5.232-10.154l213.126-266.407Z"/>
</svg>