<?xml version="1.0" encoding="UTF-8"?>
<svg id="Ebene_1" data-name="Ebene 1" xmlns="http://www.w3.org/2000/svg" viewBox="0 0 1024 1024">
  <path d="M454.4,857.6s-57.6,0-57.6-57.6,57.6-230.4,288-230.4,288,172.8,288,230.4-57.6,57.6-57.6,57.6h-460.8ZM684.8,512c45.827,0,89.781-18.206,122.187-50.612,32.406-32.406,50.613-76.359,50.613-122.188s-18.207-89.782-50.613-122.188c-32.406-32.406-76.36-50.612-122.187-50.612s-89.782,18.206-122.188,50.612c-32.406,32.406-50.612,76.359-50.612,122.188s18.206,89.782,50.612,122.188c32.406,32.406,76.361,50.612,122.188,50.612ZM351.642,857.6c-8.539-17.983-12.798-37.699-12.442-57.6,0-78.048,39.168-158.4,111.514-214.272-36.11-11.126-73.731-16.567-111.514-16.128-230.4,0-288,172.8-288,230.4s57.6,57.6,57.6,57.6h242.842ZM310.4,512c38.191,0,74.818-15.171,101.824-42.176,27.005-27.005,42.176-63.632,42.176-101.824s-15.171-74.818-42.176-101.824c-27.005-27.005-63.632-42.176-101.824-42.176s-74.818,15.171-101.824,42.176c-27.005,27.005-42.176,63.632-42.176,101.824s15.171,74.818,42.176,101.824c27.005,27.005,63.632,42.176,101.824,42.176Z"/>
</svg>