<?xml version="1.0" encoding="UTF-8"?>
<svg data-name="Ebene 1" xmlns="http://www.w3.org/2000/svg" viewBox="0 0 1024 1024">
  <path d="M397.131,800v-64h477.536v64h-477.536ZM397.131,544v-64h477.536v64h-477.536ZM397.131,288v-64h477.536v64h-477.536ZM220.309,838.976c-19.52,0-36.227-6.95-50.123-20.851-13.902-13.897-20.853-30.605-20.853-50.125s6.951-36.228,20.853-50.121c13.895-13.905,30.603-20.855,50.123-20.855s36.227,6.95,50.123,20.855c13.902,13.892,20.853,30.601,20.853,50.121s-6.951,36.228-20.853,50.125c-13.895,13.901-30.603,20.851-50.123,20.851ZM220.309,582.976c-19.52,0-36.227-6.95-50.123-20.851-13.902-13.897-20.853-30.605-20.853-50.125s6.951-36.228,20.853-50.121c13.895-13.905,30.603-20.855,50.123-20.855s36.227,6.95,50.123,20.855c13.902,13.892,20.853,30.601,20.853,50.121s-6.951,36.228-20.853,50.125c-13.895,13.901-30.603,20.851-50.123,20.851ZM220.309,326.976c-19.52,0-36.227-6.951-50.123-20.853-13.902-13.895-20.853-30.603-20.853-50.123s6.951-36.227,20.853-50.123c13.895-13.902,30.603-20.853,50.123-20.853s36.227,6.951,50.123,20.853c13.902,13.895,20.853,30.603,20.853,50.123s-6.951,36.227-20.853,50.123c-13.895,13.902-30.603,20.853-50.123,20.853Z"/>
</svg>
