<?xml version="1.0" encoding="UTF-8"?>
<svg id="Ebene_1" data-name="Ebene 1" xmlns="http://www.w3.org/2000/svg" viewBox="0 0 1024 1024">
  <path d="M310.432,569.607c22.917,0,44.897-9.104,61.102-25.309,16.205-16.205,25.309-38.184,25.309-61.102s-9.104-44.897-25.309-61.102c-16.205-16.205-38.184-25.309-61.102-25.309s-44.897,9.104-61.102,25.309c-16.205,16.205-25.309,38.184-25.309,61.102s9.104,44.897,25.309,61.102c16.205,16.205,38.184,25.309,61.102,25.309ZM857.701,800.036c0,30.555-12.138,59.86-33.746,81.468-21.608,21.608-50.913,33.746-81.468,33.746H166.414c-30.557,0-59.862-12.138-81.469-33.746-21.607-21.608-33.745-50.913-33.745-81.468v-460.858c0-30.537,12.123-59.825,33.705-81.428,21.582-21.603,50.857-33.756,81.394-33.786,0-30.557,12.138-59.862,33.746-81.469,21.607-21.607,50.912-33.746,81.469-33.746h576.072c30.555,0,59.86,12.138,81.468,33.746,21.608,21.607,33.746,50.912,33.746,81.469v460.858c0,30.538-12.121,59.825-33.706,81.428-21.58,21.603-50.856,33.758-81.393,33.787ZM857.586,166.357H281.514c-15.279,0-29.931,6.069-40.735,16.873-10.803,10.804-16.873,25.456-16.873,40.735h518.58c30.555,0,59.86,12.138,81.468,33.746,21.608,21.607,33.746,50.912,33.746,81.469v403.25c15.26-.029,29.881-6.112,40.659-16.913,10.778-10.801,16.833-25.434,16.833-40.694V223.964c0-15.279-6.072-29.931-16.873-40.735-10.801-10.803-25.457-16.873-40.734-16.873ZM166.414,281.571c-15.279,0-29.931,6.069-40.735,16.873-10.803,10.804-16.873,25.456-16.873,40.735v460.858l152.429-135.607c4.708-4.689,10.895-7.61,17.509-8.261,6.614-.651,13.251,1.008,18.783,4.689l153.235,102.138,213.723-213.723c4.274-4.276,9.782-7.1,15.744-8.071,5.968-.972,12.086-.043,17.495,2.656l102.368,112.161v-316.84c0-15.279-6.072-29.931-16.873-40.735-10.801-10.803-25.457-16.873-40.734-16.873H166.414Z"/>
</svg>