<?xml version="1.0" encoding="UTF-8"?>
<svg id="Ebene_1" data-name="Ebene 1" xmlns="http://www.w3.org/2000/svg" viewBox="0 0 1024 1024">
  <defs>
    <style>
      .cls-1 {
        fill: #a1c036;
      }
    </style>
  </defs>
  <path d="M801.618,453.673c-12.113,51.375-40.196,98.172-81.139,135.245l-210.261,187.584-206.625-187.529c-41.015-37.158-69.081-83.938-81.207-135.305-8.723-36.91-5.14-57.746-5.127-57.896l.185-1.244c8.004-90.107,70.555-155.523,148.768-155.523,57.721,0,108.508,35.45,132.619,92.526l11.332,26.879,11.345-26.879c23.735-56.188,77.201-92.512,136.303-92.512,78.174,0,140.757,65.418,148.907,156.699.043.204,3.622,21.054-5.099,57.954ZM831.049,391.877c-9.348-102.862-82.159-177.492-173.265-177.492-60.702,0-116.275,32.661-147.567,85.021-30.972-53.03-84.27-85.033-144.007-85.033-91.089,0-163.915,74.631-173.239,177.491-.738,4.539-3.767,28.451,5.434,67.441,13.269,56.256,43.925,107.401,88.644,147.921l223.032,202.402,226.871-202.389c44.702-40.533,75.366-91.665,88.627-147.934,9.216-38.979,6.182-62.888,5.47-67.428ZM388.878,289.207c-67.898,0-123.122,55.229-123.122,123.122,0,6.808,5.503,12.333,12.317,12.333s12.304-5.525,12.304-12.333c0-54.301,44.185-98.486,98.5-98.486,6.809,0,12.319-5.51,12.319-12.304s-5.531-12.332-12.319-12.332Z"/>
</svg>
