<?xml version="1.0" encoding="UTF-8"?>
<svg id="Ebene_1" data-name="Ebene 1" xmlns="http://www.w3.org/2000/svg" viewBox="0 0 1024 1024">
  <defs>
    <style>
      .cls-1 {
        fill: #2c2c2c;
      }
    </style>
  </defs>
  <path d="M745.357,384l-105.357-105.355,44.557-45.621,60.8,60.8,150.4-151.467,45.619,45.621-196.019,196.021ZM234.667,864V226.464c0-21.554,7.467-39.797,22.4-54.731,14.933-14.933,33.177-22.4,54.731-22.4h280.608c-12.578,19.143-22.012,37.877-28.301,56.203-6.293,18.325-9.438,38.702-9.438,61.131,0,50.382,16.311,94.375,48.939,131.979,32.631,37.613,73.207,60.162,121.728,67.65,12.254,1.583,22.921,2.377,32,2.377s19.746-.794,32-2.377v397.705l-277.333-118.976-277.333,118.976Z"/>
</svg>
