<?xml version="1.0" encoding="UTF-8"?>
<svg id="Ebene_1" data-name="Ebene 1" xmlns="http://www.w3.org/2000/svg" viewBox="0 0 1024 1024">
  <defs>
    <style>
      .cls-1 {
        fill: #2c2c2c;
      }
    </style>
  </defs>
  <path d="M467.2,769.797l-136.693-136.691,46.272-46.276,90.421,90.423,180.023-180.019,46.272,46.272-226.295,226.291ZM226.464,919.792c-21.554,0-39.797-7.467-54.731-22.4-14.933-14.933-22.4-33.178-22.4-54.729V271.589c0-21.554,7.467-39.797,22.4-54.731,14.933-14.933,33.177-22.4,54.731-22.4h59.072v-90.251h65.643v90.251h323.283v-90.251h64v90.251h59.076c21.551,0,39.795,7.467,54.729,22.4,14.933,14.933,22.4,33.177,22.4,54.731v571.074c0,21.551-7.467,39.795-22.4,54.729s-33.178,22.4-54.729,22.4H226.464ZM226.464,855.792h571.074c3.281,0,6.293-1.37,9.024-4.105,2.735-2.731,4.105-5.739,4.105-9.024v-400.405H213.333v400.405c0,3.285,1.369,6.293,4.107,9.024,2.731,2.735,5.739,4.105,9.024,4.105Z"/>
</svg>
