<?xml version="1.0" encoding="UTF-8"?>
<svg id="Ebene_1" data-name="Ebene 1" xmlns="http://www.w3.org/2000/svg" viewBox="0 0 1024 1024">
  <defs>
    <style>
      .cls-1 {
        fill: #2c2c2c;
      }
    </style>
  </defs>
  <path d="M829.449,874.667c-80.405,0-161.182-18.697-242.334-56.085-81.143-37.389-155.767-90.133-223.872-158.229-67.826-68.105-120.434-142.665-157.824-223.68-37.39-81.01-56.085-161.717-56.085-242.123,0-12.8,4.267-23.538,12.8-32.213,8.533-8.669,19.2-13.003,32-13.003h139.157c10.773,0,20.277,3.517,28.512,10.549,8.235,7.026,13.472,15.709,15.712,26.048l24.459,125.536c1.693,11.648,1.337,21.657-1.067,30.027-2.411,8.37-6.734,15.399-12.971,21.088l-98.539,95.923c15.858,29.043,33.977,56.516,54.357,82.424,20.373,25.899,42.432,50.637,66.174,74.21,23.411,23.415,48.299,45.158,74.667,65.233,26.368,20.075,54.844,38.758,85.423,56.047l95.744-96.576c6.677-6.95,14.763-11.819,24.256-14.613,9.485-2.79,19.345-3.473,29.576-2.048l118.477,24.128c10.773,2.842,19.563,8.337,26.377,16.486,6.814,8.149,10.219,17.395,10.219,27.738v138.334c0,12.8-4.335,23.467-13.005,32-8.674,8.533-19.413,12.8-32.213,12.8Z"/>
</svg>
