<?xml version="1.0" encoding="UTF-8"?>
<svg id="Ebene_1" data-name="Ebene 1" xmlns="http://www.w3.org/2000/svg" viewBox="0 0 1024 1024">
  <defs>
    <style>
      .cls-1 {
        fill: #2c2c2c;
      }
    </style>
  </defs>
  <path d="M952.585,291.288c20.215,70.763,20.215,222.396,20.215,222.396,0,0,0,149.952-20.215,222.399-10.109,40.438-42.123,70.762-80.871,80.871-72.452,18.533-358.87,18.533-358.87,18.533,0,0-288.107,0-360.555-18.533-38.751-10.109-70.763-40.434-80.872-80.871-20.218-72.447-20.218-222.399-20.218-222.399,0,0,0-151.633,20.218-222.396,10.109-40.436,42.121-72.448,80.872-82.557,72.448-20.218,360.555-20.218,360.555-20.218,0,0,286.418,0,358.87,20.218,38.748,10.109,70.762,42.121,80.871,82.557ZM418.493,650.158l239.246-136.475-239.246-136.469v272.944Z"/>
</svg>
