<?xml version="1.0" encoding="UTF-8"?>
<svg id="Ebene_1" data-name="Ebene 1" xmlns="http://www.w3.org/2000/svg" viewBox="0 0 1024 1024">
  <path d="M972.8,485.179c0,222.682-206.323,403.2-460.8,403.2-45.639.063-91.089-5.864-135.187-17.626-33.638,17.05-110.88,49.766-240.826,71.078-11.52,1.843-20.275-10.138-15.725-20.851,20.39-48.154,38.822-112.32,44.352-170.842-70.56-70.848-113.414-163.584-113.414-264.96,0-222.682,206.323-403.2,460.8-403.2s460.8,180.518,460.8,403.2ZM339.2,485.179c0-15.277-6.069-29.927-16.87-40.73-10.802-10.802-25.453-16.87-40.73-16.87s-29.927,6.069-40.73,16.87c-10.802,10.802-16.87,25.453-16.87,40.73s6.069,29.927,16.87,40.73c10.802,10.802,25.453,16.87,40.73,16.87s29.927-6.069,40.73-16.87c10.802-10.802,16.87-25.453,16.87-40.73ZM569.6,485.179c0-15.277-6.069-29.927-16.87-40.73-10.802-10.802-25.453-16.87-40.73-16.87s-29.927,6.069-40.73,16.87c-10.802,10.802-16.87,25.453-16.87,40.73s6.069,29.927,16.87,40.73c10.802,10.802,25.453,16.87,40.73,16.87s29.927-6.069,40.73-16.87c10.802-10.802,16.87-25.453,16.87-40.73ZM742.4,542.779c15.276,0,29.929-6.069,40.729-16.87,10.8-10.802,16.871-25.453,16.871-40.73s-6.071-29.927-16.871-40.73c-10.8-10.802-25.453-16.87-40.729-16.87s-29.929,6.069-40.729,16.87c-10.8,10.802-16.871,25.453-16.871,40.73s6.071,29.927,16.871,40.73c10.8,10.802,25.453,16.87,40.729,16.87Z"/>
</svg>