<?xml version="1.0" encoding="UTF-8"?>
<svg id="Ebene_1" data-name="Ebene 1" xmlns="http://www.w3.org/2000/svg" viewBox="0 0 1024 1024">
  <defs>
    <style>
      .cls-1 {
        fill: #eec211;
      }
    </style>
  </defs>
  <path d="M269.708,899.934l-134.687-118.165,258.229-247.727-108.854-103.595-88.125,77.623-115.104-110.304,86.875-77.721-12.291-11.308,134.688-118.258,12.291,11.308,86.875-77.721,114.999,110.304-86.874,77.721,104.061,99.187,102.814-97.942-89.374-77.721,115.102-111.454,88.128,78.775,12.292-12.363,134.583,118.258-14.69,14.662,72.188,154.29-12.292,13.513-170.103-63.057-110.106,105.801,258.231,245.427-133.44,118.259-253.333-239.872-252.081,242.078ZM519.396,622.976l255.727,243.226,99.17-87.881-258.231-244.378,12.292-11.307,126.042-120.463,153.02,56.352-66.146-139.63,9.792-9.008-99.166-86.729-12.186,11.308-88.128-77.721-80.725,77.721,88.124,77.721-127.398,121.614-9.792,9.007-9.788-9.007-128.544-122.764,86.875-76.571-81.979-77.721-86.875,76.571-12.291-11.308-97.917,87.879,11.042,11.308-86.875,77.721,81.979,77.722,86.875-77.722,8.542,7.858,140.73,126.115-263.022,248.879,97.917,86.733,250.938-245.525Z"/>
</svg>
