<?xml version="1.0" encoding="UTF-8"?>
<svg id="Ebene_1" data-name="Ebene 1" xmlns="http://www.w3.org/2000/svg" viewBox="0 0 1024 1024">
  <defs>
    <style>
      .cls-1 {
        fill: #6c2838;
      }
    </style>
  </defs>
  <path d="M895.799,253.724c-2.731-14.323-7.539-28.135-14.178-41.088-6.635-12.913-15.177-25.033-25.395-35.909l-.038-.019-.115-.144v-.017c-5.939-6.403-14.084-14.176-24.247-21.517-7.71-5.538-16.61-10.839-26.607-15.079l-.508-.216-.077-.037c-11.183-5.141-22.758-9-34.675-11.598-11.878-2.56-24.137-3.877-36.655-3.877-18.479,0-36.45,2.867-53.419,8.403-16.973,5.557-32.998,13.78-47.556,24.566l-.034.019-.209.162c-8.789,6.566-16.593,14.175-23.061,21.426-11.844,13.275-19.234,25.251-20.535,27.433h-.038l-.243.452c-6.545,11.49-11.558,23.77-14.955,36.503-3.375,12.696-5.107,25.845-5.107,39.031,0,2.814.077,5.591.209,8.243.149,2.761.393,5.52.678,8.243.222,2.145,1.02,4.184,2.24,5.916,1.229,1.713,2.923,3.175,4.907,4.168,1.412.703,2.923,1.368,4.501,2.001v.019c1.51.594,3.055,1.153,4.604,1.622l1.34.417.431,1.279c6.374,18.614,16.482,35.406,29.38,49.655,13.158,14.535,29.227,26.421,47.215,34.95l4.979,2.364-4.941,2.4c-7.654,3.732-14.938,8.08-21.726,12.967-6.822,4.926-13.235,10.426-19.174,16.468l-.06.073h-.013c-2.496,2.56-3.678,5.879-3.567,9.161.073,3.281,1.51,6.545,4.224,8.964l.055.051v.021c2.697,2.381,6.165,3.537,9.6,3.443,3.43-.107,6.839-1.459,9.391-4.058,2.978-3.029,6.106-5.897,9.348-8.567,3.264-2.705,6.639-5.21,10.108-7.522l3.017-2.001,1.225,3.298c4.809,13.043,13.483,24.333,24.457,32.252,10.598,7.646,23.381,12.19,36.979,12.19h2.411l.021-.017c13.577,0,26.338-4.851,36.86-13.022,10.918-8.457,19.443-20.506,23.987-34.377l1.054-3.281,3.055,1.839c17.69,10.586,32.171,25.357,42.185,42.509,9.877,16.973,15.42,36.292,15.42,56.239v162.974l-1.246.794-147.866,91.767h.017l-.017.021h-.034c-3.093,1.924-5.111,4.885-5.828,8.115-.717,3.226-.132,6.69,1.826,9.664h.038v.038c1.263,1.856,2.978,3.319,4.902,4.309v.017c1.929,1.011,4.147,1.553,6.413,1.553,1.301,0,2.598-.166,3.81-.525,1.208-.341,2.411-.862,3.541-1.566l155.264-96.367c1.924-1.19,3.469-2.816,4.501-4.655,1.041-1.86,1.643-3.968,1.643-6.148v-170.014c0-26.94-7.846-52.497-21.875-74.359-14.14-21.952-34.543-40.203-59.546-52.323l-4.941-2.398,4.962-2.362c23.962-11.436,44.369-28.768,59.072-49.997,14.298-20.631,23.232-44.946,24.836-71.062l.094-1.099.828-.722c2.206-1.93,4.301-4.041,6.17-6.242,1.865-2.184,3.558-4.545,5.069-7.033.794-1.316,1.34-2.759,1.621-4.257.269-1.497.269-3.048,0-4.525ZM729.984,454.481h-2.432c-10.56,0-20.288-4.885-27.345-12.625-6.955-7.646-11.349-18.106-11.349-29.451h.021l-.021-.739-.111-3.535,3.601.92c6.238,1.57,12.629,2.759,19.115,3.551,6.34.779,12.843,1.19,19.499,1.19,5.658,0,11.238-.305,16.67-.863,5.581-.594,11.068-1.479,16.367-2.633l3.622-.776-.23,3.517c-.64,11.129-5.167,21.465-11.874,28.987v.017c-6.788,7.612-15.859,12.442-25.532,12.442ZM730.961,388.02c-24.926,0-48.457-7.071-68.22-19.424-19.964-12.481-36.087-30.446-45.892-51.999l-1.263-2.778,3.076-.829c10.82-2.921,20.343-8.803,27.601-16.646,7.202-7.755,12.147-17.497,13.879-28.192l.414-2.561,2.675.343c4.753.56,9.617,1.012,14.558,1.3,4.736.307,9.583.45,14.485.45,16.329,0,32.354-1.642,47.778-4.815,15.501-3.229,30.434-8.009,44.518-14.268l2.923-1.298.926,2.976c3.546,11.653,11.029,21.771,20.928,28.876,9.673,6.944,21.683,11.055,34.697,11.055.904,0,1.903-.017,2.884-.071.96-.037,1.924-.11,2.846-.182l3.755-.362-.755,3.536c-5.918,27.254-21.662,51.167-43.465,68.141-21.457,16.703-48.764,26.749-78.349,26.749ZM844.062,264.437c-8.559,0-16.29-3.338-21.914-8.694h.026c-5.623-5.375-9.114-12.772-9.114-20.941l.038-8.639h-.038c0-2.345-.678-4.599-1.847-6.548-1.203-1.946-2.94-3.605-5.086-4.742-2.155-1.136-4.548-1.661-6.903-1.604-2.377.053-4.753.722-6.788,1.966-14.541,8.727-30.494,15.403-47.326,19.892-16.858,4.474-34.641,6.781-52.834,6.781v-.017c-7.13,0-14.255-.344-21.252-1.065h-.021c-7.031-.704-13.99-1.767-20.796-3.173-1.98-.433-4.036-.398-5.978.035-1.924.433-3.772,1.298-5.355,2.508-1.566,1.225-2.833,2.759-3.661,4.472h-.034c-.832,1.696-1.323,3.607-1.323,5.556v9.434c0,8.152-3.469,15.564-9.05,20.939l-.038.019c-5.619,5.356-13.346,8.675-21.871,8.675h-.154l-3.166-.164-.171-.017-.734-.073-.094-.038-1.075-.162-2.338-.341v-2.254l-.077-3.988v-.035c0-11.002,1.434-21.95,4.241-32.573,2.812-10.569,6.997-20.849,12.467-30.481l.038-.073.111-.235.034-.038c.043-.051,15.031-24.942,36.715-41.138l.132-.091.034-.036c12.186-9.019,25.57-15.89,39.753-20.524,14.217-4.635,29.244-7.015,44.689-7.015,10.406,0,20.663,1.081,30.656,3.246,9.941,2.146,19.61,5.375,28.928,9.649l1.395.578c9.276,3.949,17.481,9.107,24.44,14.464,6.955,5.34,12.668,10.84,17.007,15.493l.282.326c7.787,8.277,14.443,17.423,19.78,27.215,5.389,9.794,9.463,20.201,12.066,30.987l.341,1.336-.947,1.044c-2.94,3.175-6.519,5.701-10.5,7.433l-.017.019c-3.925,1.694-8.26,2.633-12.672,2.633ZM591.091,657.353c18.291-10.278,33.6-25.071,44.16-42.731,10.202-17.02,16.068-36.77,16.068-57.766,0-9.523-1.212-18.756-3.435-27.541-2.295-9.109-5.747-17.783-10.146-25.933l-.333-.597v-.614s-.418-.196-.644-.542l-.111-.162c-10.483-18.505-26.061-34.031-44.954-44.8-18.219-10.389-39.505-16.38-62.246-16.38s-44.045,5.99-62.251,16.38c-18.867,10.769-34.466,26.313-44.951,44.821l-.056.124c-.245.363-.651.521-.651.542v.61l-.329.597c-4.404,8.132-7.865,16.845-10.175,25.937-2.224,8.798-3.422,18.035-3.422,27.558,0,20.992,5.837,40.725,16.047,57.754,10.58,17.655,25.872,32.444,44.18,42.743l4.348,2.432-4.489,2.223c-22.391,11.089-40.683,27.631-53.325,47.488-12.586,19.75-19.619,42.782-19.619,66.965h-.02v56.742h.02c0,2.202.602,4.331,1.658,6.187,1.066,1.856,2.63,3.482,4.556,4.672l121.258,73.822h.021c1.075.683,2.261,1.173,3.447,1.515,1.19.324,2.492.486,3.776.486s2.543-.162,3.733-.486v.017c1.225-.341,2.372-.828,3.469-1.476l121.527-73.463c1.941-1.19,3.524-2.812,4.582-4.689,1.071-1.877,1.677-4.041,1.677-6.276h.017l-.265-57.101-.038-.021c0-24.205-7.049-47.164-19.588-66.842-12.689-19.891-31.019-36.45-53.38-47.522l-4.471-2.24,4.352-2.432ZM529.468,466.061c14.259,0,27.87,3.051,40.013,8.478,12.672,5.645,23.799,13.909,32.695,24.009l2.718,3.136-4.109,1.135c-11.051,3.029-22.707,5.359-34.697,6.908-11.955,1.536-24.247,2.33-36.621,2.33s-24.7-.794-36.663-2.347c-11.972-1.549-23.616-3.857-34.679-6.891l-4.134-1.135,2.765-3.136c8.879-10.099,20.023-18.359,32.666-23.987,12.19-5.453,25.758-8.499,40.047-8.499ZM434.551,556.838c0-5.124.457-10.172,1.31-15.095.887-4.979,2.223-9.886,3.942-14.63l.866-2.453,2.59.794c13.269,4.041,27.277,7.142,41.809,9.237,14.413,2.091,29.316,3.136,44.403,3.136v.017c15.01,0,29.943-1.062,44.446-3.153,14.481-2.095,28.489-5.197,41.745-9.237l2.581-.794.905,2.453c1.698,4.727,3.021,9.651,3.925,14.609.832,4.945,1.301,10.01,1.301,15.134,0,24.998-10.654,47.706-27.849,64.137-17.182,16.431-40.917,26.641-67.076,26.641-26.159-.021-49.89-10.21-67.076-26.641-17.169-16.431-27.823-39.138-27.823-64.154ZM561.071,673.169c-1.054,7.701-4.975,14.2-10.257,18.884-5.769,5.124-13.18,8.115-20.211,8.115h-1.984c-7.369,0-15.159-3.081-21.171-8.243-5.628-4.796-9.758-11.418-10.748-19.046l-.503-3.84,3.921.939c4.723,1.118,9.591,1.967,14.532,2.56,4.826.559,9.766.849,14.801.849v.017c4.787,0,9.579-.286,14.276-.811,4.749-.542,9.387-1.335,13.952-2.364l3.921-.905-.529,3.844ZM527.996,890.867l-104.995-63.974-1.31-.811v-49.621c0-17.438,4.59-34.121,12.878-48.819,8.384-14.882,20.582-27.708,35.682-37.214l2.748-1.728,1.331,2.906c4.732,10.313,12.638,18.756,22.012,24.691,9.783,6.182,21.197,9.613,32.277,9.613h1.984c11.465,0,22.323-3.503,31.411-9.489,9.451-6.204,17.045-15.057,21.611-25.357l1.284-2.927,2.79,1.715c15.309,9.451,27.793,22.366,36.39,37.389,8.448,14.788,13.141,31.654,13.141,49.293l.23,48.478.017,1.48-1.318.794-105.178,63.578-1.493.883-1.493-.879ZM410.393,469.67l.02-.021v.021c1.916-2.995,2.396-6.46,1.603-9.634-.772-3.209-2.835-6.131-5.987-8.026l-.074-.034h-.02l.02-.021c-2.416-1.421-4.828-2.778-7.259-4.036-2.529-1.318-5.119-2.564-7.741-3.755l-5.137-2.308,5.052-2.453c9.89-4.834,19.232-10.748,27.832-17.62,8.532-6.798,16.306-14.557,23.201-23.123l1.216-1.532,1.894.63c2.761.921,5.675,1.624,8.644,2.112,2.884.449,5.892.703,8.986.703,14.848,0,28.322-5.789,38.071-15.098,9.749-9.325,15.778-22.221,15.778-36.413h.021v-38.688c0-24.223-4.847-47.814-14.054-69.656-9.216-21.878-22.844-42.059-40.418-59.481-17.489-17.37-38.014-31.113-60.435-40.726-22.382-9.632-46.706-15.15-71.849-16.107h-.114c-2.217-.09-4.349-.163-6.374-.18-2.045,0-4.073,0-6.081.071-25.04.561-49.412,5.719-71.983,14.97-22.551,9.253-43.301,22.616-61.167,39.68-18.319,17.459-32.537,37.875-42.134,60.133-9.607,22.239-14.65,46.389-14.65,71.332h-.02v38.634h.02c0,14.211,6.042,27.107,15.791,36.431,9.758,9.309,23.231,15.117,38.08,15.117,3.071,0,6.08-.272,8.954-.722,2.997-.488,5.913-1.19,8.676-2.112l1.882-.63,1.228,1.532c7.578,9.451,16.29,17.909,25.832,25.196,9.616,7.322,20.119,13.487,31.284,18.359l5.146,2.253-5.014,2.513c-24.636,12.386-44.587,30.605-58.352,52.318-13.746,21.7-21.334,46.946-21.334,73.498v127.317c0,2.185.576,4.292,1.622,6.17,1.036,1.818,2.583,3.465,4.497,4.638l147.499,91.528c1.095.704,2.292,1.207,3.507,1.57,1.218.324,2.518.503,3.808.503,2.254,0,4.497-.521,6.449-1.549v-.017c1.915-.977,3.611-2.436,4.864-4.292,2.028-2.957,2.583-6.477,1.876-9.707-.715-3.208-2.724-6.182-5.835-8.115l-140.083-86.95-1.271-.811v-120.282c0-18.291,4.438-35.874,12.584-51.601,8.239-15.872,20.29-29.884,35.374-40.832l3.054-2.24,1.255,3.482c4.94,13.709,13.821,25.685,24.966,34.142,10.672,8.115,23.475,12.971,36.873,12.971h2.433c13.981,0,26.671-5.773,37.033-14.916,11.625-10.266,20.374-24.708,24.814-40.004l.99-3.375,3.104,1.805,1.45.811.039.021,1.45.845v.017c3.169,1.86,6.817,2.33,10.192,1.591,3.34-.759,6.412-2.743,8.382-5.773l.039-.073ZM223.721,255.237c-5.099,8.296-9.042,17.244-11.68,26.55-2.63,9.271-3.98,18.903-3.98,28.623h-.017v38.634h.017c0,4.022-.99,7.863-2.724,11.255-1.791,3.533-4.421,6.62-7.607,9.018l-.189.143-.291.145-.887.65-.198.125c-2.179,1.426-4.593,2.543-7.154,3.303-2.518.737-5.158,1.135-7.883,1.135v-.019c-7.411,0-14.153-2.903-19.037-7.555-4.864-4.655-7.9-11.095-7.9-18.182l.018-38.688h-.018c0-43.863,17.98-83.418,47.423-112.275,29.425-28.839,70.362-47.002,116.218-48.047h.02c1.694-.036,3.448-.036,5.231-.036,1.81.018,3.666.071,5.522.125,45.123,1.714,85.361,20.164,114.325,49.004,28.962,28.839,46.63,68.032,46.63,111.245v38.653h.017c0,7.105-3.034,13.543-7.898,18.2h-.021c-4.864,4.669-11.605,7.574-19.017,7.574v-.019c-2.743,0-5.41-.396-7.898-1.117-2.564-.759-4.979-1.877-7.164-3.303l-.094-.053-.115-.092-.849-.63-.29-.145-.192-.142c-3.204-2.399-5.833-5.485-7.629-9.037h.021c-1.745-3.39-2.722-7.214-2.722-11.218l.017-38.688h-.017c0-26.765-10.45-51.745-27.767-70.992-17.356-19.244-41.635-32.788-69.295-36.685-1.859-.253-3.736-.162-5.47.307h-.02c-1.754.434-3.439,1.244-4.902,2.364-1.452,1.099-2.63,2.488-3.478,4.02h-.02c-.849,1.534-1.367,3.247-1.529,5.051-.443,5.463-1.198,10.964-2.234,16.396-1.026,5.428-2.394,10.838-4.014,16.142l-.605,1.894h-81.033c-2.396,0-4.696.614-6.685,1.713h-.02c-1.99,1.083-3.706,2.688-4.922,4.654ZM322.904,502.963h-2.416c-10.078,0-19.956-5.751-27.274-14.391-7.166-8.478-11.919-19.823-11.936-31.296l-.499-3.674-.529-3.878,3.961.969c6.078,1.481,12.323,2.603,18.676,3.358,6.214.738,12.567,1.118,18.997,1.118v.038c6.023,0,12.068-.38,18.054-1.05,6.042-.683,11.945-1.694,17.668-2.991l3.593-.832-.179,3.537c-.556,11.887-5.582,24.098-12.548,33.293-7.148,9.399-16.492,15.799-25.568,15.782v.017ZM321.885,429.41c-19.328,0-37.919-4.201-54.606-11.991-16.764-7.809-31.651-19.283-43.426-33.73l-1.33-1.641,1.31-1.624c3.554-4.418,6.393-9.431,8.306-14.826,1.849-5.174,2.857-10.748,2.857-16.538l.017-38.688h-.017c0-5.861.66-11.743,1.95-17.459,1.274-5.754,3.206-11.345,5.714-16.683l.736-1.571h82.654v-.017c2.839,0,5.505-.833,7.703-2.31,2.207-1.459,3.961-3.59,4.931-6.095,1.988-5.158,3.761-10.423,5.271-15.798,1.499-5.286,2.78-10.697,3.78-16.161l.565-3.122,3.121,1.102c16.952,5.882,31.396,16.737,41.541,30.554,9.955,13.581,15.809,30.101,15.809,47.576h-.017v38.653h.017c0,5.808.999,11.382,2.838,16.573,1.914,5.393,4.752,10.407,8.306,14.808l1.312,1.624-1.312,1.641c-11.784,14.446-26.671,25.919-43.426,33.73-16.707,7.791-35.299,11.991-54.607,11.991Z"/>
</svg>
