<?xml version="1.0" encoding="UTF-8"?>
<svg id="Ebene_1" data-name="Ebene 1" xmlns="http://www.w3.org/2000/svg" viewBox="0 0 1024 1024">
  <path d="M627.2,601.28c38.189,0,74.817-15.171,101.825-42.176,27.003-27.005,42.175-63.632,42.175-101.824s-15.172-74.818-42.175-101.824c-27.009-27.005-63.636-42.176-101.825-42.176s-74.818,15.171-101.824,42.176c-27.005,27.005-42.176,63.632-42.176,101.824s15.171,74.818,42.176,101.824c27.005,27.005,63.632,42.176,101.824,42.176ZM166.4,137.6c-30.553,0-59.855,12.137-81.459,33.742-21.604,21.604-33.741,50.906-33.741,81.458v518.4c0,30.551,12.137,59.852,33.741,81.458,21.604,21.606,50.906,33.742,81.459,33.742h691.2c30.551,0,59.852-12.136,81.458-33.742s33.742-50.907,33.742-81.458V252.8c0-30.553-12.136-59.854-33.742-81.458-21.606-21.605-50.907-33.742-81.458-33.742H166.4ZM108.8,252.8c0-15.277,6.069-29.927,16.87-40.73,10.802-10.802,25.453-16.87,40.73-16.87h115.2v115.2H108.8v-57.6ZM339.2,828.8V195.2h518.4c15.276,0,29.929,6.069,40.729,16.87,10.8,10.802,16.871,25.453,16.871,40.73v518.4c0,16.416-6.912,31.277-17.856,41.76-31.104-70.906-107.597-156.96-270.144-156.96-174.931,0-250.272,99.648-276.365,172.8h-11.635ZM108.8,713.6h172.8v115.2h-115.2c-15.277,0-29.927-6.071-40.73-16.871-10.802-10.8-16.87-25.453-16.87-40.729v-57.6ZM281.6,656H108.8v-115.2h172.8v115.2ZM281.6,483.2H108.8v-115.2h172.8v115.2Z"/>
</svg>