<?xml version="1.0" encoding="UTF-8"?>
<svg id="Ebene_1" data-name="Ebene 1" xmlns="http://www.w3.org/2000/svg" viewBox="0 0 1024 1024">
  <defs>
    <style>
      .cls-1 {
        fill: #2c2c2c;
      }
    </style>
  </defs>
  <path d="M512,600.619c-10.445,0-19.349-3.678-26.709-11.038-7.351-7.356-11.029-16.256-11.029-26.709s3.678-19.354,11.029-26.714c7.36-7.351,16.265-11.029,26.709-11.029s19.349,3.678,26.709,11.029c7.351,7.36,11.029,16.265,11.029,26.714s-3.678,19.354-11.029,26.709c-7.36,7.36-16.265,11.038-26.709,11.038ZM341.333,600.619c-10.446,0-19.349-3.678-26.709-11.038-7.353-7.356-11.029-16.256-11.029-26.709s3.677-19.354,11.029-26.714c7.36-7.351,16.263-11.029,26.709-11.029s19.349,3.678,26.709,11.029c7.353,7.36,11.029,16.265,11.029,26.714s-3.677,19.354-11.029,26.709c-7.36,7.36-16.263,11.038-26.709,11.038ZM682.667,600.619c-10.445,0-19.349-3.678-26.709-11.038-7.351-7.356-11.029-16.256-11.029-26.709s3.678-19.354,11.029-26.714c7.36-7.351,16.265-11.029,26.709-11.029s19.349,3.678,26.709,11.029c7.351,7.36,11.029,16.265,11.029,26.714s-3.678,19.354-11.029,26.709c-7.36,7.36-16.264,11.038-26.709,11.038ZM512,768c-10.445,0-19.349-3.678-26.709-11.038-7.351-7.356-11.029-16.256-11.029-26.701s3.678-19.358,11.029-26.709c7.36-7.36,16.265-11.038,26.709-11.038s19.349,3.678,26.709,11.038c7.351,7.351,11.029,16.256,11.029,26.709s-3.678,19.345-11.029,26.701c-7.36,7.36-16.265,11.038-26.709,11.038ZM341.333,768c-10.446,0-19.349-3.678-26.709-11.038-7.353-7.356-11.029-16.256-11.029-26.701s3.677-19.358,11.029-26.709c7.36-7.36,16.263-11.038,26.709-11.038s19.349,3.678,26.709,11.038c7.353,7.351,11.029,16.256,11.029,26.709s-3.677,19.345-11.029,26.701c-7.36,7.36-16.263,11.038-26.709,11.038ZM682.667,768c-10.445,0-19.349-3.678-26.709-11.038-7.351-7.356-11.029-16.256-11.029-26.701s3.678-19.358,11.029-26.709c7.36-7.36,16.265-11.038,26.709-11.038s19.349,3.678,26.709,11.038c7.351,7.351,11.029,16.256,11.029,26.709s-3.678,19.345-11.029,26.701c-7.36,7.36-16.264,11.038-26.709,11.038ZM226.464,917.333c-21.554,0-39.797-7.467-54.731-22.4-14.933-14.933-22.4-33.178-22.4-54.729V269.131c0-21.554,7.467-39.797,22.4-54.731,14.933-14.933,33.177-22.4,54.731-22.4h59.072v-90.251h65.643v90.251h323.283v-90.251h64v90.251h59.076c21.551,0,39.795,7.467,54.729,22.4,14.933,14.933,22.4,33.177,22.4,54.731v571.074c0,21.551-7.467,39.795-22.4,54.729s-33.178,22.4-54.729,22.4H226.464ZM226.464,853.333h571.074c3.281,0,6.293-1.37,9.024-4.105,2.735-2.731,4.105-5.739,4.105-9.024v-400.405H213.333v400.405c0,3.285,1.369,6.293,4.107,9.024,2.731,2.735,5.739,4.105,9.024,4.105Z"/>
</svg>
