<?xml version="1.0" encoding="UTF-8"?>
<svg id="Ebene_1" data-name="Ebene 1" xmlns="http://www.w3.org/2000/svg" viewBox="0 0 1024 1024">
  <defs>
    <style>
      .cls-1 {
        fill: #2c2c2c;
      }
    </style>
  </defs>
  <path d="M256,153.6c-56.48,0-102.4,45.92-102.4,102.4v512c0,56.478,45.92,102.4,102.4,102.4h512c56.478,0,102.4-45.922,102.4-102.4V256c0-56.48-45.922-102.4-102.4-102.4h-512ZM264,425.92h106.4v342.08h-106.4v-342.08ZM378.72,317.6c0,34.08-27.52,61.6-61.6,61.6s-61.6-27.52-61.6-61.6,27.52-61.6,61.6-61.6,61.6,27.52,61.6,61.6ZM662.238,768v-166.4c0-39.68-.798-90.722-55.198-90.722-55.36,0-63.842,43.2-63.842,87.842v169.28h-106.24v-342.08h101.922v46.72h1.438c14.242-26.88,48.96-55.2,100.642-55.2,107.52,0,127.518,70.88,127.518,163.04v187.52h-106.24Z"/>
</svg>
