<?xml version="1.0" encoding="UTF-8"?>
<svg id="Ebene_1" data-name="Ebene 1" xmlns="http://www.w3.org/2000/svg" viewBox="0 0 1024 1024">
  <defs>
    <style>
      .cls-1 {
        fill: #2c2c2c;
      }
    </style>
  </defs>
  <path d="M413.867,780.22l-44.96-44.962,98.135-98.133-98.135-98.133,44.96-44.958,98.133,98.133,98.133-98.133,44.962,44.958-98.133,98.133,98.133,98.133-44.962,44.962-98.133-98.133-98.133,98.133ZM226.464,919.791c-21.554,0-39.797-7.462-54.731-22.396-14.933-14.938-22.4-33.178-22.4-54.733V271.59c0-21.554,7.467-39.797,22.4-54.731,14.933-14.933,33.177-22.4,54.731-22.4h59.072v-90.251h65.643v90.251h323.283v-90.251h64v90.251h59.076c21.551,0,39.795,7.467,54.729,22.4,14.933,14.933,22.4,33.177,22.4,54.731v571.072c0,21.555-7.467,39.795-22.4,54.733-14.933,14.933-33.178,22.396-54.729,22.396H226.464ZM226.464,855.791h571.074c3.281,0,6.293-1.365,9.024-4.105,2.735-2.731,4.105-5.739,4.105-9.024v-400.405H213.333v400.405c0,3.285,1.369,6.293,4.107,9.024,2.731,2.739,5.739,4.105,9.024,4.105Z"/>
</svg>
