<?xml version="1.0" encoding="UTF-8"?>
<svg id="Ebene_1" data-name="Ebene 1" xmlns="http://www.w3.org/2000/svg" viewBox="0 0 1024 1024">
  <defs>
    <style>
      .cls-1 {
        fill-rule: evenodd;
      }
    </style>
  </defs>
  <path d="M964.358,347.619c2.684,2.675,4.809,5.853,6.261,9.352,1.451,3.498,2.2,7.249,2.2,11.037s-.749,7.539-2.2,11.037c-1.451,3.499-3.577,6.677-6.261,9.352l-172.79,172.79c-2.672,2.682-5.852,4.81-9.354,6.261-3.496,1.452-7.246,2.199-11.036,2.199s-7.539-.747-11.036-2.199c-3.502-1.451-6.681-3.58-9.354-6.261l-86.395-86.395c-5.408-5.408-8.444-12.742-8.444-20.389s3.035-14.981,8.444-20.389c5.408-5.408,12.74-8.445,20.389-8.445s14.981,3.038,20.389,8.445l66.006,66.064,152.401-152.459c2.672-2.682,5.852-4.81,9.354-6.261,3.496-1.452,7.246-2.199,11.036-2.199s7.539.747,11.036,2.199c3.502,1.451,6.681,3.58,9.354,6.261ZM108.816,857.581s-57.597,0-57.597-57.597,57.597-230.387,345.581-230.387,345.581,172.79,345.581,230.387-57.597,57.597-57.597,57.597H108.816ZM396.8,512c45.827,0,89.777-18.205,122.181-50.609,32.405-32.404,50.609-76.354,50.609-122.181s-18.205-89.777-50.609-122.181c-32.404-32.405-76.354-50.609-122.181-50.609s-89.777,18.205-122.181,50.609c-32.405,32.405-50.609,76.354-50.609,122.181s18.205,89.777,50.609,122.181c32.405,32.405,76.354,50.609,122.181,50.609Z"/>
</svg>
