<?xml version="1.0" encoding="UTF-8"?>
<svg id="Ebene_1" data-name="Ebene 1" xmlns="http://www.w3.org/2000/svg" viewBox="0 0 1024 1024">
  <defs>
    <style>
      .cls-1 {
        fill: #c20016;
      }
    </style>
  </defs>
  <path d="M661.69,845.519h-25.916l-21.577-154.104-24.239,3.405,21.082,150.699h-27.328l-10.59-75.763-24.243,3.405,10.133,72.358h-94.967l6.234-44.617-24.23-3.401-6.724,48.017h-26.957l16.265-116.425-24.232-3.388-16.756,119.812h-26.754l47.673-340.843c7.118-50.948,51.291-89.34,102.709-89.34s95.625,38.391,102.729,89.357l47.689,340.826ZM913.124,719.307l-19.866-9.933c-.196-.115-21.67-11.098-47.851-42.359-24.256-28.992-57.626-81.809-78.707-168.849-14.353-59.268-38.344-96.531-71.334-110.802-26.492-11.478-57.963-7.631-90.987,11.101l12.087,21.293c18.189-10.325,44.945-20.423,69.167-9.932,25.553,11.066,44.826,42.725,57.293,94.096,31.736,131.11,90.048,191.279,120.303,214.729-13.615,4.834-26.62,5.444-38.805,1.792-32.892-9.882-51.059-47.373-51.243-47.753l-11.085,5.244-11.046,5.214c.789,1.664,17.015,35.469,49.02,53.312-8.998,1.399-17.843,1.037-26.509-1.165-37.197-9.442-60.599-48.627-60.83-49.024l-10.556,6.182-10.59,6.153c.785,1.348,13.862,23.433,37.129,41.109-11.051,2.863-21.065,2.581-29.892-.887-22.712-8.947-32.166-36.442-32.644-37.871l-27.921-199.667c-4.292-30.622-19.49-58.658-42.837-78.967-23.334-20.292-53.214-31.473-84.147-31.473s-60.804,11.181-84.122,31.473c-23.343,20.309-38.544,48.346-42.838,78.967l-28.143,201.079c-2.255,5.956-12.005,28.45-31.977,36.395-8.856,3.533-18.913,3.831-30.036.951,23.269-17.677,36.351-39.761,37.122-41.109l-21.146-12.301c-.238.375-23.301,39.398-60.672,48.951-8.722,2.223-17.611,2.62-26.638,1.203,31.975-17.843,48.247-51.648,49.021-53.312l-22.143-10.428c-.189.363-18.071,37.658-51.108,47.659-12.227,3.716-25.26,3.123-38.932-1.728,30.257-23.467,88.544-83.622,120.314-214.729,12.375-51.042,31.476-82.633,56.784-93.884,23.506-10.458,49.473-1.248,67.117,8.303l11.658-21.539c-32.23-17.449-62.915-20.589-88.708-9.126-32.617,14.503-56.395,51.683-70.644,110.49-21.081,87.04-54.456,139.874-78.72,168.849-26.154,31.262-47.639,42.244-47.787,42.33l-18.797,10.163,17.851,11.294c18.089,10.935,35.865,16.444,53.091,16.512,17.077,9.668,34.237,14.519,51.223,14.519,7.532,0,15.039-.956,22.481-2.88,3.837-.969,7.53-2.185,11.101-3.584,14.733,7.219,28.729,10.837,41.859,10.837,8.64-.017,16.893-1.562,24.756-4.702,5.976-2.368,11.264-5.513,15.942-9.058l-16.429,117.555h357.09l-16.495-117.837c4.77,3.669,10.197,6.925,16.299,9.34,7.859,3.14,16.111,4.702,24.764,4.702,13.12-.017,27.132-3.618,41.869-10.837,3.55,1.399,7.249,2.632,11.08,3.584,7.45,1.924,14.968,2.88,22.498,2.88,17.003,0,34.138-4.851,51.208-14.519,17.233-.068,35.008-5.576,53.099-16.512l18.961-11.494ZM511.281,153.999c-74.091,0-132.113,34.912-132.113,79.508,0,15.491,7.089,30.423,20.49,43.101l16.839-17.761c-8.518-8.09-12.843-16.608-12.843-25.34,0-13.368,10.236-26.458,28.86-36.883,20.826-11.708,48.815-18.138,78.767-18.138s57.958,6.43,78.797,18.138c18.598,10.426,28.855,23.515,28.855,36.883,0,11.167-7.364,20.276-13.513,25.965l16.576,18.006c14.007-12.873,21.41-28.086,21.41-43.971,0-44.596-58.018-79.508-132.126-79.508ZM511.281,363.056c-35.575,0-64.503-28.941-64.503-64.511s28.928-64.509,64.503-64.509,64.503,28.941,64.503,64.509-28.907,64.528-64.503,64.511ZM511.281,209.548c-49.062,0-88.99,39.927-88.99,88.996s39.932,88.998,88.99,88.998,89.007-39.927,89.007-88.998-39.927-88.996-89.007-88.996Z"/>
</svg>
