<?xml version="1.0" encoding="UTF-8"?>
<svg id="Ebene_1" data-name="Ebene 1" xmlns="http://www.w3.org/2000/svg" viewBox="0 0 1024 1024">
  <defs>
    <style>
      .cls-1 {
        fill: #dc9018;
      }
    </style>
  </defs>
  <path d="M511.997,380.096c-73.527,0-133.34,59.82-133.34,133.352s59.812,133.35,133.34,133.35,133.342-59.81,133.342-133.35-59.81-133.352-133.342-133.352ZM511.997,672.066c-87.458,0-158.607-71.159-158.607-158.618s71.149-158.621,158.607-158.621,158.609,71.158,158.609,158.621-71.159,158.618-158.609,158.618ZM668.695,392.969c-4.126,0-8.209-1.724-11.14-5.081-5.299-6.148-4.625-15.434,1.515-20.735l94.805-82.009c6.144-5.321,15.433-4.634,20.74,1.504,5.312,6.137,4.634,15.424-1.502,20.735l-94.814,81.999c-2.782,2.411-6.2,3.587-9.604,3.587ZM718.641,510.001c-7.484,0-13.897-5.7-14.618-13.312-.755-8.09,5.184-15.266,13.261-16.021l125.632-11.844c8.09-.819,15.253,5.171,16.021,13.252.755,8.09-5.171,15.262-13.252,16.021l-125.649,11.844c-.469.038-.926.06-1.395.06ZM801.307,697.995c-2.492,0-5.022-.64-7.351-1.997l-109.875-63.654c-7.036-4.075-9.429-13.065-5.355-20.096,4.058-7.014,13.043-9.417,20.087-5.342l109.888,63.667c7.014,4.066,9.404,13.052,5.342,20.087-2.722,4.702-7.663,7.334-12.736,7.334ZM647.869,831.435c-5.581,0-10.918-3.208-13.38-8.631l-50.743-111.659c-3.371-7.394-.098-16.115,7.305-19.469,7.36-3.349,16.111-.09,19.456,7.305l50.743,111.667c3.358,7.381.09,16.111-7.3,19.448-1.975.909-4.049,1.34-6.08,1.34ZM447.434,854.159c-.926,0-1.882-.09-2.82-.277-7.97-1.545-13.171-9.267-11.627-17.237l23.326-119.552c1.553-7.949,9.203-13.133,17.237-11.618,7.97,1.553,13.171,9.284,11.614,17.246l-23.313,119.552c-1.374,7.014-7.522,11.887-14.417,11.887ZM271.062,756.947c-3.886,0-7.782-1.523-10.662-4.574-5.589-5.896-5.35-15.194.538-20.783l88.128-83.605c5.917-5.581,15.204-5.35,20.784.538,5.6,5.901,5.35,15.206-.538,20.787l-88.128,83.614c-2.85,2.688-6.487,4.023-10.123,4.023ZM179.686,576.22c-7.213,0-13.501-5.312-14.546-12.655-1.117-8.03,4.473-15.471,12.515-16.597l124.204-17.489c7.931-1.165,15.464,4.454,16.599,12.506,1.135,8.03-4.464,15.462-12.515,16.597l-124.205,17.489c-.678.09-1.374.149-2.052.149ZM325.382,433.299c-2.282,0-4.603-.525-6.765-1.66l-109.11-56.704c-7.204-3.737-10.014-12.614-6.266-19.817,3.726-7.213,12.614-10.023,19.817-6.257l109.12,56.703c7.204,3.735,9.993,12.614,6.267,19.817-2.632,5.029-7.752,7.918-13.063,7.918ZM415.701,343.631c-5.3,0-10.402-2.869-13.032-7.89l-57.58-110.027c-3.776-7.184-.986-16.061,6.207-19.827,7.194-3.786,16.062-1.006,19.827,6.198l57.589,110.027c3.767,7.184.986,16.071-6.208,19.837-2.18,1.144-4.512,1.682-6.803,1.682ZM541.284,322.986c-.721,0-1.438-.041-2.176-.15-8.03-1.185-13.581-8.668-12.382-16.699l18.291-123.746c1.186-8.021,8.7-13.6,16.687-12.384,8.03,1.185,13.581,8.668,12.386,16.699l-18.295,123.737c-1.062,7.302-7.351,12.543-14.511,12.543Z"/>
</svg>
