<?xml version="1.0" encoding="UTF-8"?>
<svg id="Ebene_1" data-name="Ebene 1" xmlns="http://www.w3.org/2000/svg" viewBox="0 0 1024 1024">
  <defs>
    <style>
      .cls-1 {
        fill-rule: evenodd;
      }
    </style>
  </defs>
  <path d="M281.595,281.584c.004-44.34,12.802-87.737,36.859-124.984,24.057-37.247,58.35-66.761,98.764-85.002,40.415-18.24,85.234-24.432,129.08-17.832,43.846,6.6,84.857,25.712,118.11,55.041,33.253,29.33,57.336,67.632,69.363,110.31,12.027,42.678,11.48,87.92-1.573,130.296-13.047,42.376-38.046,80.087-71.996,108.608-33.951,28.52-75.409,46.639-119.402,52.182v318.593c0,7.638-3.034,14.965-8.436,20.362-5.401,5.403-12.726,8.439-20.365,8.439s-14.964-3.036-20.365-8.439c-5.401-5.397-8.436-12.724-8.436-20.362v-318.535c-55.703-7.018-106.926-34.133-144.049-76.251-37.122-42.118-57.589-96.341-57.556-152.484v.058ZM425.195,775.458c1.249,7.528-.543,15.247-4.982,21.462-4.439,6.209-11.163,10.403-18.692,11.659-41.012,6.797-73.73,16.992-95.33,28.397-7.935,3.813-15.146,8.98-21.312,15.264-1.394,1.521-2.506,3.272-3.283,5.184v.173l.115.461c.226.668.536,1.308.922,1.901,2.274,3.335,5.098,6.255,8.352,8.64,9.504,7.488,25.057,15.552,46.83,22.753,43.259,14.4,104.834,23.847,174.186,23.847s130.928-9.389,174.186-23.847c21.773-7.258,37.326-15.264,46.83-22.753,3.272-2.385,6.117-5.305,8.41-8.64.363-.593.657-1.233.864-1.901l.115-.461v-.23c-.778-1.912-1.889-3.663-3.283-5.184-6.169-6.267-13.381-11.411-21.312-15.207-21.658-11.405-54.318-21.6-95.33-28.397-3.82-.518-7.498-1.797-10.815-3.761-3.317-1.964-6.205-4.579-8.494-7.678-2.289-3.105-3.931-6.636-4.83-10.386-.899-3.744-1.037-7.638-.404-11.44.633-3.802,2.022-7.442,4.087-10.697,2.064-3.254,4.761-6.065,7.931-8.26s6.747-3.727,10.522-4.516c3.774-.783,7.666-.806,11.45-.058,44.353,7.315,83.637,18.893,112.726,34.215,26.554,13.997,55.355,37.038,55.355,71.598,0,24.538-14.976,43.316-31.335,56.277-16.704,13.133-39.169,23.789-64.283,32.142-50.574,16.877-118.601,26.785-192.388,26.785s-141.814-9.907-192.388-26.785c-25.114-8.352-47.579-19.008-64.283-32.142-16.359-12.96-31.335-31.738-31.335-56.277,0-34.503,28.801-57.601,55.355-71.598,29.089-15.322,68.373-26.9,112.726-34.215,7.531-1.25,15.25.541,21.46,4.983,6.21,4.441,10.405,11.163,11.66,18.692Z"/>
</svg>
