<?xml version="1.0" encoding="UTF-8"?>
<svg id="Ebene_1" data-name="Ebene 1" xmlns="http://www.w3.org/2000/svg" viewBox="0 0 1024 1024">
  <defs>
    <style>
      .cls-1 {
        fill: #50832f;
      }
    </style>
  </defs>
  <path d="M485.457,234.676c20.032,0,36.297,14.305,36.297,31.936s-16.265,31.936-36.297,31.936c-6.694,0-12.117,4.801-12.117,10.677s5.423,10.665,12.117,10.665c33.348,0,60.535-23.881,60.535-53.277s-27.187-53.263-60.535-53.263c-6.694,0-12.117,4.773-12.117,10.662s5.423,10.665,12.117,10.665ZM558.127,234.676c19.972,0,36.275,14.305,36.275,31.936s-16.303,31.936-36.275,31.936c-6.707,0-12.13,4.801-12.13,10.677s5.423,10.665,12.13,10.665c33.331,0,60.527-23.881,60.527-53.277s-27.196-53.263-60.527-53.263c-6.707,0-12.13,4.773-12.13,10.662s5.423,10.665,12.13,10.665ZM409.39,649.071c0,10.099-1.63,19.328-4.859,27.755-3.292,8.444-8.176,15.697-14.564,21.811-6.465,6.153-14.431,10.884-24.125,14.276-9.618,3.311-20.772,5.035-33.393,5.035-7.587,0-14.735-.674-21.357-1.963-6.649-1.348-12.622-2.893-17.795-4.74-5.18-1.779-9.453-3.627-12.917-5.534-3.473-1.984-5.605-3.268-6.388-3.998-.869-.759-1.465-1.421-1.897-2.167-.43-.734-.783-1.545-1.088-2.458-.306-.866-.564-2.039-.746-3.388-.126-1.412-.235-3.081-.235-4.983,0-3.571.367-6.042,1.153-7.381.791-1.297,1.818-1.971,3.094-1.971,1.114,0,3.295.977,6.537,3.076,3.292,2.027,7.479,4.237,12.668,6.635,5.166,2.402,11.201,4.625,18.027,6.665,6.88,2.082,14.447,3.076,22.779,3.076,8.521,0,16.02-1.118,22.487-3.396,6.386-2.33,11.813-5.53,16.202-9.656,4.445-4.177,7.736-9.118,9.931-14.775,2.185-5.722,3.292-11.942,3.292-18.701,0-7.202-1.411-13.743-4.274-19.52-2.869-5.854-6.945-10.901-12.304-15.083-5.37-4.181-11.882-7.45-19.605-9.719-7.751-2.278-16.45-3.452-26.085-3.452h-22.842c-.727,0-1.464-.179-2.248-.555-.738-.371-1.484-.922-2.132-1.724-.683-.742-1.16-1.707-1.593-2.953-.413-1.173-.657-2.701-.657-4.497,0-1.613.172-2.953.541-4.053.353-1.173.853-2.099,1.465-2.897.542-.802,1.27-1.357,2.006-1.728.783-.371,1.638-.563,2.618-.563h20.16c8.35,0,15.842-1.088,22.536-3.366,6.779-2.274,12.493-5.615,17.246-9.852,4.75-4.245,8.408-9.365,10.962-15.326,2.563-5.973,3.85-12.621,3.85-19.947,0-5.406-.862-10.526-2.571-15.33-1.702-4.796-4.264-8.977-7.668-12.604-3.407-3.588-7.671-6.404-12.861-8.444-5.166-2.082-11.201-3.076-18.092-3.076-7.304,0-13.888,1.05-19.854,3.2-5.909,2.223-11.209,4.553-15.785,7.147-4.554,2.577-8.349,4.979-11.201,7.13-2.925,2.155-4.994,3.26-6.217,3.26-.674,0-1.348-.111-1.957-.363-.604-.247-1.091-.742-1.507-1.472-.368-.678-.674-1.673-.853-2.953-.189-1.297-.324-2.897-.324-4.983,0-1.31.089-2.483.198-3.516.126-.981.368-1.92.721-2.773.368-.87.806-1.655,1.223-2.458.493-.755,1.286-1.668,2.374-2.769,1.044-1.118,3.231-2.718,6.583-4.855,3.357-2.167,7.432-4.318,12.244-6.349,4.82-2.027,10.292-3.75,16.506-5.239,6.144-1.395,12.794-2.155,19.807-2.155,10.599,0,19.792,1.493,27.529,4.318,7.799,2.897,14.258,6.886,19.36,11.947,5.115,5.035,8.957,11.008,11.458,17.894,2.508,6.955,3.721,14.417,3.721,22.485,0,7.424-.972,14.387-2.929,20.804-1.946,6.455-4.868,12.181-8.655,17.161-3.842,4.992-8.465,9.173-13.998,12.484-5.558,3.396-11.898,5.67-19.007,6.899v.371c7.979.687,15.283,2.65,22.055,5.722,6.693,3.149,12.543,7.215,17.48,12.13,4.928,4.911,8.769,10.65,11.578,17.173,2.793,6.579,4.188,13.658,4.188,21.231ZM593.101,640.585c0,9.357-1.395,18.705-4.25,27.938-2.85,9.229-7.369,17.549-13.589,24.815-6.161,7.258-14.08,13.176-23.812,17.728-9.702,4.608-21.38,6.886-35.038,6.886-9.084,0-17.109-1.173-24.128-3.503-6.997-2.347-13.158-5.726-18.458-10.103-5.299-4.425-9.745-9.847-13.278-16.235-3.588-6.473-6.511-13.794-8.764-22.11-2.266-8.307-3.895-17.429-4.873-27.319-1.045-9.907-1.532-20.621-1.532-32.196,0-10.347.55-20.681,1.762-31.078,1.165-10.419,3.234-20.309,6.106-29.786,2.79-9.421,6.579-18.223,11.311-26.419,4.71-8.179,10.551-15.202,17.566-21.158,6.997-5.99,15.283-10.654,24.785-14.046,9.579-3.447,20.518-5.171,33.028-5.171,4.437,0,8.811.23,13.201.798,4.39.55,8.482,1.242,12.262,2.099,3.699.853,6.878,1.779,9.434,2.897,2.543,1.045,4.267,1.958,5.111,2.577.785.674,1.408,1.353,1.771,1.971.363.674.674,1.353.913,2.082.171.734.375,1.545.482,2.47.128.858.192,1.92.192,3.149,0,1.28,0,2.522-.064,3.627-.064,1.05-.235,1.958-.533,2.688-.316.691-.751,1.31-1.348,1.673-.627.427-1.348.674-2.321.674-1.335,0-3.042-.414-5.235-1.284-2.257-.853-4.988-1.792-8.247-2.897-3.26-1.05-7.228-2.027-11.866-2.897-4.625-.798-10.112-1.225-16.448-1.225-12.006,0-22.289,2.539-30.942,7.573-8.585,5.047-15.714,11.823-21.338,20.373-5.576,8.542-9.728,18.406-12.471,29.551-2.743,11.187-4.267,22.886-4.638,35.204,3.29-1.971,7.061-3.887,11.162-5.794,4.075-1.903,8.585-3.627,13.453-5.171,4.873-1.463,10.065-2.705,15.535-3.686,5.491-.934,11.277-1.404,17.297-1.404,12.983-.017,23.829,1.707,32.482,5.214,8.7,3.503,15.646,8.247,20.881,14.345,5.248,6.029,8.964,13.175,11.145,21.299,2.214,8.055,3.294,16.734,3.294,25.852ZM570.261,642.739c0-7.561-.721-14.473-2.325-20.753-1.519-6.204-4.139-11.558-7.834-16.055-3.669-4.442-8.593-7.876-14.703-10.347-6.144-2.47-13.705-3.695-22.767-3.695-5.001,0-10.01.439-15.049,1.353-5.056.934-9.941,2.163-14.69,3.708-4.685,1.519-9.131,3.366-13.338,5.466-4.25,2.167-8.043,4.373-11.332,6.784,0,16.845,1.109,31.014,3.29,42.462,2.202,11.507,5.423,20.749,9.741,27.755,4.271,7.078,9.57,12.126,15.974,15.147,6.327,3.076,13.756,4.608,22.174,4.608,8.828,0,16.431-1.711,22.844-5.094,6.443-3.46,11.742-7.885,15.876-13.363,4.22-5.478,7.275-11.575,9.22-18.223,1.946-6.647,2.918-13.227,2.918-19.75ZM759.582,640.405c0,12.361-2.082,23.369-6.097,32.981-4.015,9.604-9.749,17.732-17.118,24.38-7.369,6.579-16.196,11.631-26.496,15.023-10.3,3.435-21.632,5.158-34.048,5.158-7.134,0-13.888-.55-20.288-1.724-6.455-1.173-12.194-2.453-17.182-3.93-5.001-1.549-9.075-3.008-12.194-4.565-3.166-1.476-5.175-2.65-6.02-3.383-.798-.798-1.408-1.463-1.643-2.027-.299-.495-.614-1.169-.862-1.971-.158-.798-.363-1.711-.474-2.884-.128-1.101-.188-2.466-.188-4.07,0-1.417.06-2.769.235-3.942.192-1.225.486-2.206.926-3.063.422-.883.909-1.489,1.506-1.92.563-.358,1.22-.619,1.975-.619,1.143,0,3.021.815,5.594,2.347,2.556,1.587,6.037,3.255,10.487,5.171,4.373,1.839,9.783,3.563,16.32,5.107,6.443,1.6,14.187,2.342,23.091,2.342,8.448,0,16.32-1.05,23.543-3.145,7.275-2.095,13.547-5.419,18.906-10.044,5.359-4.54,9.549-10.33,12.608-17.34,3.038-7.078,4.578-15.59,4.578-25.549,0-8.427-1.348-15.757-3.985-22.101-2.603-6.276-6.571-11.571-11.93-15.753-5.359-4.181-12.117-7.326-20.267-9.365-8.183-2.086-17.685-3.076-28.659-3.076-7.492,0-13.747.384-18.812,1.173-5.047.73-9.749,1.169-14.016,1.169-3.102,0-5.359-.73-6.737-2.274-1.476-1.476-2.197-4.429-2.197-8.747v-91.588c0-3.379.973-5.961,2.79-7.881,1.835-1.847,4.326-2.756,7.369-2.756h98.385c.909,0,1.818.179,2.667.606.815.427,1.536,1.033,2.129,1.903.631.858,1.067,1.852,1.353,3.076.311,1.173.439,2.594.439,4.126,0,2.769-.567,5.116-1.711,7.019-1.114,1.963-2.743,2.901-4.877,2.901h-88.32v73.916c4.139-.555,8.465-.913,12.902-1.037,4.437-.124,9.86-.179,16.145-.179,13.576-.013,25.395,1.655,35.443,4.979,10.065,3.255,18.342,7.863,24.99,13.781,6.566,5.837,11.507,12.928,14.797,21.052,3.298,8.179,4.941,17.105,4.941,26.722ZM170.667,779.106V255.949h182.842c5.621-24.294,30.083-42.614,59.297-42.614,33.39,0,60.535,23.88,60.535,53.278s-27.145,53.263-60.535,53.263c-6.678,0-12.116-4.773-12.116-10.663s5.437-10.665,12.116-10.665c20.035,0,36.3-14.307,36.3-31.936s-16.265-31.936-36.3-31.922c-15.796,0-29.088,8.884-34.112,21.259h21.995c6.676,0,12.117,4.786,12.117,10.663s-5.441,10.663-12.117,10.663h-205.777v95.879h653.76v-95.879h-158.613c-5.692,24.294-30.097,42.6-59.366,42.6-6.66,0-12.041-4.773-12.041-10.662s5.38-10.665,12.041-10.665c20.066,0,36.373-14.307,36.373-31.936s-16.307-31.936-36.373-31.922c-6.66,0-12.041-4.815-12.041-10.692s5.38-10.664,12.041-10.664c29.269,0,53.675,18.306,59.366,42.614h182.788v523.159l-.661,10.569c.004,19.255-16.7,34.914-38.507,34.914l-623.829-.017c-21.813,0-38.525-15.654-38.525-34.901l-.656-10.564ZM194.909,779.106l.494,10.569c0,7.556,5.903,12.796,14.446,12.796l623.828.013c8.529,0,14.43-5.235,14.43-12.809l.563-10.569v-384.628H194.909v384.628Z"/>
</svg>
