<?xml version="1.0" encoding="UTF-8"?>
<svg id="Ebene_1" data-name="Ebene 1" xmlns="http://www.w3.org/2000/svg" viewBox="0 0 1024 1024">
  <defs>
    <style>
      .cls-1 {
        fill: #2c2c2c;
      }
    </style>
  </defs>
  <path d="M833.805,878.768l-267.981-267.989c-21.333,17.613-45.867,31.398-73.6,41.357-27.733,9.954-56.422,14.933-86.069,14.933-72.925,0-134.642-25.25-185.152-75.746-50.51-50.496-75.765-112.201-75.765-185.109s25.248-134.627,75.744-185.173c50.496-50.539,112.199-75.808,185.109-75.808s134.628,25.255,185.171,75.765c50.539,50.51,75.81,112.227,75.81,185.152,0,30.473-5.111,59.575-15.339,87.309-10.231,27.733-23.881,51.853-40.947,72.363l267.977,267.977-44.958,44.971ZM406.155,603.077c54.974,0,101.54-19.081,139.693-57.237,38.157-38.153,57.237-84.715,57.237-139.691s-19.081-101.539-57.237-139.691c-38.153-38.158-84.719-57.237-139.693-57.237s-101.539,19.079-139.691,57.237c-38.158,38.151-57.237,84.715-57.237,139.691s19.079,101.538,57.237,139.691c38.151,38.157,84.715,57.237,139.691,57.237Z"/>
</svg>
