<?xml version="1.0" encoding="UTF-8"?>
<svg id="Ebene_1" data-name="Ebene 1" xmlns="http://www.w3.org/2000/svg" viewBox="0 0 1024 1024">
  <defs>
    <style>
      .cls-1 {
        fill: #2c2c2c;
      }
    </style>
  </defs>
  <path d="M930.826,511.998c0,231.369-187.46,418.829-418.825,418.829-43.913,0-86.131-5.069-124.974-18.577,16.888-27.021,42.222-72.619,52.355-109.773,5.065-18.577,25.331-99.644,25.331-99.644,13.508,27.025,54.042,48.977,96.26,48.977,126.66,0,217.856-116.527,217.856-260.075,0-138.485-113.148-243.191-258.385-243.191-180.704,0-276.967,121.594-276.967,253.32,0,62.49,32.087,138.483,84.441,163.819,8.444,3.375,13.51,1.685,15.199-6.758,0-5.065,8.444-33.775,11.822-47.287,0-3.375,0-8.444-3.377-11.819-16.888-20.267-30.399-59.11-30.399-96.265,0-91.195,69.242-180.702,189.148-180.702,101.329,0,173.948,69.241,173.948,170.569,0,113.152-57.421,190.839-131.729,190.839-40.529,0-70.929-33.779-62.485-74.308,11.823-50.667,35.465-104.708,35.465-140.173,0-32.09-16.887-59.109-52.352-59.109-42.223,0-75.997,43.911-75.997,101.327,0,37.154,11.822,62.485,11.822,62.485,0,0-40.532,175.637-48.975,207.727-8.444,37.154-5.067,87.816-1.689,119.906-155.371-60.8-265.143-211.102-265.143-390.118,0-231.366,187.458-418.825,418.828-418.825s418.825,187.459,418.825,418.825Z"/>
</svg>
