<?xml version="1.0" encoding="UTF-8"?>
<svg id="Ebene_1" data-name="Ebene 1" xmlns="http://www.w3.org/2000/svg" viewBox="0 0 1024 1024">
  <defs>
    <style>
      .cls-1 {
        fill: #2c2c2c;
      }
    </style>
  </defs>
  <path d="M494.771,309.749v-85.333c0-23.893,8.252-44.089,24.747-60.587,16.499-16.498,36.693-24.747,60.587-24.747h85.325v85.333c0,23.893-8.243,44.089-24.738,60.587-16.495,16.498-36.693,24.747-60.587,24.747h-85.333ZM273.077,544.405c-35.399,0-65.554-12.454-90.464-37.367-24.917-24.913-37.376-55.074-37.376-90.473v-128.149h128.149c35.399,0,65.557,12.459,90.475,37.376,24.917,24.91,37.376,55.065,37.376,90.464v128.149h-128.16ZM682.667,906.667c-26.569,0-51.942-4.267-76.13-12.8-24.183-8.533-46.042-20.267-65.579-35.2l-49.139,49.152c-5.909,5.901-13.338,8.926-22.285,9.067-8.939.137-16.499-2.889-22.686-9.067-6.178-6.187-9.203-13.747-9.067-22.686.141-8.947,3.166-16.375,9.067-22.285l49.152-49.143c-14.933-19.533-26.667-41.391-35.2-65.574-8.533-24.188-12.8-49.562-12.8-76.13,0-65.097,22.814-120.589,68.446-166.485,45.628-45.888,101.035-68.83,166.221-68.83h234.91v235.315c0,65.097-22.903,120.482-68.71,166.157-45.82,45.675-101.218,68.51-166.199,68.51ZM682.667,842.667c47.646,0,87.821-16.713,120.533-50.133,32.712-33.421,49.067-73.6,49.067-120.533v-170.667h-169.6c-46.933,0-87.113,16.533-120.533,49.6-33.421,33.067-50.133,73.421-50.133,121.067,0,17.997,2.573,35.106,7.71,51.328,5.141,16.213,12.446,31.134,21.909,44.757l118.562-118.571c6.187-6.178,13.683-9.267,22.485-9.267s16.299,3.089,22.485,9.267c6.178,6.187,9.267,13.683,9.267,22.485s-3.089,16.299-9.267,22.485l-118.571,118.558c13.623,9.468,28.51,16.768,44.659,21.914,16.158,5.141,33.301,7.71,51.426,7.71Z"/>
</svg>
