<?xml version="1.0" encoding="UTF-8"?>
<svg id="Ebene_1" data-name="Ebene 1" xmlns="http://www.w3.org/2000/svg" viewBox="0 0 1024 1024">
  <defs>
    <style>
      .cls-1 {
        fill: #2c2c2c;
      }
    </style>
  </defs>
  <path d="M511.387,874.667v-64h285.943c3.281,0,6.293-1.37,9.024-4.105,2.735-2.731,4.105-5.743,4.105-9.024V226.464c0-3.285-1.37-6.293-4.105-9.024-2.731-2.738-5.743-4.107-9.024-4.107h-285.943v-64h285.943c21.551,0,39.795,7.467,54.729,22.4,14.933,14.933,22.4,33.177,22.4,54.731v571.074c0,21.551-7.467,39.795-22.4,54.729s-33.178,22.4-54.729,22.4h-285.943ZM453.543,694.153l-44.311-46.281,103.874-103.872H149.541v-64h363.565l-103.874-103.872,44.311-46.283,182.144,182.155-182.144,182.153Z"/>
</svg>
