<?xml version="1.0" encoding="UTF-8"?>
<svg id="Ebene_1" data-name="Ebene 1" xmlns="http://www.w3.org/2000/svg" viewBox="0 0 1024 1024">
  <defs>
    <style>
      .cls-1 {
        fill: #2c2c2c;
      }
    </style>
  </defs>
  <path d="M517.205,321.303c106.398,0,194.214,87.819,194.214,194.212,0,108.087-87.817,194.214-194.214,194.214-108.084,0-194.213-86.127-194.213-194.214,0-106.394,86.129-194.212,194.213-194.212ZM517.205,642.18c69.244,0,124.971-55.731,124.971-126.665,0-69.239-55.727-124.971-124.971-124.971-70.929,0-126.66,55.731-126.66,124.971,0,70.933,57.421,126.665,126.66,126.665ZM763.772,314.548c0-25.332-20.267-45.598-45.598-45.598s-45.598,20.265-45.598,45.598,20.267,45.598,45.598,45.598,45.598-20.266,45.598-45.598ZM892.122,360.146c3.379,62.486,3.379,249.944,0,312.43-3.375,60.8-16.887,113.152-60.796,158.75-43.908,43.908-97.95,57.421-158.75,60.796-62.485,3.379-249.944,3.379-312.43,0-60.797-3.375-113.151-16.887-158.749-60.796-43.909-45.598-57.42-97.95-60.797-158.75-3.377-62.485-3.377-249.943,0-312.43,3.378-60.797,16.888-114.839,60.797-158.749,45.598-43.909,97.951-57.42,158.749-60.797,62.486-3.378,249.944-3.378,312.43,0,60.8,3.377,114.842,16.888,158.75,60.797,43.908,43.909,57.421,97.951,60.796,158.749ZM811.059,738.441c20.267-48.977,15.198-167.194,15.198-222.925,0-54.042,5.069-172.258-15.198-222.922-13.508-32.087-38.844-59.109-70.929-70.93-50.667-20.266-168.883-15.199-222.925-15.199-55.731,0-173.947-5.067-222.923,15.199-33.777,13.51-59.109,38.843-72.619,70.93-20.266,50.664-15.2,168.88-15.2,222.922,0,55.731-5.066,173.948,15.2,222.925,13.51,33.775,38.842,59.11,72.619,72.619,48.975,20.267,167.191,15.198,222.923,15.198,54.042,0,172.258,5.069,222.925-15.198,32.085-13.508,59.106-38.844,70.929-72.619Z"/>
</svg>
