<?xml version="1.0" encoding="UTF-8"?>
<svg id="Ebene_1" data-name="Ebene 1" xmlns="http://www.w3.org/2000/svg" viewBox="0 0 1024 1024">
  <defs>
    <style>
      .cls-1 {
        fill: #2c2c2c;
      }
    </style>
  </defs>
  <path d="M358.4,710.562l153.6-153.6,153.6,153.6,44.962-44.962-153.6-153.6,153.6-153.6-44.962-44.96-153.6,153.598-153.6-153.598-44.96,44.96,153.598,153.6-153.598,153.6,44.96,44.962ZM512.073,917.333c-56.064,0-108.759-10.637-158.089-31.915-49.33-21.278-92.238-50.15-128.725-86.622-36.487-36.476-65.376-79.364-86.667-128.674-21.283-49.31-31.925-101.99-31.925-158.05s10.638-108.759,31.915-158.089c21.277-49.33,50.151-92.238,86.624-128.725,36.473-36.487,79.363-65.376,128.672-86.667,49.309-21.283,101.99-31.925,158.05-31.925s108.757,10.638,158.089,31.915c49.331,21.277,92.237,50.151,128.725,86.624,36.489,36.473,65.378,79.363,86.669,128.672,21.282,49.309,31.923,101.99,31.923,158.05s-10.637,108.757-31.915,158.089c-21.278,49.331-50.15,92.237-86.622,128.725-36.476,36.489-79.364,65.378-128.674,86.669-49.31,21.282-101.99,31.923-158.05,31.923Z"/>
</svg>
