<?xml version="1.0" encoding="UTF-8"?>
<svg id="Ebene_1" data-name="Ebene 1" xmlns="http://www.w3.org/2000/svg" viewBox="0 0 1024 1024">
  <defs>
    <style>
      .cls-1 {
        fill: #009de0;
      }
    </style>
  </defs>
  <path d="M840.587,591.17c-.913-3.251-3.162-5.858-6.02-7.411-2.842-1.549-6.323-2.069-9.702-1.195l-105.963,27.622-.994.277-.845-.486-76.053-41.562-4.599-2.526,4.971-1.715,118.895-41.161c2.539-.87,4.634-2.47,6.123-4.476,1.468-2.022,2.317-4.48,2.317-7.066,0-2.543-.866-5.018-2.385-7.04-1.455-2.005-3.584-3.605-6.123-4.463l-118.724-40.576-4.971-1.715,4.599-2.526,75.695-41.627.896-.484.947.259,106.044,27.401c.576.145,1.148.256,1.673.32h.017c.512.068,1.084.098,1.66.098v.017c2.842,0,5.594-.939,7.795-2.539,2.146-1.585,3.802-3.833,4.582-6.55.913-3.251.354-6.565-1.289-9.283-1.621-2.703-4.326-4.835-7.74-5.71l-76.595-19.779-5.683-1.487,5.128-2.798,70.046-38.524v-.016l.034-.016c3.042-1.682,5.09-4.398,5.952-7.408.845-2.991.503-6.339-1.25-9.249l-.034-.033c-1.762-2.943-4.582-4.901-7.727-5.726-3.166-.808-6.682-.468-9.724,1.213l-.034-.015-70.033,38.505-5.12,2.799,1.54-5.452,20.676-73.197c.913-3.267.354-6.598-1.267-9.314v-.018c-1.626-2.684-4.344-4.835-7.744-5.708-3.413-.874-6.899-.339-9.741,1.23-2.837,1.55-5.069,4.156-5.986,7.423h-.03l-28.608,101.402-.273.922-.879.5-76.676,42.146-4.548,2.49.913-4.931,22.37-120.129h.017c.474-2.54.068-5.095-1.011-7.328-1.084-2.231-2.88-4.173-5.21-5.434-2.351-1.277-5.005-1.809-7.539-1.584-2.573.225-5.094,1.195-7.155,2.845v.033l-96.358,78.26-4.041,3.282v-89.872l.73-.678,77.641-74.264c2.505-2.409,3.75-5.531,3.75-8.669,0-3.122-1.246-6.26-3.75-8.635v-.017c-2.522-2.393-5.781-3.59-9.062-3.59-3.247,0-6.545,1.197-9.028,3.59v.017l-56.102,53.611-4.177,4.012v-82.967c0-3.363-1.438-6.419-3.767-8.635h.03c-2.321-2.216-5.542-3.606-9.079-3.606-3.516,0-6.711,1.39-9.037,3.606h-.013c-2.3,2.216-3.738,5.273-3.738,8.652v82.95l-4.194-4.012-56.055-53.611-.021-.017c-2.492-2.393-5.764-3.574-9.037-3.574s-6.549,1.181-9.037,3.574l-.017.017c-2.492,2.377-3.759,5.53-3.759,8.635,0,3.153,1.267,6.274,3.759,8.669l77.649,74.264.708.678v90.357l-4.015-3.235-97.316-78.369c-2.065-1.667-4.591-2.622-7.153-2.832-2.562-.209-5.209.292-7.533,1.602-2.335,1.277-4.117,3.217-5.19,5.449-1.092,2.25-1.472,4.804-.989,7.343l22.849,119.726.938,4.963-4.572-2.506-76.56-41.853-.845-.468-.28-.954-28.91-101.338v-.033h-.016c-.94-3.233-3.172-5.821-6.011-7.373-2.842-1.571-6.282-2.07-9.647-1.198h-.051v.017c-3.406.874-6.128,3.008-7.752,5.725-1.631,2.733-2.165,6.064-1.25,9.332l20.862,73.163,1.556,5.451-5.139-2.799-70.15-38.361c-3.053-1.664-6.569-2.006-9.714-1.181v-.015c-3.154.841-5.993,2.813-7.745,5.757h-.016c-1.75,2.929-2.097,6.292-1.226,9.283.862,3.041,2.943,5.741,6.001,7.424l70.141,38.328,5.123,2.799-5.713,1.504-76.492,19.942c-3.405.89-6.112,3.041-7.752,5.756-1.615,2.718-2.147,6.049-1.234,9.285l-.016.015c.777,2.668,2.443,4.933,4.591,6.499,2.179,1.604,4.919,2.509,7.768,2.509.592,0,1.166-.034,1.666-.098.591-.064,1.175-.179,1.733-.324l105.926-27.622.997-.274.87.484,76.044,41.565,4.599,2.522-4.989,1.715-118.833,41.161c-2.545.87-4.659,2.487-6.147,4.497-1.472,2.018-2.317,4.476-2.317,7.066,0,2.556.864,5.013,2.368,7.036,1.47,2.005,3.6,3.588,6.128,4.463h.016l118.717,40.559,5.005,1.715-4.623,2.526-75.697,41.626-.877.469-.973-.243-106.029-27.396-.067-.017h-.035v-.017c-3.405-.841-6.839-.307-9.646,1.229-2.814,1.557-5.021,4.143-5.935,7.394l-.016.064-.016.047c-.905,3.251-.348,6.532,1.276,9.233,1.63,2.718,4.362,4.855,7.777,5.743l76.542,19.763,5.715,1.489-5.125,2.812-70.064,38.528c-3.069,1.677-5.131,4.412-5.994,7.42-.845,3.042-.499,6.387,1.26,9.314,1.167,1.929,2.806,3.46,4.674,4.48,1.962,1.084,4.193,1.664,6.443,1.664,1.107,0,2.215-.141,3.288-.418,1.04-.26,2.097-.661,3.086-1.216l70.05-38.502,5.122-2.816-1.539,5.449-20.669,73.216c-.922,3.285-.38,6.613,1.26,9.331,1.614,2.701,4.343,4.838,7.777,5.713v.013c.499.128,1.057.209,1.656.307h.018c.522.064,1.074.098,1.663.098,2.858,0,5.615-.922,7.813-2.526,2.146-1.583,3.786-3.832,4.548-6.515l28.64-101.385.253-.96.887-.465,76.678-42.146,4.556-2.505-.912,4.932-22.371,120.111c-.471,2.556-.091,5.128.998,7.36h-.016c1.09,2.231,2.908,4.156,5.233,5.448,1.008.521,2.039.943,3.077,1.199,1.075.273,2.18.418,3.306.418,1.498,0,3.001-.243,4.403-.742,1.405-.486,2.716-1.212,3.889-2.15h-.016l96.375-78.306,4.028-3.268v89.822l-.708.678-77.649,74.283v.017c-2.492,2.394-3.759,5.547-3.759,8.666s1.267,6.259,3.759,8.657c1.229,1.165,2.667,2.069,4.151,2.65,1.54.614,3.221.939,4.902.939s3.358-.324,4.898-.939h.017c1.489-.58,2.889-1.472,4.143-2.637l56.055-53.658,4.19-4.015v82.953c0,3.375,1.442,6.451,3.755,8.666,2.308,2.219,5.521,3.593,9.037,3.593,3.554,0,6.758-1.374,9.079-3.593,2.3-2.197,3.738-5.269,3.738-8.666v-82.97l4.177,4.028,56.102,53.628-.038.017c1.25,1.165,2.654,2.052,4.143,2.637h.017c1.557.614,3.247.939,4.919.939s3.332-.324,4.907-.939c1.489-.563,2.893-1.472,4.143-2.654,2.505-2.389,3.75-5.53,3.75-8.649,0-3.14-1.246-6.276-3.75-8.67v-.017l-77.641-74.266-.73-.695v-90.342l4.041,3.255,97.289,78.34c2.061,1.664,4.565,2.615,7.134,2.829,2.586.226,5.244-.307,7.573-1.587,2.334-1.293,4.13-3.234,5.193-5.466v-.017c1.067-2.214,1.434-4.787.947-7.309v-.017l-22.81-119.723-.947-4.932,4.57,2.47,76.57,41.873.866.465.269.943,28.881,101.333c.777,2.688,2.432,4.932,4.561,6.502,2.202,1.6,4.937,2.522,7.778,2.522.576,0,1.169-.03,1.728-.098.542-.064,1.114-.175,1.673-.337v.017c3.413-.909,6.135-3.042,7.761-5.76v-.013c1.604-2.718,2.163-6.033,1.216-9.271l-20.83-73.195-1.553-5.449,5.103,2.812,70.153,38.332c.964.533,2.01.951,3.042,1.212v.017c1.067.26,2.18.401,3.298.401,2.249,0,4.497-.58,6.455-1.681,1.894-1.02,3.52-2.556,4.668-4.476v-.017c1.758-2.948,2.095-6.31,1.25-9.301h-.017c-.862-3.008-2.923-5.726-5.999-7.407v-.017l-70.135-38.31-5.141-2.799,5.7-1.489,76.506-19.942c3.413-.905,6.118-3.038,7.761-5.773v-.017c1.621-2.714,2.18-6.029,1.233-9.28ZM711.649,513.799l-103.339,35.789-1.079.358-.981-.533-64.777-35.418-3.703-2.039,3.703-2.035,64.858-35.648.998-.533,1.05.358,103.253,35.268,6.426,2.219-6.409,2.214ZM613.468,347.515l-19.409,104.281-.188,1.067-1.016.55-64.384,35.383-3.669,2.005v-76.722l.879-.712,83.776-68.055,5.205-4.219-1.195,6.421ZM413.804,345.703l84.507,68.103.883.694v76.417l-3.669-2.005-64.67-35.371-.981-.533-.213-1.084-19.822-104.021-1.225-6.372,5.19,4.172ZM312.351,510.193l103.336-35.789,1.058-.371.99.533,64.789,35.401,3.721,2.035-3.703,2.044-64.875,35.657-.99.55-1.054-.371-103.255-35.29-6.426-2.202,6.41-2.197ZM410.533,676.495l19.426-104.311.201-1.067.99-.55,64.375-35.388,3.669-2.018v76.719l-.87.717-83.793,68.083-5.19,4.203,1.193-6.387ZM610.204,678.257l-84.523-68.07-.879-.708v-76.386l3.669,2.005,64.687,35.354.981.55.201,1.084,19.853,103.974,1.216,6.37-5.205-4.173Z"/>
</svg>
