<?xml version="1.0" encoding="UTF-8"?>
<svg id="Ebene_1" data-name="Ebene 1" xmlns="http://www.w3.org/2000/svg" viewBox="0 0 1024 1024">
  <path d="M676.39,520.41c2.684,2.676,4.81,5.853,6.261,9.352,1.452,3.499,2.2,7.25,2.2,11.038s-.749,7.539-2.2,11.038c-1.452,3.499-3.577,6.677-6.261,9.352l-172.8,172.8c-2.676,2.684-5.853,4.81-9.353,6.261-3.499,1.452-7.25,2.2-11.038,2.2s-7.539-.749-11.038-2.2c-3.499-1.452-6.677-3.577-9.353-6.261l-86.4-86.4c-2.678-2.678-4.802-5.858-6.251-9.354-1.449-3.502-2.195-7.252-2.195-11.036s.746-7.536,2.195-11.035c1.449-3.499,3.573-6.678,6.251-9.355,5.408-5.408,12.742-8.446,20.39-8.446,3.787,0,7.536.746,11.035,2.195,3.499,1.449,6.678,3.573,9.355,6.251l66.01,66.067,152.41-152.467c2.673-2.682,5.852-4.81,9.354-6.262,3.496-1.452,7.246-2.199,11.036-2.199s7.54.747,11.036,2.199c3.502,1.452,6.682,3.58,9.354,6.262ZM252.8,51.2c7.638,0,14.964,3.034,20.364,8.435,5.401,5.401,8.436,12.726,8.436,20.365v28.8h460.8v-28.8c0-7.638,3.036-14.964,8.433-20.365,5.403-5.401,12.73-8.435,20.367-8.435s14.964,3.034,20.367,8.435c5.397,5.401,8.433,12.726,8.433,20.365v28.8h57.6c30.551,0,59.852,12.137,81.458,33.742,21.606,21.604,33.742,50.906,33.742,81.458v633.6c0,30.551-12.136,59.852-33.742,81.458-21.606,21.606-50.907,33.742-81.458,33.742H166.4c-30.553,0-59.855-12.136-81.459-33.742-21.604-21.606-33.741-50.907-33.741-81.458V224c0-30.553,12.137-59.854,33.741-81.458,21.604-21.605,50.906-33.742,81.459-33.742h57.6v-28.8c0-7.638,3.034-14.964,8.436-20.365,5.401-5.401,12.726-8.435,20.364-8.435ZM166.4,166.4c-15.277,0-29.927,6.069-40.73,16.87-10.802,10.802-16.87,25.453-16.87,40.73v633.6c0,15.276,6.069,29.929,16.87,40.729,10.802,10.8,25.453,16.871,40.73,16.871h691.2c15.276,0,29.929-6.071,40.729-16.871,10.8-10.8,16.871-25.453,16.871-40.729V224c0-15.277-6.071-29.927-16.871-40.73-10.8-10.802-25.453-16.87-40.729-16.87H166.4ZM195.2,281.6c0-7.638,3.034-14.964,8.436-20.364,5.401-5.401,12.726-8.436,20.364-8.436h576c7.638,0,14.964,3.034,20.367,8.436,5.397,5.401,8.433,12.726,8.433,20.364v57.6c0,7.638-3.036,14.964-8.433,20.364-5.403,5.401-12.73,8.436-20.367,8.436H224c-7.638,0-14.964-3.034-20.364-8.436-5.401-5.401-8.436-12.726-8.436-20.364v-57.6Z"/>
</svg>