<?xml version="1.0" encoding="UTF-8"?>
<svg id="Ebene_1" data-name="Ebene 1" xmlns="http://www.w3.org/2000/svg" viewBox="0 0 1024 1024">
  <defs>
    <style>
      .cls-1 {
        fill: #2c2c2c;
      }
    </style>
  </defs>
  <path d="M64,789.333V192h64v405.333h352v-320h330.667c41.067,0,76.22,14.624,105.463,43.872,29.244,29.241,43.87,64.395,43.87,105.461v362.667h-64v-128H128v128h-64ZM298.613,535.795c-30.322,0-56.082-10.615-77.28-31.846-21.198-21.227-31.797-47.006-31.797-77.335s10.617-56.082,31.851-77.28c21.227-21.198,47.005-31.797,77.333-31.797s56.082,10.617,77.28,31.851c21.198,21.227,31.797,47.005,31.797,77.331s-10.617,56.085-31.851,77.282c-21.227,21.197-47.005,31.795-77.333,31.795Z"/>
</svg>
