<?xml version="1.0" encoding="UTF-8"?>
<svg id="Ebene_1" data-name="Ebene 1" xmlns="http://www.w3.org/2000/svg" viewBox="0 0 1024 1024">
  <path d="M166.4,627.2h172.8c15.277,0,29.927,6.071,40.73,16.871,10.802,10.8,16.87,25.453,16.87,40.729v172.8c0,15.276-6.069,29.929-16.87,40.729-10.802,10.8-25.453,16.871-40.73,16.871h-172.8c-15.277,0-29.927-6.071-40.73-16.871-10.802-10.8-16.87-25.453-16.87-40.729v-172.8c0-15.276,6.069-29.929,16.87-40.729,10.802-10.8,25.453-16.871,40.73-16.871ZM684.8,108.8h172.8c15.276,0,29.929,6.069,40.729,16.87,10.8,10.802,16.871,25.453,16.871,40.73v172.8c0,15.277-6.071,29.927-16.871,40.73-10.8,10.802-25.453,16.87-40.729,16.87h-172.8c-15.276,0-29.929-6.069-40.729-16.87-10.8-10.802-16.871-25.453-16.871-40.73v-172.8c0-15.277,6.071-29.927,16.871-40.73,10.8-10.802,25.453-16.87,40.729-16.87ZM684.8,627.2c-15.276,0-29.929,6.071-40.729,16.871-10.8,10.8-16.871,25.453-16.871,40.729v172.8c0,15.276,6.071,29.929,16.871,40.729,10.8,10.8,25.453,16.871,40.729,16.871h172.8c15.276,0,29.929-6.071,40.729-16.871,10.8-10.8,16.871-25.453,16.871-40.729v-172.8c0-15.276-6.071-29.929-16.871-40.729-10.8-10.8-25.453-16.871-40.729-16.871h-172.8ZM684.8,51.2c-30.551,0-59.854,12.137-81.459,33.741-21.605,21.604-33.741,50.906-33.741,81.459v172.8c0,30.553,12.137,59.854,33.741,81.458,21.604,21.605,50.907,33.742,81.459,33.742h172.8c30.551,0,59.852-12.137,81.458-33.742,21.606-21.604,33.742-50.906,33.742-81.458v-172.8c0-30.553-12.136-59.855-33.742-81.459-21.606-21.604-50.907-33.741-81.458-33.741h-172.8ZM166.4,569.6c-30.553,0-59.855,12.137-81.459,33.741-21.604,21.604-33.741,50.907-33.741,81.459v172.8c0,30.551,12.137,59.852,33.741,81.458,21.604,21.606,50.906,33.742,81.459,33.742h172.8c30.553,0,59.854-12.136,81.458-33.742,21.605-21.606,33.742-50.907,33.742-81.458v-172.8c0-30.551-12.137-59.854-33.742-81.459-21.604-21.605-50.906-33.741-81.458-33.741h-172.8ZM569.6,684.8c0-30.551,12.137-59.854,33.741-81.459,21.604-21.605,50.907-33.741,81.459-33.741h172.8c30.551,0,59.852,12.137,81.458,33.741,21.606,21.604,33.742,50.907,33.742,81.459v172.8c0,30.551-12.136,59.852-33.742,81.458-21.606,21.606-50.907,33.742-81.458,33.742h-172.8c-30.551,0-59.854-12.136-81.459-33.742-21.605-21.606-33.741-50.907-33.741-81.458v-172.8ZM51.2,166.4c0-30.553,12.137-59.855,33.741-81.459,21.604-21.604,50.906-33.741,81.459-33.741h172.8c30.553,0,59.854,12.137,81.458,33.741,21.605,21.604,33.742,50.906,33.742,81.459v172.8c0,30.553-12.137,59.854-33.742,81.458-21.604,21.605-50.906,33.742-81.458,33.742h-172.8c-30.553,0-59.855-12.137-81.459-33.742-21.604-21.604-33.741-50.906-33.741-81.458v-172.8ZM359.59,215.59c2.678-2.678,4.802-5.857,6.251-9.355,1.449-3.499,2.195-7.248,2.195-11.035s-.746-7.536-2.195-11.035c-1.449-3.499-3.573-6.678-6.251-9.355-2.678-2.678-5.857-4.802-9.355-6.251-3.499-1.449-7.248-2.195-11.035-2.195s-7.536.746-11.035,2.195c-3.499,1.449-6.678,3.573-9.355,6.251l-94.81,94.867-37.21-37.267c-2.678-2.678-5.857-4.802-9.355-6.251-3.499-1.449-7.248-2.195-11.035-2.195s-7.536.746-11.035,2.195c-3.499,1.449-6.678,3.573-9.355,6.251-2.678,2.678-4.802,5.857-6.251,9.355-1.449,3.499-2.195,7.248-2.195,11.035s.746,7.536,2.195,11.035c1.449,3.499,3.573,6.678,6.251,9.355l57.6,57.6c2.676,2.682,5.853,4.81,9.353,6.262,3.499,1.452,7.25,2.199,11.038,2.199s7.539-.747,11.038-2.199c3.499-1.452,6.677-3.58,9.353-6.262l115.2-115.2Z"/>
</svg>