<?xml version="1.0" encoding="UTF-8"?>
<svg id="Ebene_1" data-name="Ebene 1" xmlns="http://www.w3.org/2000/svg" viewBox="0 0 1024 1024">
  <defs>
    <style>
      .cls-1 {
        fill: #2c2c2c;
      }
    </style>
  </defs>
  <path d="M770.255,878.745l-44.557-44.557,77.461-78.933h-192.905v-64h192.905l-77.461-78.933,44.557-44.553,155.49,155.486-155.49,155.49ZM445.988,496.793l292.267-188.066c0-.818-.205-4.661-.619-11.531-.405-6.862-.947-14.205-1.63-22.027-.691-7.822-1.378-15.029-2.061-21.621-.683-6.592-1.434-10.023-2.253-10.293h-6.566l-279.138,178.549L174.724,243.255h-5.909c-.818.27-1.568,3.701-2.251,10.293-.683,6.592-1.369,13.909-2.059,21.952-.683,8.043-1.227,15.605-1.632,22.688-.413,7.083-.619,11.033-.619,11.851l283.733,186.754ZM172.1,755.255c-20.402,0-37.81-7.206-52.224-21.623-14.414-14.413-21.621-31.821-21.621-52.224V253.1c0-20.402,7.207-37.81,21.621-52.224,14.414-14.414,31.822-21.621,52.224-21.621h556.311c20.399,0,37.807,7.207,52.22,21.621,14.417,14.414,21.623,31.822,21.623,52.224v227.445c-6.293-.875-12.582-1.527-18.867-1.963-6.293-.439-12.591-.661-18.884-.661-65.306,0-121.562,23.428-168.764,70.285-47.211,46.844-70.818,103.279-70.818,169.297,0,6.293.222,12.587.661,18.88.435,6.289,1.088,12.578,1.963,18.872H172.1Z"/>
</svg>
