<?xml version="1.0" encoding="UTF-8"?>
<svg id="Ebene_1" data-name="Ebene 1" xmlns="http://www.w3.org/2000/svg" viewBox="0 0 1024 1024">
  <defs>
    <style>
      .cls-1 {
        fill: #2c2c2c;
      }
    </style>
  </defs>
  <path d="M76.725,823.795v-94.857c0-21.986,5.675-41.613,17.024-58.871,11.349-17.259,26.507-30.682,45.472-40.277,40.547-19.831,81.319-35.123,122.315-45.875,41.003-10.743,86.062-16.119,135.179-16.119s94.182,5.376,135.177,16.119c41.003,10.752,81.779,26.044,122.33,45.875,18.965,9.596,34.121,23.019,45.47,40.277,11.349,17.259,17.024,36.885,17.024,58.871v94.857H76.725ZM802.048,823.795v-100.104c0-28.002-6.857-54.694-20.565-80.077-13.717-25.37-33.173-47.142-58.368-65.31,28.608,4.267,55.77,10.867,81.481,19.806,25.711,8.947,50.24,19.52,73.604,31.714,22.042,11.763,39.066,25.626,51.072,41.587,12.002,15.957,18.001,33.387,18.001,52.279v100.104h-145.225ZM396.715,498.867c-41.067,0-76.221-14.618-105.461-43.861-29.241-29.246-43.861-64.403-43.861-105.47s14.621-76.221,43.861-105.461c29.241-29.248,64.395-43.872,105.461-43.872s76.224,14.624,105.472,43.872c29.239,29.241,43.861,64.395,43.861,105.461s-14.622,76.224-43.861,105.47c-29.248,29.244-64.405,43.861-105.472,43.861ZM765.12,349.536c0,41.067-14.622,76.224-43.861,105.47-29.239,29.244-64.392,43.861-105.463,43.861-4.813,0-10.94-.546-18.377-1.643-7.445-1.092-13.572-2.295-18.381-3.605,16.828-20.228,29.76-42.671,38.797-67.326,9.033-24.655,13.547-50.255,13.547-76.8s-4.608-52.057-13.824-76.512c-9.216-24.448-22.054-46.954-38.519-67.52,6.123-2.19,12.25-3.613,18.381-4.267,6.123-.661,12.25-.992,18.377-.992,41.071,0,76.224,14.624,105.463,43.872,29.24,29.241,43.861,64.395,43.861,105.461Z"/>
</svg>
