<?xml version="1.0" encoding="UTF-8"?>
<svg id="Ebene_1" data-name="Ebene 1" xmlns="http://www.w3.org/2000/svg" viewBox="0 0 1024 1024">
  <defs>
    <style>
      .cls-1 {
        fill: #2c2c2c;
      }
    </style>
  </defs>
  <path d="M894.53,605.952l-288.247,288.247c-7.753,7.706-16.474,13.491-26.167,17.353-9.69,3.853-19.354,5.781-28.988,5.781s-19.29-1.929-28.932-5.781c-9.643-3.861-18.317-9.647-26.022-17.353l-366.69-366.285c-7.275-6.997-12.843-15.211-16.704-24.64-3.854-9.429-5.781-19.349-5.781-29.76V184.203c0-21.319,7.534-39.573,22.603-54.763,15.075-15.182,33.387-22.773,54.933-22.773h289.312c10.304,0,20.284,2.091,29.943,6.272,9.66,4.174,18.035,9.795,25.118,16.864l365.623,366.283c7.812,7.753,13.513,16.469,17.097,26.155,3.584,9.694,5.376,19.409,5.376,29.154s-1.792,19.319-5.376,28.736c-3.584,9.421-9.284,18.027-17.097,25.822ZM278.731,331.893c14.877,0,27.513-5.184,37.909-15.552,10.389-10.368,15.584-22.962,15.584-37.781,0-14.926-5.184-27.613-15.552-38.059-10.368-10.453-22.962-15.68-37.781-15.68-14.926,0-27.613,5.209-38.059,15.627-10.453,10.418-15.68,23.069-15.68,37.952s5.209,27.513,15.627,37.909c10.418,10.389,23.069,15.584,37.952,15.584Z"/>
</svg>
