<?xml version="1.0" encoding="utf-8"?>
<!-- Generator: Adobe Illustrator 16.0.0, SVG Export Plug-In . SVG Version: 6.00 Build 0)  -->
<!DOCTYPE svg PUBLIC "-//W3C//DTD SVG 1.1//EN" "http://www.w3.org/Graphics/SVG/1.1/DTD/svg11.dtd">
<svg version="1.1" xmlns="http://www.w3.org/2000/svg" xmlns:xlink="http://www.w3.org/1999/xlink" x="0px" y="0px" width="1024px"
	 height="1024px" viewBox="0 0 1024 1024" enable-background="new 0 0 1024 1024" xml:space="preserve">
<g id="Ebene_1">
</g>
<g id="Ebene_2">
	<g>
		<path fill="currentColor" d="M656.58,452.73h184.43v224.593c-1.32,46.106-17.455,84.521-48.434,115.269
			c-30.947,30.719-69.704,46.797-116.242,48.089H346.978c-46.108-1.292-84.636-17.37-115.583-48.089
			c-30.95-30.747-47.083-69.162-48.405-115.269V452.73h191.033c-10.135,20.641-15.159,42.803-15.159,66.518
			c1.292,43.927,16.536,80.474,45.763,109.67c29.197,29.227,65.975,44.474,110.36,45.766c44.326-1.292,81.074-16.539,110.301-45.766
			c29.227-29.196,44.471-65.743,45.792-109.67C671.079,495.533,666.229,473.371,656.58,452.73 M742.879,282.77
			c0-5.255-1.779-9.648-5.279-13.178c-3.505-3.476-7.925-5.255-13.207-5.255h-55.985c-5.224,0-9.646,1.78-13.148,5.255
			c-3.529,3.53-5.281,7.922-5.281,13.178v56.01c0,5.255,1.752,9.677,5.281,13.18c3.503,3.503,7.925,5.253,13.148,5.253h55.985
			c5.282,0,9.702-1.75,13.207-5.253c3.5-3.502,5.279-7.924,5.279-13.18V282.77z M792.576,231.408
			c30.979,30.747,47.113,69.161,48.434,115.269v45.446H605.192c-12.749-8.785-26.789-15.673-42.146-20.758
			c-15.391-5.05-31.41-7.576-48.061-7.576c-16.71,0-32.729,2.525-48.118,7.576c-15.388,5.085-29.429,11.974-42.146,20.758H182.989
			v-45.446c1.321-46.108,17.455-84.522,48.405-115.269c30.947-30.719,69.475-46.768,115.583-48.088h329.356
			C722.872,184.64,761.629,200.688,792.576,231.408 M561.062,565.04c-12.285,12.059-27.646,18.089-46.076,18.089
			c-18.489,0-33.734-6.03-45.822-18.089c-12.059-12.088-18.113-27.362-18.113-45.792c0-18.43,6.055-33.675,18.113-45.763
			c12.088-12.088,27.333-18.116,45.822-18.116c18.43,0,33.791,6.028,46.076,18.116c12.29,12.088,18.691,27.333,19.094,45.763
			C579.754,537.678,573.353,552.952,561.062,565.04"/>
	</g>
</g>
</svg>
