<?xml version="1.0" encoding="utf-8"?>
<!-- Generator: Adobe Illustrator 16.0.0, SVG Export Plug-In . SVG Version: 6.00 Build 0)  -->
<!DOCTYPE svg PUBLIC "-//W3C//DTD SVG 1.1//EN" "http://www.w3.org/Graphics/SVG/1.1/DTD/svg11.dtd">
<svg version="1.1" xmlns="http://www.w3.org/2000/svg" xmlns:xlink="http://www.w3.org/1999/xlink" x="0px" y="0px" width="1024px"
	 height="1024px" viewBox="0 0 1024 1024" enable-background="new 0 0 1024 1024" xml:space="preserve">
<g id="Ebene_1">
</g>
<g id="Ebene_2">
	<g>
		<path fill="currentColor" d="M511.986,854.749l-8.729-4.117l-90.591-42.788l-108.06,51.032V503.734l99.329-46.925l8.73-4.125
			l8.729,4.125l86.006,40.634c-19.542-37.683-43.787-73.336-65.237-104.129c-17.11-24.614-26.071-53.481-25.934-83.482
			c0.399-76.746,63.044-141.607,139.647-144.574c40.111-1.696,77.836,12.831,106.592,40.496
			c28.773,27.682,44.613,64.904,44.613,104.82c0,30.299-9.258,59.321-26.77,83.942c-15.543,21.85-31.451,44.928-45.857,69.106
			l84.938,40.112v355.142l-108.051-51.032l-90.625,42.788L511.986,854.749z M520.717,524.186v307.137l81.895-38.664V524.204
			l-40.938,82.942L520.717,524.186z M322.066,721.207v110.115l81.869-38.664V476.12l-81.869,38.679V721.207z M620.072,792.658
			l81.861,38.664V514.799l-76.227-36.002c-2.07,3.725-4.1,7.485-6.078,11.253h0.443V792.658z M421.395,792.658l81.862,38.664
			V514.799l-81.862-38.679V792.658z M561.689,182.607c-1.705,0-3.418,0.025-5.131,0.094
			c-67.402,2.617-122.52,59.686-122.869,127.215c-0.12,26.394,7.757,51.783,22.806,73.429c23.47,33.676,50.257,73.14,71.007,115.145
			l34.171,69.218l37.188-75.348c19.131-38.722,43.615-74.777,67.23-107.975c15.389-21.637,23.531-47.162,23.531-73.812
			c0-35.125-13.939-67.88-39.252-92.237C626.305,195.182,594.982,182.607,561.689,182.607z"/>
		<path fill="currentColor" d="M563.82,389.893c-44.621,0-80.922-36.3-80.922-80.922c0-44.614,36.301-80.906,80.922-80.906
			c44.605,0,80.891,36.292,80.891,80.906C644.711,353.592,608.426,389.893,563.82,389.893z M563.82,245.524
			c-34.996,0-63.462,28.458-63.462,63.447c0,34.997,28.466,63.463,63.462,63.463c34.971,0,63.432-28.466,63.432-63.463
			C627.252,273.982,598.791,245.524,563.82,245.524z"/>
	</g>
</g>
</svg>
