<?xml version="1.0" encoding="utf-8"?>
<!-- Generator: Adobe Illustrator 23.0.1, SVG Export Plug-In . SVG Version: 6.00 Build 0)  -->
<svg version="1.1" id="Ebene_1" xmlns="http://www.w3.org/2000/svg" xmlns:xlink="http://www.w3.org/1999/xlink" x="0px" y="0px"
	 viewBox="0 0 1024 1024" style="enable-background:new 0 0 1024 1024;" xml:space="preserve">
<style type="text/css">
	.st0{stroke:#1D1D1B;stroke-width:0.969;stroke-miterlimit:10;}
</style>
<g id="Ebene_1_1_">
</g>
<path d="M389.9,171.9l-6.6-9.6L389.9,171.9L389.9,171.9z M389.3,500.1h-40.7c-26.7,0-48.4-21.7-48.4-48.3V342
	c0-67.8,33.3-131.2,89.1-169.8V500.1z M389.3,833.5c0.4,7.4-2.2,14.5-7.4,19.9c-5.1,5.4-12.1,8.4-19.6,8.4h-11.8
	c-7.5,0-14.4-3-19.6-8.4c-5.2-5.4-7.8-12.5-7.4-19.9l15.9-310.7c3,0.4,6.1,0.6,9.2,0.6h40.7l0,309.5
	C389.2,833.1,389.2,833.3,389.3,833.5z M400.4,151.3c-7.6-4-16.7-3.4-23.7,1.4c-62.5,42.9-99.8,113.7-99.8,189.4v109.8
	c0,27.9,16.1,52.2,39.6,64l-16.2,316.5c-0.7,13.9,4.2,27.1,13.8,37.2c9.6,10.1,22.6,15.6,36.5,15.6h11.8c13.9,0,26.9-5.6,36.5-15.6
	c9.5-10,14.4-23.1,13.8-36.9l0-320.6c0-0.1,0-0.2,0-0.3V171.6C412.7,163,407.9,155.2,400.4,151.3z"/>
<path class="st0" d="M725.6,328.6c0,53.1-43.3,96.3-96.5,96.3c-53.2,0-96.5-43.2-96.5-96.3V171.3c0-5.3,4.3-9.5,9.5-9.5
	c5.3,0,9.6,4.3,9.6,9.5v120.6c0,18.7,15.2,33.9,33.9,33.9c18.7,0,33.9-15.2,33.9-33.9V171.3c0-5.3,4.3-9.5,9.5-9.5
	c5.3,0,9.5,4.3,9.5,9.5v120.6c0,18.7,15.2,33.9,33.9,33.9c18.7,0,33.9-15.2,33.9-33.9V171.3c0-5.3,4.3-9.5,9.5-9.5
	c5.3,0,9.5,4.3,9.5,9.5V328.6z M662.5,853.4c-5.2,5.4-12.1,8.4-19.6,8.4h-27.6c-7.5,0-14.4-3-19.6-8.4c-5.1-5.4-7.8-12.5-7.4-19.9
	l19.8-387.2c6.8,1.2,13.8,1.9,21,1.9c7.2,0,14.2-0.7,21-1.9l19.8,387.2C670.2,840.9,667.6,848,662.5,853.4z M716.1,138.4
	c-18.1,0-32.9,14.7-32.9,32.8v120.6c0,5.8-4.8,10.6-10.6,10.6c-5.8,0-10.6-4.7-10.6-10.6V171.3c0-18.1-14.8-32.8-32.9-32.8
	c-18.1,0-32.9,14.7-32.9,32.8v120.6c0,5.8-4.7,10.6-10.6,10.6s-10.6-4.7-10.6-10.6V171.3c0-18.1-14.8-32.8-32.9-32.8
	c-18.1,0-32.9,14.7-32.9,32.8v157.3c0,50.4,31.5,93.7,75.9,111.2L565,832.3c-0.7,13.9,4.2,27.1,13.8,37.2
	c9.6,10.1,22.6,15.6,36.5,15.6h27.6c13.9,0,26.9-5.6,36.5-15.6c9.6-10.1,14.5-23.3,13.8-37.2l-20.1-392.5
	C717.5,422.2,749,379,749,328.6V171.3C749,153.2,734.2,138.4,716.1,138.4z"/>
</svg>
