<?xml version="1.0" encoding="utf-8"?>
<!-- Generator: Adobe Illustrator 16.0.0, SVG Export Plug-In . SVG Version: 6.00 Build 0)  -->
<!DOCTYPE svg PUBLIC "-//W3C//DTD SVG 1.1//EN" "http://www.w3.org/Graphics/SVG/1.1/DTD/svg11.dtd">
<svg version="1.1" xmlns="http://www.w3.org/2000/svg" xmlns:xlink="http://www.w3.org/1999/xlink" x="0px" y="0px" width="1024px"
	 height="1024px" viewBox="0 0 1024 1024" enable-background="new 0 0 1024 1024" xml:space="preserve">
<g id="Ebene_1">
</g>
<g id="Ebene_2">
	<g>
		<path fill="currentColor" d="M654.949,508.729l200.595-197.781v405.877L654.949,508.729z M385.935,526.771l99.236,97.808
			c7.19,7.122,16.658,10.675,26.127,10.675c9.467,0,18.914-3.553,26.126-10.675l100.041-98.589l197.4,204.769H189.181
			L385.935,526.771z M368.427,509.532L168.436,716.825V312.376L368.427,509.532z M520.185,607.095
			c-4.912,4.823-12.862,4.823-17.775,0L184.022,293.24h654.505L520.185,607.095z M843.262,268.654H180.741
			c-20.321,0-36.869,16.525-36.869,36.846v412.957c0,20.321,16.548,36.891,36.869,36.891h662.521
			c20.343,0,36.867-16.569,36.867-36.891V305.5C880.129,285.179,863.604,268.654,843.262,268.654"/>
	</g>
</g>
</svg>
