<?xml version="1.0" encoding="utf-8"?>
<!-- Generator: Adobe Illustrator 16.0.0, SVG Export Plug-In . SVG Version: 6.00 Build 0)  -->
<!DOCTYPE svg PUBLIC "-//W3C//DTD SVG 1.1//EN" "http://www.w3.org/Graphics/SVG/1.1/DTD/svg11.dtd">
<svg version="1.1" xmlns="http://www.w3.org/2000/svg" xmlns:xlink="http://www.w3.org/1999/xlink" x="0px" y="0px" width="1024px"
	 height="1024px" viewBox="0 0 1024 1024" enable-background="new 0 0 1024 1024" xml:space="preserve">
<g id="Ebene_1">
</g>
<g id="Ebene_2">
	<g>
		<path fill="currentColor" d="M485.663,681.279c-82.415,0-149.424-67.033-149.424-149.448c0-82.389,67.009-149.422,149.424-149.422
			c82.413,0,149.47,67.033,149.47,149.422C635.133,614.246,568.076,681.279,485.663,681.279 M856.955,430.747
			c-21.604-92.12-77.812-170.338-158.271-220.201C532.616,107.6,313.775,158.941,210.854,325.009
			c-49.888,80.46-65.435,175.512-43.83,267.656c21.653,92.143,77.86,170.337,158.318,220.199
			c57.875,35.891,122.548,53.68,186.98,53.68c74.927,0,149.544-24.037,212.784-71.636l-15.762-20.961
			c-108.979,81.961-254.254,88.495-370.196,16.621C264.652,744.4,212.618,671.955,192.587,586.68
			c-20.031-85.323-5.628-173.366,40.587-247.84c95.268-153.763,297.941-201.289,451.704-105.975
			c74.448,46.145,126.53,118.568,146.562,203.866c19.458,82.986,6.367,168.477-36.82,241.615H691.984
			c-16.885,0-30.619-13.76-30.619-30.619V357.632h-26.232v82.294c-30.976-50.173-86.301-83.773-149.47-83.773
			c-96.865,0-175.678,78.814-175.678,175.678c0,96.866,78.813,175.679,175.678,175.679c63.169,0,118.494-33.623,149.47-83.773v23.99
			c0,31.334,25.517,56.874,56.852,56.874h117.326l3.862-6.224C863.012,617.919,878.607,522.889,856.955,430.747"/>
	</g>
</g>
</svg>
