<?xml version="1.0" encoding="utf-8"?>
<!-- Generator: Adobe Illustrator 16.0.0, SVG Export Plug-In . SVG Version: 6.00 Build 0)  -->
<!DOCTYPE svg PUBLIC "-//W3C//DTD SVG 1.1//EN" "http://www.w3.org/Graphics/SVG/1.1/DTD/svg11.dtd">
<svg version="1.1" id="Ebene_1" xmlns="http://www.w3.org/2000/svg" xmlns:xlink="http://www.w3.org/1999/xlink" x="0px" y="0px"
	 width="1024px" height="1024px" viewBox="0 0 1024 1024" enable-background="new 0 0 1024 1024" xml:space="preserve">
<path d="M633.484,323.073l-217.609-115.65l-17.297,9.159c9.27,18.735,14.513,39.814,14.513,62.1c0,16.017-6.091,36.088-15.091,57.76
	v369.786l-182,96.766V456.519c-12-16.938-24-35.957-36-55.481v461.184l235.522-125.14L633.37,852.755L869,727.615V197.957
	L633.484,323.073z M615,802.993l-181-96.766V257.185l181,96.743V802.993z M833,706.228l-182,96.766V353.928l182-96.743V706.228z"/>
<path d="M272.392,161.78c-64.466,0-116.9,52.436-116.9,116.902c0,50.594,77.251,163.265,116.9,215.745
	c39.65-52.48,116.9-165.15,116.9-215.745C389.292,214.215,336.857,161.78,272.392,161.78z M272.392,341.24
	c-34.556,0-62.559-28.004-62.559-62.558c0-34.556,28.003-62.56,62.559-62.56s62.558,28.004,62.558,62.56
	C334.95,313.236,306.947,341.24,272.392,341.24z"/>
</svg>
