<?xml version="1.0" encoding="utf-8"?>
<!-- Generator: Adobe Illustrator 16.0.0, SVG Export Plug-In . SVG Version: 6.00 Build 0)  -->
<!DOCTYPE svg PUBLIC "-//W3C//DTD SVG 1.1//EN" "http://www.w3.org/Graphics/SVG/1.1/DTD/svg11.dtd">
<svg version="1.1" xmlns="http://www.w3.org/2000/svg" xmlns:xlink="http://www.w3.org/1999/xlink" x="0px" y="0px" width="1024px"
	 height="1024px" viewBox="0 0 1024 1024" enable-background="new 0 0 1024 1024" xml:space="preserve">
<g id="Ebene_1">
</g>
<g id="Ebene_2">
	<g>
		<path fill="currentColor" d="M427.651,325.656c23.516-25.048,51.626-36.829,84.35-35.275c32.701,1.554,60.832,13.289,84.35,35.275
			c23.516,21.986,35.297,50.118,35.297,84.373c0,34.255-11.781,62.619-35.297,85.114c-23.518,22.521-51.648,33.999-84.35,34.509
			c-32.724,0.512-60.833-10.97-84.35-34.509c-23.54-23.517-35.298-51.903-35.298-85.114
			C392.354,378.836,404.111,350.727,427.651,325.656 M410.002,512.026c28.595,29.129,62.619,43.207,101.999,42.187
			c39.356-1.021,73.356-15.099,101.999-42.187c28.616-27.088,42.672-61.111,42.187-101.998
			C655.652,369.14,641.598,335.117,614,308.03c-27.623-27.112-61.623-40.911-101.999-41.421
			c-40.401-0.511-74.423,13.29-101.999,41.421c-27.622,28.108-41.422,62.108-41.422,101.998
			C367.561,448.874,381.36,482.897,410.002,512.026 M342.491,246.663c47.033-46.013,103.552-69.274,169.51-69.784
			c65.935-0.51,122.431,22.752,169.485,69.784c47.013,47.035,70.575,103.53,70.575,169.487
			c0.485,35.786-6.911,74.145-22.265,115.033c-15.354,40.935-37.34,82.054-65.958,123.475
			c-28.619,41.422-52.67,74.145-72.083,98.171c-19.435,24.05-44.991,54.71-76.694,92.028l-3.061,3.06
			c0-1.022-0.534-2.041-1.555-3.06h-1.53c-31.68-38.338-57.261-68.998-76.695-92.028c-19.413-23.008-43.694-55.706-72.847-98.171
			c-29.152-42.419-50.883-83.583-65.217-123.475c-14.286-39.867-21.451-78.226-21.451-115.033
			C272.219,349.173,295.457,292.676,342.491,246.663 M245.873,538.859c14.286,41.421,36.04,83.862,65.192,127.324
			c29.129,43.462,54.941,79.502,77.461,108.12c22.495,28.642,50.604,62.619,84.349,101.999c10.204,12.78,22.774,19.156,37.57,19.156
			h3.062c14.843,0,27.366-6.376,37.617-19.156c33.723-38.848,61.831-72.868,84.325-101.999
			c22.498-29.127,48.334-65.19,77.485-108.12c29.152-42.976,50.86-85.393,65.191-127.324
			c14.287-41.907,21.476-82.842,21.476-122.709c0-80.777-27.875-148.775-83.604-203.996c-55.731-55.22-123.73-83.074-203.997-83.606
			c-80.268-0.487-148.29,27.367-204.021,83.606c-55.707,56.264-83.584,124.263-83.584,203.996
			C224.396,456.55,231.54,497.439,245.873,538.859"/>
	</g>
</g>
</svg>
