<svg xmlns="http://www.w3.org/2000/svg" viewBox="0 0 22.9 22.9"><g id="Ebene_2" data-name="Ebene 2"><g id="Ebene_1-2" data-name="Ebene 1"><path d="M19.29,13.94l-4.75-2.19c0-.1,0-.2,0-.3V11C16,9.71,16.29,7.87,16.49,6.23a6.13,6.13,0,0,0-.43-3.73A4.71,4.71,0,0,0,13.35.31a6.09,6.09,0,0,0-3.8,0A4.74,4.74,0,0,0,6.79,2.57a6.09,6.09,0,0,0-.41,3.61c.21,1.68.46,3.54,1.94,4.78v.49c0,.1,0,.2,0,.3L3.58,14C0,15.72,0,21.89,0,22.15a.76.76,0,0,0,.75.75h0a.76.76,0,0,0,.75-.75c0-1.53.5-5.73,2.73-6.85l4.61-2.12a3.12,3.12,0,0,0,5.21,0l4.59,2.11c2.25,1.13,2.75,5.33,2.76,6.86a.75.75,0,0,0,.75.75h0a.76.76,0,0,0,.75-.75C22.9,21.89,22.85,15.72,19.29,13.94Zm-7.84-.86A1.63,1.63,0,0,1,9.86,11.8a.74.74,0,0,0,.68-.45.75.75,0,0,0-.39-1c-1.84-.79-2-2.44-2.29-4.42a4.63,4.63,0,0,1,.27-2.7A3.22,3.22,0,0,1,10,1.73a4.51,4.51,0,0,1,2.88,0,3.13,3.13,0,0,1,1.83,1.43A4.68,4.68,0,0,1,15,6c-.23,1.92-.44,3.57-2.27,4.36a.76.76,0,0,0-.4,1,.75.75,0,0,0,.69.45h0A1.63,1.63,0,0,1,11.45,13.08Z"/></g></g></svg>