<?xml version="1.0" encoding="utf-8"?>
<!-- Generator: Adobe Illustrator 16.0.0, SVG Export Plug-In . SVG Version: 6.00 Build 0)  -->
<!DOCTYPE svg PUBLIC "-//W3C//DTD SVG 1.1//EN" "http://www.w3.org/Graphics/SVG/1.1/DTD/svg11.dtd">
<svg version="1.1" xmlns="http://www.w3.org/2000/svg" xmlns:xlink="http://www.w3.org/1999/xlink" x="0px" y="0px" width="1024px"
	 height="1024px" viewBox="0 0 1024 1024" enable-background="new 0 0 1024 1024" xml:space="preserve">
<g id="Ebene_1">
</g>
<g id="Ebene_2">
	<g>
		<path fill="currentColor" d="M293.485,202.892c-14.983,0-28.115,4.316-36.497,7.909c-16.612,7.143-55.686,34.984-84.139,89.314
			c-35.619,68.094-14.262,210.52,163.146,387.926c154.423,154.447,268.258,177.521,322.411,177.521
			c25.309,0,47.367-4.836,65.537-14.305c54.33-28.453,82.221-67.506,89.359-84.207c16.342-38.217,6.758-75.145-24.928-96.41
			l-20.723-13.922c-37.924-25.518-73.744-49.607-99.619-64.025c-9.447-5.289-23.053-8.477-36.299-8.477
			c-19.523,0-37.176,6.488-51.027,18.803c-10.398,9.223-16.861,17.787-22.082,24.682c-4.359,5.76-6.982,9.105-9.83,10.936
			c-1.83,1.178-6.732,3.256-13.086,3.256c-4.676,0-9.514-1.129-14.26-3.367c-22.667-10.711-42.667-23.707-77.879-58.33
			c-34.329-34.916-47.322-54.895-58.034-77.586c-7.414-15.685-0.363-26.938-0.047-27.413c1.787-2.756,5.153-5.379,10.894-9.764
			c6.894-5.196,15.457-11.661,24.656-22.033c26.418-29.697,20.407-69.337,10.374-87.349c-14.353-25.718-38.24-61.2-63.505-98.761
			c-4.769-7.12-9.605-14.305-14.488-21.583C339.249,214.531,317.962,202.892,293.485,202.892 M293.485,227.774
			c12.997,0,27.844,4.723,39.258,21.787c30.781,45.899,60.522,89.133,76.929,118.604c5.559,9.965,10.983,38.238-7.21,58.69
			c-15.706,17.652-29.539,21.99-37.898,34.873c-5.741,8.881-12.271,28.701-1.516,51.526c12.904,27.258,28.588,49.605,63.078,84.684
			c35.073,34.486,57.426,50.168,84.705,63.074c8.903,4.227,17.356,5.764,24.879,5.764c11.777,0,21.244-3.797,26.646-7.256
			c12.857-8.361,17.221-22.215,34.848-37.922c10.645-9.424,23.367-12.52,34.531-12.52c10.398,0,19.393,2.645,24.209,5.332
			c29.445,16.432,72.656,46.127,118.578,76.908c32.203,21.582,20.453,55.324,15.912,65.924
			c-4.521,10.621-27.846,45.697-77.969,71.959c-13.812,7.186-32.027,11.502-54.059,11.502c-69.52,0-177.141-42.555-304.827-170.244
			c-168.189-168.188-188.62-301.618-158.697-358.795c26.24-50.148,61.337-73.472,71.957-78.014
			C271.811,231.503,281.937,227.774,293.485,227.774"/>
		<path fill="currentColor" d="M865.643,459.648H840.74c0-152.369-123.963-276.328-276.328-276.328v-24.882
			C730.498,158.438,865.643,293.562,865.643,459.648"/>
		<path fill="currentColor" d="M744.373,459.648H719.49c0.025-41.426-16.111-80.365-45.4-109.655
			c-29.27-29.289-68.207-45.425-109.656-45.425v-24.881c48.094,0,93.27,18.712,127.236,52.726
			C725.66,366.401,744.373,411.578,744.373,459.648"/>
	</g>
</g>
</svg>
