<svg xmlns="http://www.w3.org/2000/svg" viewBox="0 0 27.71 27.71"><defs><style>.cls-1{fill:#1d1d1b;}</style></defs><g id="Ebene_2" data-name="Ebene 2"><g id="Ebene_1-2" data-name="Ebene 1"><path id="Pfad_114" data-name="Pfad 114" d="M27.71,13.85A13.85,13.85,0,0,0,13.86,0h0A13.85,13.85,0,0,0,0,13.85H0v.09a13.79,13.79,0,0,0,.14,1.81c0,.17,0,.33.08.5A13.59,13.59,0,0,0,.63,18a2.09,2.09,0,0,1,.08.23c.18.51.38,1,.61,1.5.07.14.13.29.21.42a11,11,0,0,0,.9,1.52c0,.09.12.17.18.26.3.41.63.81,1,1.2l.3.32a16.09,16.09,0,0,0,1.29,1.19l.3.22a12.08,12.08,0,0,0,1.26.85,4.05,4.05,0,0,0,.35.21,13.08,13.08,0,0,0,1.6.77l.13.05a13.48,13.48,0,0,1,0-4c.25-1.08,1.63-6.89,1.63-6.89a4.87,4.87,0,0,1-.42-2.06c0-1.92,1.12-3.36,2.51-3.36a1.74,1.74,0,0,1,1.76,1.72,1.5,1.5,0,0,1,0,.22c0,1.19-.75,3-1.14,4.62a2,2,0,0,0,1.46,2.44,1.94,1.94,0,0,0,.59.06c2.46,0,4.35-2.6,4.35-6.35a5.47,5.47,0,0,0-5.29-5.64H13.8A6,6,0,0,0,7.55,13.3c0,.09,0,.18,0,.27a5.49,5.49,0,0,0,1,3.16.38.38,0,0,1,.1.4c-.1.44-.33,1.38-.38,1.58s-.2.3-.46.18C6.1,18.09,5,15.56,5,13.52c0-4.37,3.18-8.38,9.16-8.38,4.81,0,8.54,3.42,8.54,8,0,4.77-3,8.62-7.19,8.62a3.72,3.72,0,0,1-3.17-1.59l-.87,3.29a15.28,15.28,0,0,1-1.72,3.63l.07,0a16.53,16.53,0,0,0,1.69.39l.49.07a15.58,15.58,0,0,0,1.8.14h0A13.86,13.86,0,0,0,27.71,13.85"/></g></g></svg>
