<?xml version="1.0" encoding="utf-8"?>
<!-- Generator: Adobe Illustrator 16.0.0, SVG Export Plug-In . SVG Version: 6.00 Build 0)  -->
<!DOCTYPE svg PUBLIC "-//W3C//DTD SVG 1.1//EN" "http://www.w3.org/Graphics/SVG/1.1/DTD/svg11.dtd">
<svg version="1.1" xmlns="http://www.w3.org/2000/svg" xmlns:xlink="http://www.w3.org/1999/xlink" x="0px" y="0px" width="1024px"
	 height="1024px" viewBox="0 0 1024 1024" enable-background="new 0 0 1024 1024" xml:space="preserve">
<g id="Ebene_1">
</g>
<g id="Ebene_2">
	<g>
		<path fill="currentColor" d="M770.896,835.379H253.104V188.622h517.793v108.356H750.25v-87.71H645.885v98.034H378.116v-98.034H273.751
			v605.464H750.25V297.139h20.646V835.379z M398.764,286.655h226.473v-77.387H398.764V286.655z M431.589,765.453h-109.81V655.643
			h109.81V765.453z M342.427,744.805h68.515v-68.514h-68.515V744.805z M691.897,720.871H482.864v-20.646h209.034V720.871z
			 M431.589,629.936h-109.81V520.146h109.81V629.936z M342.427,609.287h68.515v-68.494h-68.515V609.287z M691.897,585.375H482.864
			v-20.648h209.034V585.375z M431.589,494.458h-109.81v-109.81h109.81V494.458z M342.427,473.811h68.515v-68.515h-68.515V473.811z
			 M691.897,449.877H482.864V429.23h209.034V449.877z"/>
	</g>
</g>
</svg>
