<?xml version="1.0" encoding="utf-8"?>
<!-- Generator: Adobe Illustrator 21.0.2, SVG Export Plug-In . SVG Version: 6.00 Build 0)  -->
<svg version="1.1" id="Ebene_1" xmlns="http://www.w3.org/2000/svg" xmlns:xlink="http://www.w3.org/1999/xlink" x="0px" y="0px"
	 viewBox="0 0 1024 1024" style="enable-background:new 0 0 1024 1024;" xml:space="preserve">
<title>weihnachtsmann</title>
<path d="M728.1,637.7v-86c23.7,6.5,37.7,31.1,31.2,54.8C755.1,621.7,743.3,633.5,728.1,637.7 M714.1,502.8c-0.6,0.1-1.1,0.2-1.7,0.3
	h-0.1c-0.6,0.1-1.2,0.2-1.8,0.2l0,0c-0.6,0.1-1.2,0.1-1.7,0.1h-0.1c-0.6,0-1.2,0-1.8,0H317.1c-0.6,0-1.2,0-1.8,0h-0.1
	c-0.6,0-1.2-0.1-1.7-0.1l0,0c-0.6-0.1-1.2-0.1-1.8-0.2h-0.1c-0.6-0.1-1.1-0.2-1.7-0.3c-18.4-4.1-29.9-22.3-25.8-40.7
	c3-13.5,13.9-23.8,27.5-26.1c0.9-0.1,1.7-0.2,2.6-0.3h0.3c0.9-0.1,1.7-0.1,2.5-0.1h389.8c0.9,0,1.8,0,2.8,0.1h0.2
	c0.9,0.1,1.9,0.2,2.8,0.4c18.5,3.3,30.8,21,27.5,39.6C737.7,489.1,727.4,499.8,714.1,502.8L714.1,502.8z M542.3,646.3
	c0,1-0.1,1.9-0.2,2.8c0,0.5-0.1,1-0.2,1.5c-2.2,16.6-17.4,28.2-34,26c-13.5-1.8-24.2-12.4-26-26c-0.1-0.5-0.1-1-0.2-1.5
	c-0.1-0.9-0.1-1.9-0.1-2.8c-0.3-16.7,13-30.6,29.8-30.9c16.7-0.3,30.6,13,30.9,29.8C542.3,645.6,542.3,646,542.3,646.3L542.3,646.3z
	 M541.7,602c-0.3-0.2-0.5-0.3-0.8-0.5c-0.5-0.3-0.9-0.6-1.4-0.9c-0.3-0.2-0.6-0.3-0.8-0.5c-0.5-0.3-0.9-0.5-1.4-0.8
	c-0.3-0.2-0.6-0.3-0.9-0.5c-0.5-0.2-0.9-0.5-1.4-0.7l-0.9-0.4c-0.5-0.2-1-0.5-1.5-0.7l-1-0.4c-0.5-0.2-1-0.4-1.5-0.6
	s-0.7-0.2-1.1-0.4l-1.4-0.5l-1.1-0.3l-1.4-0.4c-0.4-0.1-0.8-0.2-1.2-0.3s-0.9-0.2-1.4-0.3l-1.3-0.2c-0.4-0.1-0.9-0.2-1.3-0.2
	s-1-0.1-1.5-0.2s-0.8-0.1-1.2-0.2c-0.6-0.1-1.2-0.1-1.9-0.1l-0.8-0.1c-0.9,0-1.8-0.1-2.7-0.1c-0.9,0-1.8,0-2.7,0.1l-0.8,0.1
	c-0.6,0-1.2,0.1-1.9,0.1c-0.4,0-0.8,0.1-1.2,0.2s-1,0.1-1.5,0.2s-0.9,0.2-1.3,0.2l-1.3,0.2l-1.4,0.3c-0.4,0.1-0.8,0.2-1.2,0.3
	l-1.4,0.4l-1.1,0.3c-0.5,0.2-0.9,0.3-1.4,0.5s-0.7,0.2-1.1,0.4s-1,0.4-1.4,0.6l-1,0.4c-0.5,0.2-1,0.4-1.5,0.7
	c-0.3,0.1-0.6,0.3-0.9,0.4c-0.5,0.2-0.9,0.5-1.4,0.7l-0.9,0.5c-0.5,0.3-0.9,0.5-1.4,0.8c-0.3,0.2-0.6,0.3-0.8,0.5
	c-0.5,0.3-0.9,0.6-1.4,0.9l-0.8,0.5c-0.5,0.3-0.9,0.6-1.3,1c-0.2,0.2-0.5,0.3-0.8,0.5c-0.4,0.3-0.9,0.7-1.3,1l-0.7,0.6
	c-0.4,0.3-0.8,0.7-1.2,1.1l-0.7,0.6l-1.2,1.1c-0.2,0.2-0.4,0.4-0.6,0.6c-0.4,0.4-0.8,0.8-1.1,1.2c-0.2,0.2-0.4,0.4-0.6,0.6
	c-0.4,0.4-0.7,0.8-1.1,1.2l-0.6,0.7c-0.3,0.4-0.7,0.8-1,1.3l-0.6,0.8c-0.3,0.4-0.6,0.9-0.9,1.3c-0.2,0.3-0.4,0.5-0.6,0.8
	c-0.3,0.4-0.6,0.9-0.9,1.3c-0.2,0.3-0.4,0.5-0.5,0.8s-0.5,0.9-0.8,1.3s-0.4,0.6-0.5,0.9s-0.5,0.9-0.7,1.4l-0.5,0.9
	c-0.2,0.5-0.4,0.9-0.6,1.4s-0.3,0.7-0.5,1s-0.4,0.9-0.5,1.3s-0.3,0.7-0.4,1.1s-0.3,0.9-0.5,1.3s-0.3,0.8-0.4,1.1s-0.3,0.9-0.4,1.3
	s-0.2,0.8-0.4,1.2l-0.3,1.3c-0.1,0.4-0.2,0.8-0.3,1.3s-0.2,0.9-0.2,1.3s-0.2,0.9-0.2,1.3s-0.1,0.9-0.2,1.3s-0.1,0.9-0.2,1.4
	s-0.1,0.8-0.1,1.2s-0.1,1-0.1,1.5s0,0.8,0,1.2s0,0.9,0,1.4c-7.6,2.5-15.6,3.7-23.6,3.7c-42.9,0-77.9-35.3-77.9-78.7v-44.7h309.4
	v44.7c0,43.4-34.9,78.7-77.9,78.7c-8,0-16-1.2-23.6-3.7c0-0.5,0-0.9,0-1.4s0-0.8,0-1.2s-0.1-1-0.1-1.5s-0.1-0.8-0.1-1.2
	s-0.1-0.9-0.2-1.4s-0.1-0.9-0.2-1.3s-0.2-0.9-0.2-1.3s-0.2-0.9-0.2-1.3s-0.2-0.8-0.3-1.3l-0.3-1.3c-0.1-0.4-0.2-0.8-0.3-1.2
	s-0.2-0.9-0.4-1.3s-0.2-0.8-0.4-1.1s-0.3-0.9-0.5-1.3s-0.3-0.7-0.4-1.1s-0.3-0.9-0.5-1.4s-0.3-0.7-0.5-1s-0.4-0.9-0.6-1.4
	s-0.3-0.6-0.5-0.9s-0.5-0.9-0.7-1.4l-0.5-0.9c-0.3-0.5-0.5-0.9-0.8-1.3c-0.2-0.3-0.3-0.5-0.5-0.8c-0.3-0.5-0.6-0.9-0.9-1.3
	c-0.2-0.3-0.4-0.5-0.5-0.8c-0.3-0.4-0.6-0.9-0.9-1.3c-0.2-0.2-0.4-0.5-0.6-0.7c-0.3-0.4-0.7-0.9-1-1.3l-0.6-0.7
	c-0.4-0.4-0.7-0.8-1.1-1.2c-0.2-0.2-0.4-0.4-0.6-0.7c-0.4-0.4-0.8-0.8-1.2-1.2l-0.6-0.6l-1.2-1.2c-0.2-0.2-0.5-0.4-0.7-0.6
	c-0.4-0.4-0.8-0.8-1.3-1.1c-0.2-0.2-0.5-0.4-0.7-0.5l-1.3-1l-0.8-0.5C542.6,602.7,542.1,602.3,541.7,602L541.7,602z M517.9,863.1
	H506c-103.2,0-187.2-84.2-187.2-187.7v-149h15.6v44.7c0,56,45.2,101.5,100.8,101.5c9.6,0,19.2-1.4,28.4-4.1
	c12.1,26.7,43.5,38.6,70.3,26.5c11.8-5.3,21.2-14.8,26.5-26.5c9.2,2.7,18.8,4.1,28.4,4.1c55.6,0,100.8-45.5,100.8-101.5v-44.7h15.6
	v149C705.2,778.9,621.2,863.1,517.9,863.1z M465.5,256.6c11,10.7,25.2,17.4,40.5,19h0.2c1,0.1,1.9,0.2,2.9,0.2c0.2,0,0.4,0,0.6,0
	c1.1,0.1,2.3,0.1,3.5,0.1c1.2,0,2.3,0,3.5-0.1c0.2,0,0.4,0,0.6,0c1-0.1,2-0.1,2.9-0.2h0.2c15.3-1.6,29.6-8.3,40.5-19
	c51.1,31.5,109.5,89.2,137,156H326.6C354.5,346.9,413.7,288.9,465.5,256.6z M513.2,160.9c25.5,0.2,46,21,45.8,46.4
	c-0.1,10.4-3.6,20.5-10.2,28.6l-0.5,0.6c-0.4,0.4-0.7,0.9-1.1,1.3l-0.3,0.4c-5.9,6.5-13.6,11.2-22.2,13.4l-0.2,0.1
	c-0.6,0.1-1.2,0.3-1.8,0.4l-0.7,0.1c-0.5,0.1-1,0.2-1.6,0.3l-1,0.1l-1.3,0.2c-0.5,0.1-1,0.1-1.4,0.1l-1,0.1c-0.8,0-1.7,0.1-2.5,0.1
	c-0.8,0-1.7,0-2.5-0.1l-1-0.1c-0.5,0-1-0.1-1.4-0.1l-1.3-0.2l-1-0.1c-0.5-0.1-1-0.2-1.6-0.3l-0.7-0.1c-0.6-0.1-1.2-0.3-1.8-0.4
	l-0.2-0.1c-8.5-2.3-16.2-6.9-22.1-13.4l-0.4-0.4c-0.4-0.4-0.7-0.8-1.1-1.2c-0.2-0.2-0.4-0.5-0.6-0.7c-15.9-19.9-12.7-48.9,7.2-64.8
	C492.8,164.5,502.9,161,513.2,160.9L513.2,160.9z M295.9,638.7c-23.7-6.5-37.7-31.1-31.2-54.8c4.2-15.2,16-27,31.2-31.2V638.7z
	 M728.1,528.3v-6c29.1-11.9,43.1-45.2,31.1-74.4c-6.4-15.7-19.6-27.8-35.8-32.8c-27.1-75.6-92-141.4-148.9-177
	c4.9-9.6,7.4-20.3,7.4-31.1c0-38-30.8-69-68.7-69c-38.1,0.2-68.9,31.2-68.7,69.3c0,10.7,2.6,21.2,7.4,30.8
	C394.3,274.4,328.6,340.6,301,414.9c-30.1,9.1-47.2,40.9-38.2,71c5,16.5,17.1,29.8,33,36.3v7c-36.7,6.5-61.1,41.5-54.6,78.2
	c4.9,27.9,26.8,49.7,54.6,54.6v13.3C295.9,791.5,390.2,886,506,886h11.9c115.9,0,210.1-94.5,210.1-210.6v-14.3
	c36.7-6.5,61.2-41.5,54.7-78.2C777.8,555.1,756,533.2,728.1,528.3L728.1,528.3z"/>
<path d="M441,591.9c-0.1,13.3-10.9,24.1-24.3,24c-13.3-0.1-24.1-10.9-24-24.3c0.1-13.3,10.9-24,24.2-24
	C430.2,567.7,441,578.6,441,591.9"/>
<path d="M616.4,591.9c-0.1,13.3-10.9,24.1-24.3,24s-24.1-10.9-24-24.3c0.1-13.3,10.9-24,24.2-24
	C605.6,567.7,616.4,578.6,616.4,591.9C616.4,591.9,616.4,591.9,616.4,591.9"/>
</svg>
