<?xml version="1.0" encoding="utf-8"?>
<!-- Generator: Adobe Illustrator 22.0.1, SVG Export Plug-In . SVG Version: 6.00 Build 0)  -->
<svg version="1.1" id="Ebene_1" xmlns="http://www.w3.org/2000/svg" xmlns:xlink="http://www.w3.org/1999/xlink" x="0px" y="0px"
	 viewBox="0 0 1024 1024" style="enable-background:new 0 0 1024 1024;" xml:space="preserve">
<style type="text/css">
	.st0{fill:#333333;}
</style>
<path class="st0" d="M940.9,932.2L706.5,697.8C737,666.9,761,631,777.8,591.2c17.8-42,26.8-86.6,26.8-132.6s-9-90.6-26.8-132.6
	c-17.2-40.6-41.7-77-73-108.3c-31.3-31.3-67.7-55.8-108.3-73c-42-17.8-86.6-26.8-132.6-26.8s-90.6,9-132.6,26.8
	c-40.6,17.2-77,41.7-108.3,73s-55.8,67.7-73,108.3c-17.8,42-26.8,86.6-26.8,132.6s9,90.6,26.8,132.6c17.2,40.6,41.7,77,73,108.3
	c31.3,31.3,67.7,55.8,108.3,73c42,17.8,86.6,26.8,132.6,26.8s90.6-9,132.6-26.8c30.6-12.9,58.8-30,84.2-51.1l235.5,235.5
	L940.9,932.2z M463.9,764.3c-81.7,0-158.4-31.8-216.2-89.5C190,617,158.2,540.3,158.2,458.6c0-81.7,31.8-158.4,89.5-216.2
	c57.7-57.7,134.5-89.5,216.2-89.5c81.7,0,158.4,31.8,216.2,89.5c57.7,57.7,89.5,134.5,89.5,216.2c0,81.7-31.8,158.4-89.5,216.2
	S545.6,764.3,463.9,764.3z"/>
</svg>
