<?xml version="1.0" encoding="utf-8"?>
<!-- Generator: Adobe Illustrator 16.0.0, SVG Export Plug-In . SVG Version: 6.00 Build 0)  -->
<!DOCTYPE svg PUBLIC "-//W3C//DTD SVG 1.1//EN" "http://www.w3.org/Graphics/SVG/1.1/DTD/svg11.dtd">
<svg version="1.1" xmlns="http://www.w3.org/2000/svg" xmlns:xlink="http://www.w3.org/1999/xlink" x="0px" y="0px" width="1024px"
	 height="1024px" viewBox="0 0 1024 1024" enable-background="new 0 0 1024 1024" xml:space="preserve">
<g id="Ebene_1">
	<g>
		<path fill="currentColor" d="M512,833.175c-177.101,0-321.192-144.064-321.192-321.175c0-177.095,144.091-321.175,321.192-321.175
			c177.095,0,321.175,144.081,321.175,321.175C833.175,689.11,689.095,833.175,512,833.175 M512,165.124
			c-191.257,0-346.876,155.603-346.876,346.876c0,191.257,155.619,346.876,346.876,346.876S858.876,703.257,858.876,512
			C858.876,320.727,703.257,165.124,512,165.124"/>
		<path fill="currentColor" d="M505.575,344.997c17.708,0,32.108,14.401,32.108,32.108s-14.4,32.125-32.108,32.125
			c-17.717,0-32.117-14.418-32.117-32.125S487.858,344.997,505.575,344.997 M505.575,434.914c31.869,0,57.81-25.921,57.81-57.809
			c0-31.871-25.94-57.81-57.81-57.81c-31.888,0-57.818,25.939-57.818,57.81C447.757,408.993,473.688,434.914,505.575,434.914"/>
	</g>
	<path fill="currentColor" d="M557.356,726.845H452.644V478.05h104.713V726.845z M470.095,709.392h69.809V495.502h-69.809V709.392z"/>
</g>
<g id="Ebene_2">
</g>
</svg>
