<?xml version="1.0" encoding="utf-8"?>
<!-- Generator: Adobe Illustrator 16.0.0, SVG Export Plug-In . SVG Version: 6.00 Build 0)  -->
<!DOCTYPE svg PUBLIC "-//W3C//DTD SVG 1.1//EN" "http://www.w3.org/Graphics/SVG/1.1/DTD/svg11.dtd">
<svg version="1.1" id="Ebene_1" xmlns="http://www.w3.org/2000/svg"  x="0px" y="0px"
	 width="1024px" height="1024px" viewBox="0 0 1024 1024" enable-background="new 0 0 1024 1024" xml:space="preserve">
<g id="Ebene_1_1_">
</g>
<g>
	<path d="M851.28,397.257c10.393-10.443,10.393-27.13,0-37.522L691.055,199.46c-5.015-4.966-11.671-7.884-18.735-7.884
		c-3.377,0-7.164,0.818-10.441,2.098c-9.625,4.148-16.278,13.72-16.278,24.571v80.165h-66.751
		c-272.075,0-307.141,128.435-307.141,240.285c0,83.439,66.368,177.322,69.31,181.52c2.511,3.275,6.657,5.375,10.854,5.375
		c1.663,0,3.301-0.41,4.966-0.82c5.45-2.455,9.188-8.344,8.344-14.18c-12.9-95.979-2.894-158.533,30.866-197.334
		c32.557-37.165,90.991-54.673,182.801-54.673H645.6v80.112c0,10.852,6.653,20.426,16.278,24.623
		c3.277,1.229,7.064,2.098,10.441,2.098c7.064,0,13.721-2.508,18.735-7.932L851.28,397.257z M752.38,604.219
		c0-5.426-3.787-10.033-8.753-12.133c-5.016-2.098-10.852-0.408-14.587,3.379c-6.656,6.193-14.179,11.672-22.575,15.408
		c-4.556,2.508-7.525,7.115-7.525,12.08v89.326c0,36.703-29.997,66.752-66.701,66.752H285.069
		c-36.678,0-66.727-30.049-66.727-66.752V365.112c0-36.705,30.049-66.702,66.727-66.702h46.761c2.458,0,4.556-0.87,6.656-1.69
		c15.842-9.624,34.657-17.967,55.515-25.083c6.246-1.228,10.854-6.653,10.854-13.361c0-7.472-6.298-13.307-13.362-13.307H285.069
		c-66.292,0-120.143,53.851-120.143,120.143v347.167c0,66.291,53.852,120.145,120.143,120.145h347.169
		c66.291,0,120.142-53.854,120.142-120.145V604.219z"/>
</g>
</svg>
