<?xml version="1.0" encoding="utf-8"?>
<!-- Generator: Adobe Illustrator 16.0.0, SVG Export Plug-In . SVG Version: 6.00 Build 0)  -->
<!DOCTYPE svg PUBLIC "-//W3C//DTD SVG 1.1//EN" "http://www.w3.org/Graphics/SVG/1.1/DTD/svg11.dtd">
<svg version="1.1" xmlns="http://www.w3.org/2000/svg"  x="0px" y="0px" width="1024px"
	 height="1024px" viewBox="0 0 1024 1024" enable-background="new 0 0 1024 1024" xml:space="preserve">
<g id="Ebene_1">
</g>
<g id="Ebene_2">
	<g>
		<path fill="currentColor" d="M513.276,288.354c-30.851,0.044-54.517,18.865-61.746,49.12c-5.331,22.345,1.257,49.141,12.122,93.587
			l0.176,1.346v41.384l-3.878,1.299c-0.596,0.199-58.858,19.7-70.097,23.976c-17.849,6.721-27.259,20.187-27.237,38.916
			l0.044,29.527c0,3.153,2.579,5.707,5.708,5.707h289.777c3.149,0,5.728-2.554,5.728-5.707l0.045-29.527
			c0.044-18.729-9.389-32.195-27.235-38.916c-11.241-4.276-69.503-23.777-70.077-23.976l-3.898-1.299l0.153-42.729
			c10.887-44.446,17.452-71.264,12.142-93.587C567.796,307.219,544.129,288.398,513.276,288.354 M658.145,584.61H368.367
			c-9.41,0-17.079-7.669-17.1-17.077l-0.044-29.529c-0.022-23.557,12.252-41.186,34.619-49.627
			c9.85-3.701,53.173-18.29,66.617-22.785v-32.481c-11.24-45.725-17.938-73.38-12.01-98.305
			c8.528-35.632,36.425-57.778,72.828-57.823c36.405,0.044,64.303,22.19,72.81,57.823c5.926,24.924-0.794,52.58-11.988,98.305
			v32.481c13.398,4.495,56.765,19.083,66.616,22.785c22.323,8.441,34.618,26.07,34.573,49.627l-0.042,29.529
			C675.245,576.941,667.574,584.61,658.145,584.61"/>
		<path fill="currentColor" d="M512.001,193.6c-193.37,0-350.643,119.744-350.643,266.926c0,87.373,56.546,169.457,151.28,219.479
			l9.785,5.137L283.88,808.103l182.152-83.011l3.524,0.329c14.414,1.345,28.692,2.005,42.444,2.005
			c193.344,0,350.638-119.724,350.638-266.9C862.639,313.343,705.345,193.6,512.001,193.6 M240.734,856.956l49.756-158.793
			c-97.708-55.179-155.707-143.302-155.707-237.638c0-161.835,169.237-293.48,377.217-293.48
			c207.999,0,377.216,131.645,377.216,293.48c0,161.811-169.217,293.456-377.216,293.456c-13.444,0-27.325-0.597-41.342-1.787
			L240.734,856.956z"/>
		<path fill="currentColor" d="M361.381,538.291H228.988c-2.622,0-4.805-2.16-4.805-4.806l-0.043-24.922
			c-0.022-15.778,7.911-27.17,22.983-32.855c9.475-3.569,58.615-20.031,59.102-20.208l3.306-1.079v-34.904l-0.132-1.169
			c-9.189-37.46-14.742-60.115-10.27-78.956c6.103-25.517,26.09-41.384,52.093-41.428c26.047,0.044,45.991,15.911,52.094,41.428
			c4.495,18.841-1.057,41.496-10.225,78.956l-0.132,36.074l3.261,1.079c0.353,0.133,27.347,9.169,45.219,15.316l12.053-5.973
			c-13.134-4.649-41.252-14.102-50.924-17.363v-27.392c9.43-38.564,15.115-61.92,10.091-82.922
			c-7.161-30.057-30.695-48.767-61.437-48.812c-30.717,0.044-54.251,18.755-61.415,48.812c-5.001,21.001,0.639,44.358,10.113,82.922
			v27.392c-11.325,3.79-47.906,16.108-56.235,19.26c-18.819,7.094-29.175,21.97-29.175,41.846l0.065,24.9
			c0,7.936,6.457,14.413,14.412,14.413h129.948L361.381,538.291z"/>
		<path fill="currentColor" d="M780.268,466.739c-8.329-3.152-44.865-15.47-56.19-19.26v-27.392c9.454-38.564,15.138-61.92,10.09-82.922
			c-7.16-30.057-30.695-48.767-61.414-48.812c-30.696,0.044-54.231,18.755-61.414,48.812c-5.024,21.001,0.661,44.358,10.093,82.922
			v27.392c-9.894,3.35-39.181,13.176-51.874,17.695l11.416,6.192c17.804-6.147,46.429-15.734,46.804-15.867l3.283-1.079v-34.904
			l-0.153-1.169c-9.189-37.46-14.721-60.115-10.225-78.956c6.082-25.517,26.047-41.384,52.07-41.428
			c26.049,0.044,45.99,15.911,52.072,41.428c4.494,18.841-1.014,41.496-10.225,78.956l-0.134,36.074l3.285,1.079
			c0.506,0.178,49.646,16.639,59.123,20.208c15.052,5.685,23.006,17.078,22.962,32.855v24.922c-0.045,2.646-2.183,4.806-4.847,4.806
			H667.136l1.629,9.607H794.99c7.932,0,14.409-6.457,14.454-14.413v-24.9C809.488,488.709,799.133,473.857,780.268,466.739"/>
	</g>
</g>
</svg>
