<?xml version="1.0" encoding="utf-8"?>
<!-- Generator: Adobe Illustrator 16.0.0, SVG Export Plug-In . SVG Version: 6.00 Build 0)  -->
<!DOCTYPE svg PUBLIC "-//W3C//DTD SVG 1.1//EN" "http://www.w3.org/Graphics/SVG/1.1/DTD/svg11.dtd">
<svg version="1.1" xmlns="http://www.w3.org/2000/svg" xmlns:xlink="http://www.w3.org/1999/xlink" x="0px" y="0px" width="1024px"
	 height="1024px" viewBox="0 0 1024 1024" enable-background="new 0 0 1024 1024" xml:space="preserve">
<g id="Ebene_1">
</g>
<g id="Ebene_2">
	<g>
		<path fill="currentColor" d="M511.999,374.362c-76.728,0-139.139,62.421-139.139,139.15c0,76.737,62.411,139.148,139.139,139.148
			s139.138-62.411,139.138-139.148C651.137,436.783,588.727,374.362,511.999,374.362 M511.999,679.026
			c-91.262,0-165.505-74.253-165.505-165.515c0-91.263,74.243-165.516,165.505-165.516c91.251,0,165.503,74.253,165.503,165.516
			C677.502,604.773,603.25,679.026,511.999,679.026"/>
		<path fill="currentColor" d="M675.506,387.794c-4.303,0-8.566-1.799-11.623-5.302c-5.531-6.415-4.824-16.105,1.58-21.636l98.926-85.575
			c6.414-5.552,16.104-4.835,21.645,1.57c5.541,6.404,4.836,16.094-1.568,21.636l-98.936,85.564
			C682.629,386.567,679.062,387.794,675.506,387.794"/>
		<path fill="currentColor" d="M727.625,509.914c-7.807,0-14.502-5.947-15.252-13.89c-0.789-8.442,5.406-15.928,13.838-16.718
			l131.094-12.361c8.441-0.852,15.916,5.396,16.717,13.828c0.789,8.442-5.396,15.928-13.828,16.718L729.08,509.852
			C728.592,509.893,728.115,509.914,727.625,509.914"/>
		<path fill="currentColor" d="M813.887,706.079c-2.6,0-5.24-0.665-7.674-2.081l-114.652-66.423c-7.342-4.253-9.836-13.63-5.584-20.971
			c4.23-7.319,13.609-9.824,20.959-5.572l114.666,66.435c7.318,4.241,9.814,13.62,5.572,20.959
			C824.336,703.334,819.18,706.079,813.887,706.079"/>
		<path fill="currentColor" d="M653.777,845.321c-5.822,0-11.395-3.348-13.963-9.004l-52.949-116.516
			c-3.516-7.715-0.104-16.812,7.621-20.314c7.682-3.493,16.811-0.094,20.305,7.621l52.949,116.525
			c3.504,7.703,0.094,16.812-7.621,20.294C658.061,844.873,655.898,845.321,653.777,845.321"/>
		<path fill="currentColor" d="M444.627,869.036c-0.967,0-1.965-0.094-2.942-0.291c-8.317-1.611-13.745-9.669-12.133-17.986
			l24.339-124.749c1.622-8.297,9.606-13.704,17.986-12.123c8.317,1.621,13.744,9.689,12.122,17.996l-24.328,124.749
			C458.238,863.952,451.822,869.036,444.627,869.036"/>
		<path fill="currentColor" d="M260.586,767.597c-4.055,0-8.12-1.591-11.125-4.772c-5.832-6.155-5.583-15.855,0.562-21.688l91.959-87.239
			c6.175-5.822,15.865-5.583,21.688,0.562c5.843,6.155,5.583,15.866-0.562,21.688l-91.959,87.249
			C268.175,766.203,264.38,767.597,260.586,767.597"/>
		<path fill="currentColor" d="M165.238,579.01c-7.527,0-14.088-5.541-15.179-13.203c-1.165-8.381,4.668-16.146,13.059-17.32
			l129.604-18.247c8.276-1.217,16.136,4.647,17.321,13.048c1.185,8.38-4.658,16.135-13.059,17.32l-129.605,18.247
			C166.672,578.948,165.945,579.01,165.238,579.01"/>
		<path fill="currentColor" d="M317.268,429.88c-2.381,0-4.803-0.551-7.059-1.736l-113.854-59.167
			c-7.517-3.899-10.449-13.162-6.539-20.679c3.888-7.527,13.162-10.459,20.679-6.529l113.864,59.168
			c7.517,3.898,10.428,13.162,6.54,20.679C328.153,426.865,322.81,429.88,317.268,429.88"/>
		<path fill="currentColor" d="M411.514,336.31c-5.531,0-10.854-2.994-13.599-8.233l-60.083-114.811
			c-3.94-7.496-1.029-16.759,6.477-20.689c7.506-3.951,16.76-1.05,20.689,6.467l60.093,114.811c3.93,7.496,1.029,16.77-6.477,20.7
			C416.338,335.749,413.905,336.31,411.514,336.31"/>
		<path fill="currentColor" d="M542.555,314.768c-0.75,0-1.498-0.042-2.268-0.156c-8.381-1.237-14.17-9.045-12.922-17.425l19.088-129.126
			c1.236-8.37,9.076-14.191,17.414-12.923c8.379,1.237,14.17,9.045,12.922,17.425l-19.088,129.117
			C556.59,309.299,550.029,314.768,542.555,314.768"/>
	</g>
</g>
</svg>
