<?xml version="1.0" encoding="utf-8"?>
<!-- Generator: Adobe Illustrator 16.0.0, SVG Export Plug-In . SVG Version: 6.00 Build 0)  -->
<!DOCTYPE svg PUBLIC "-//W3C//DTD SVG 1.1//EN" "http://www.w3.org/Graphics/SVG/1.1/DTD/svg11.dtd">
<svg version="1.1" id="Ebene_1" xmlns="http://www.w3.org/2000/svg" xmlns:xlink="http://www.w3.org/1999/xlink" x="0px" y="0px"
	 width="1024px" height="1024px" viewBox="0 0 1024 1024" enable-background="new 0 0 1024 1024" xml:space="preserve">
<g>
	<path d="M646.467,716.865c-3.94,0-7.91-1.1-11.457-3.404c-9.751-6.334-12.528-19.387-6.182-29.137l149.111-229.407L199.047,700.646
		c-10.686,4.525-23.069-0.443-27.615-11.16c-4.545-10.705,0.453-23.068,11.159-27.615l583.037-247.498L485.64,348.724
		c-11.324-2.654-18.349-13.987-15.695-25.322c2.644-11.324,13.988-18.39,25.322-15.695l342.728,80.367
		c5.132,1.204,9.379,4.197,12.249,8.156c0.978,1.357,1.79,2.808,2.407,4.309c1.44,3.466,1.954,7.344,1.347,11.273
		c-0.195,1.224-0.494,2.438-0.905,3.631c-0.616,1.82-1.471,3.497-2.52,5.029L664.146,707.279
		C660.115,713.492,653.356,716.865,646.467,716.865z"/>
</g>
</svg>
