<?xml version="1.0" encoding="utf-8"?>
<!-- Generator: Adobe Illustrator 16.0.0, SVG Export Plug-In . SVG Version: 6.00 Build 0)  -->
<!DOCTYPE svg PUBLIC "-//W3C//DTD SVG 1.1//EN" "http://www.w3.org/Graphics/SVG/1.1/DTD/svg11.dtd">
<svg version="1.1" id="Ebene_1" xmlns="http://www.w3.org/2000/svg" xmlns:xlink="http://www.w3.org/1999/xlink" x="0px" y="0px"
	 width="1024px" height="1024px" viewBox="0 0 1024 1024" enable-background="new 0 0 1024 1024" xml:space="preserve">
<g>
	<path d="M892.179,258.534c0-9.678-5.249-18.919-13.614-24.195c-8.366-4.84-18.483-5.276-27.258-0.875
		c-3.088,1.75-7.9,4.374-13.645,7.463c-27.283,16.269-84.479,49.24-136.422,49.24c-14.518,0-27.724-2.625-39.179-8.34
		c-50.607-24.632-110.455-51.454-183.97-51.454c-92.407,0-191.858,54.953-219.99,71.713c-8.365,5.276-13.629,14.517-13.629,24.195
		v326.517c0,10.117,5.264,19.358,14.054,24.634c4.388,2.216,9.242,3.527,14.078,3.527c4.841,0,10.104-1.312,14.505-3.964
		c51.482-31.25,140.814-64.248,204.199-64.248c54.12,0,89.332,17.605,133.786,40.051l12.333,6.152
		c20.232,10.116,43.552,15.419,69.55,15.419c67.752,0,134.186-36.088,162.347-51.042c3.06-1.776,5.738-3.116,7.464-3.964
		c9.238-4.84,15.391-14.518,15.391-25.07V258.534z M244.473,230.373c0-31.248-25.138-56.318-56.359-56.318
		c-31.209,0-56.292,25.07-56.292,56.318c0,20.697,11.415,38.687,28.16,48.393v557.1c0,7.928,6.153,14.08,14.052,14.08h28.133
		c7.928,0,14.081-6.152,14.081-14.08v-557.1C232.992,269.06,244.473,251.069,244.473,230.373 M835.914,577.589
		c-27.286,14.489-80.106,40.435-128.937,40.435c-17.167,0-32.15-3.527-44.479-9.68l-12.329-6.152
		c-47.08-23.291-91.097-45.708-158.86-45.708c-58.534,0-132.474,22.854-190.57,49.675v-263.61
		c51.042-28.16,120.583-55.882,177.353-55.882c61.188,0,112.257,22.445,159.336,45.792c18.918,9.681,40.464,14.081,63.812,14.081
		c50.192,0,99.459-21.133,134.674-40.079V577.589z"/>
</g>
</svg>
