<?xml version="1.0" encoding="utf-8"?>
<!-- Generator: Adobe Illustrator 16.0.0, SVG Export Plug-In . SVG Version: 6.00 Build 0)  -->
<!DOCTYPE svg PUBLIC "-//W3C//DTD SVG 1.1//EN" "http://www.w3.org/Graphics/SVG/1.1/DTD/svg11.dtd">
<svg version="1.1" id="Ebene_1" xmlns="http://www.w3.org/2000/svg" xmlns:xlink="http://www.w3.org/1999/xlink" x="0px" y="0px"
	 width="1024px" height="1024px" viewBox="0 0 1024 1024" enable-background="new 0 0 1024 1024" xml:space="preserve">
<g>
	<path d="M512.588,903.393H161.497V855.53h351.091c48.392,0,87.759-39.37,87.759-87.76c0-48.422-39.367-87.795-87.759-87.795
		H289.171c-74.793,0-135.64-60.846-135.64-135.655c0-74.779,60.847-135.625,135.64-135.625h101.813l-23.02-23.017l33.861-33.827
		l80.76,80.776l-80.776,80.761l-33.828-33.862l22.969-22.969h-101.78c-48.406,0-87.776,39.374-87.776,87.763
		c0,48.422,39.37,87.792,87.776,87.792h223.417c74.778,0,135.624,60.846,135.624,135.658
		C648.212,842.547,587.366,903.393,512.588,903.393z M672.176,683.098l-19.72-28.633c-4.946-7.193-121.481-176.57-145.167-214.397
		c-27.932-44.671-33.492-79.479-33.423-121.167c0-109.322,88.973-198.293,198.31-198.293c109.343,0,198.293,88.971,198.293,198.327
		c0.071,41.583-5.472,76.374-33.369,121.096c-23.756,37.864-140.254,207.241-145.203,214.434L672.176,683.098z M672.176,168.47
		c-82.949,0-150.465,67.498-150.465,150.464c-0.033,40.724,6.318,63.988,26.143,95.742
		c17.369,27.724,89.093,132.556,124.322,183.924c35.232-51.368,106.954-156.217,124.325-183.958
		c19.578-31.37,26.176-55.527,26.108-95.671C822.609,235.968,755.131,168.47,672.176,168.47z M672.457,408.696
		c-24.105,0-46.036-8.859-62.355-24.968c-16.598-16.385-25.755-38.736-25.718-62.917c0.104-49.177,38.597-87.67,87.689-87.67h0.103
		c49.162,0,87.656,38.494,87.763,87.636c0.033,23.95-8.914,46.142-25.23,62.495C718.321,399.66,696.215,408.696,672.457,408.696z
		 M672.073,281.003c-23.02,0-39.794,16.771-39.828,39.882c0,11.402,3.965,21.367,11.474,28.771
		c15.091,14.931,42.95,14.021,57.092-0.194c7.405-7.4,11.299-17.281,11.263-28.577c-0.034-23.111-16.772-39.882-39.789-39.882
		H672.073z"/>
</g>
</svg>
