<?xml version="1.0" encoding="utf-8"?>
<!-- Generator: Adobe Illustrator 16.0.0, SVG Export Plug-In . SVG Version: 6.00 Build 0)  -->
<!DOCTYPE svg PUBLIC "-//W3C//DTD SVG 1.1//EN" "http://www.w3.org/Graphics/SVG/1.1/DTD/svg11.dtd">
<svg version="1.1" id="Ebene_1" xmlns="http://www.w3.org/2000/svg" xmlns:xlink="http://www.w3.org/1999/xlink" x="0px" y="0px"
	 width="1024px" height="1024px" viewBox="0 0 1024 1024" enable-background="new 0 0 1024 1024" xml:space="preserve">
<g>
	<path d="M462.221,751.944c-2.786-2.787-4.816-6.371-5.694-10.509c-2.417-11.374,4.85-22.567,16.231-24.974l267.653-56.778
		L157.316,424.102c-10.756-4.356-15.999-16.625-11.636-27.418c4.356-10.784,16.632-15.992,27.418-11.636L760.374,622.31
		L608.813,377.907c-6.13-9.883-3.083-22.865,6.808-29.003c9.876-6.138,22.895-3.112,29.003,6.807l185.518,299.173
		c2.777,4.479,3.664,9.6,2.894,14.429c-0.269,1.651-0.72,3.251-1.345,4.749c-1.433,3.47-3.812,6.575-7.019,8.924
		c-1.004,0.728-2.073,1.374-3.208,1.927c-1.723,0.852-3.512,1.433-5.338,1.775L481.5,757.667
		C474.257,759.21,467.092,756.815,462.221,751.944z"/>
</g>
</svg>
