<?xml version="1.0" encoding="utf-8"?>
<!-- Generator: Adobe Illustrator 16.0.0, SVG Export Plug-In . SVG Version: 6.00 Build 0)  -->
<!DOCTYPE svg PUBLIC "-//W3C//DTD SVG 1.1//EN" "http://www.w3.org/Graphics/SVG/1.1/DTD/svg11.dtd">
<svg version="1.1" id="Ebene_1" xmlns="http://www.w3.org/2000/svg" xmlns:xlink="http://www.w3.org/1999/xlink" x="0px" y="0px"
	 width="1024px" height="1024px" viewBox="0 0 1024 1024" enable-background="new 0 0 1024 1024" xml:space="preserve">
<g>
	<path d="M664.247,494.485h-130.21V360.606c0-13.611-10.895-24.832-24.298-24.832h-10.467c-13.404,0-24.355,11.221-24.355,24.832
		v152.325c-0.483,2.076-0.797,4.196-0.797,6.378v10.738c0,13.666,10.952,24.831,24.243,24.831h0.91h10.467h154.508
		c13.397,0,24.292-11.165,24.292-24.831V519.31C688.539,505.649,677.645,494.485,664.247,494.485"/>
	<path d="M520.91,858.043c-2.929,0.05-5.908,0.101-8.938,0.101c-2.98,0-5.953-0.051-8.932-0.101
		c-184.068-4.68-332.404-153.072-337.083-337.141c-0.05-2.922-0.101-5.896-0.101-8.931c0-2.973,0.051-5.896,0.101-8.932
		c4.679-184.062,153.016-332.398,337.083-337.077c2.979-0.056,5.952-0.113,8.932-0.113c3.029,0,6.009,0.057,8.938,0.113
		c184.062,4.679,332.447,153.015,337.128,337.077c0.056,3.036,0.113,5.959,0.113,8.932c0,3.035-0.058,6.009-0.113,8.931
		C853.357,704.971,704.973,853.363,520.91,858.043 M511.973,116.406c-218.465,0-395.565,177.1-395.565,395.565
		c0,218.522,177.1,395.621,395.565,395.621c218.522,0,395.621-177.099,395.621-395.621
		C907.594,293.506,730.495,116.406,511.973,116.406"/>
</g>
</svg>
