<?xml version="1.0" encoding="utf-8"?>
<!-- Generator: Adobe Illustrator 16.0.0, SVG Export Plug-In . SVG Version: 6.00 Build 0)  -->
<!DOCTYPE svg PUBLIC "-//W3C//DTD SVG 1.1//EN" "http://www.w3.org/Graphics/SVG/1.1/DTD/svg11.dtd">
<svg version="1.1" id="Ebene_1" xmlns="http://www.w3.org/2000/svg" xmlns:xlink="http://www.w3.org/1999/xlink" x="0px" y="0px"
	 width="1024px" height="1024px" viewBox="0 0 1024 1024" enable-background="new 0 0 1024 1024" xml:space="preserve">
<path d="M711.812,376l2.605-42.716c0.408-7.063-4.978-13.158-12.812-13.604c-6.757,0-12.364,5.307-12.771,12.078l-2.604,43.001
	l-66.912-0.5l-65.617-82.488c-11.291-14.179-29.728-20.761-47.538-16.906c-5.206,1.152-10.091,3.115-14.589,5.866
	c-7.635-7.315-17.711-11.412-28.435-11.412h-21.284c-6.88,0-13.735,0.975-20.392,2.893c-6.647,1.949-12.957,4.768-18.72,8.389
	c-4.615,2.879-9.012,6.393-13.095,10.46l-11.511,11.603c-3.442,3.45-6.548,7.247-9.235,11.301l-66.525,100.389
	c-9.491,14.289-16.17,30.073-19.859,46.922l-3.397,15.575c-1.271,5.899-1.918,11.849-1.918,17.679
	c0,38.541,27.274,72.327,64.843,80.362c13.578,2.866,27.875,2.227,41.049-1.856l27.055-8.374c0.377-0.099,0.746-0.223,1.115-0.354
	c0.115,1.387,0.271,2.766,0.463,4.121c-1.578,3.56-2.681,7.241-3.298,10.971l-17.077,102.993c-1.271,7.674-4.301,15.015-8.75,21.262
	l-90.686,127.685c-14.475,20.369-9.761,48.778,10.499,63.308c19.69,14.119,49.086,9.058,63.044-10.547l90.692-127.67
	c12.371-17.424,20.799-37.86,24.344-59.107l3.743-22.608l17.125,20.659c3.113,3.752,4.136,8.774,2.727,13.48l-1.363,5.131
	l-11.88,139.879c-2.134,24.928,16.341,46.952,41.229,49.093c1.279,0.108,2.565,0.162,3.82,0.162c23.25,0,43.01-18.241,44.998-41.541
	l11.055-131.312c8.104-32.463,0.215-67.229-21.123-93.003l-68.438-82.558l34.467-138.661l11.871,14.92
	c17.502,22.009,43.631,34.634,71.709,34.634h60.271l-25.561,421.737c-0.409,7.08,4.991,13.182,12.812,13.606
	c6.717,0,12.348-5.271,12.811-12.05l25.651-423.547c22.664-2.427,40.373-21.738,40.373-45.135
	C746.794,399.041,731.857,380.7,711.812,376z M568.753,414.933L524.56,359.36l-48.423,194.726c-1.125,4.354-0.07,9.045,2.812,12.542
	l72.165,87.087c16.248,19.597,22.17,46.051,15.893,70.624l-11.647,135.049c-0.863,10.113-9.406,18.041-19.459,18.041l-1.679-0.069
	c-10.756-0.94-18.75-10.508-17.834-21.338l11.486-137.183l0.793-2.642c3.875-12.929,1.041-26.854-7.572-37.255l-72.167-87.085
	c-10.837-13.06-14.865-30.745-10.753-47.293l56.742-228.22c2.066-8.274,8.476-14.546,16.748-16.369
	c1.569-0.349,3.196-0.525,4.792-0.525c6.709,0,12.971,3.042,17.217,8.343l65.615,82.488c5.154,6.502,12.865,10.23,21.146,10.23
	h81.172c10.791,0,19.566,8.835,19.566,19.697s-8.775,19.697-19.566,19.697h-81.172C600.229,439.906,581.388,430.808,568.753,414.933
	z M317.323,873.746c-8.786-6.317-10.819-18.658-4.548-27.509l90.687-127.653c6.734-9.46,11.294-20.521,13.174-31.969l12.911-77.928
	l33.037,39.911l-7.364,44.479c-2.896,17.387-9.791,34.143-19.928,48.425L344.6,869.17
	C338.576,877.644,325.935,879.887,317.323,873.746z M470.049,310.136l-55.439,222.936c-3.453,3.233-7.574,5.653-12.019,7.04
	l-27.047,8.381c-9.067,2.797-18.884,3.261-28.154,1.241c-25.808-5.484-44.543-28.719-44.543-55.203
	c0-4.053,0.446-8.164,1.311-12.226l3.391-15.544c3.015-13.705,8.454-26.547,16.162-38.163l66.557-100.409
	c1.71-2.603,3.735-5.084,6.023-7.378l11.555-11.593c2.535-2.58,5.401-4.876,8.498-6.834c3.797-2.38,7.918-4.227,12.256-5.484
	c4.3-1.248,8.76-1.871,13.257-1.871h21.284c4.13,0,8.02,1.625,10.916,4.476C472.314,302.862,470.966,306.429,470.049,310.136z"/>
<path d="M561.768,120.882c-46.567,0-84.46,38.089-84.46,84.914c0,46.814,37.893,84.896,84.46,84.896
	c46.582,0,84.461-38.082,84.461-84.896C646.229,158.971,608.35,120.882,561.768,120.882z M561.768,271.33
	c-35.95,0-65.186-29.408-65.186-65.533c0-36.149,29.234-65.552,65.186-65.552s65.179,29.404,65.179,65.552
	C626.946,241.922,597.719,271.33,561.768,271.33z"/>
</svg>
