<?xml version="1.0" encoding="utf-8"?>
<!-- Generator: Adobe Illustrator 16.0.0, SVG Export Plug-In . SVG Version: 6.00 Build 0)  -->
<!DOCTYPE svg PUBLIC "-//W3C//DTD SVG 1.1//EN" "http://www.w3.org/Graphics/SVG/1.1/DTD/svg11.dtd">
<svg version="1.1" id="Ebene_1" xmlns="http://www.w3.org/2000/svg" xmlns:xlink="http://www.w3.org/1999/xlink" x="0px" y="0px"
	 width="1024px" height="1024px" viewBox="0 0 1024 1024" enable-background="new 0 0 1024 1024" xml:space="preserve">
<path d="M188.004,173.933c-31.246,0-56.258,25.053-56.258,56.341c0,20.679,11.254,38.73,28.254,48.438v557.271
	c0,7.933,5.988,14.018,13.92,14.018h28.17c7.931,0,13.91-6.085,13.91-14.018V278.712c17-9.764,28.273-27.759,28.273-48.438
	C244.273,198.986,219.266,173.933,188.004,173.933z"/>
<path d="M878.521,234.214c-8.343-4.842-18.403-5.279-27.184-0.877c-3.092,1.75-7.892,4.403-13.635,7.47
	c-27.24,16.3-84.438,49.312-136.402,49.312c-14.496,0-27.723-2.626-39.154-8.342c-50.625-24.669-110.492-51.502-184.025-51.502
	c-92.443,0-192.112,55.002-220.282,71.768c-8.367,5.25-13.84,14.495-13.84,24.179v326.622c0,10.146,5.475,19.362,14.267,24.642
	c4.39,2.219,9.334,3.527,14.173,3.527c4.845,0,10.182-1.309,14.584-3.965c51.445-31.26,140.836-64.271,204.25-64.271
	c54.126,0,89.366,17.611,133.838,40.067l12.367,6.153c20.238,10.149,43.6,15.428,69.558,15.428
	c67.8,0,134.291-36.078,162.437-51.038c3.06-1.749,5.546-3.092,7.325-3.938c9.244-4.87,15.201-14.554,15.201-25.11V258.418
	C892,248.737,886.893,239.493,878.521,234.214z M301,342.466c48-26.858,113-52.811,169-55.464v86.753
	c-55,2.188-117,25.109-169,51.967V342.466z M470,557.732v0.038c-15.446,1.229-31.523,3.714-47.788,7.179
	c-18,3.845-36.276,8.891-54.193,14.762c-0.039,0.013-0.077,0.025-0.116,0.038c-0.565,0.185-1.127,0.376-1.691,0.563
	c-22.794,7.565-44.951,16.454-65.212,25.896v-0.062v-81.387v-0.023c1.307-0.647,2.628-1.29,3.954-1.933
	C354.394,498.563,417.41,477.972,470,473.26V557.732z M836,496.587v81.015c-27,14.523-80.1,40.507-128.971,40.507
	c-14.963,0-28.029-2.625-40.029-7.47v-82.763c-6-1.748-11.449-4.157-17.163-6.81C599.21,495.986,544.604,472,478.1,472H470v-97.368
	c7-0.877,14.403-1.314,21.432-1.314c66.486,0,107.846,23.77,158.473,49.316c5.714,2.623,11.096,4.839,17.096,6.616v-86.319
	c11,2.628,22.464,3.528,34.336,3.528c50.188,0,99.496-21.143,134.723-40.096l-0.05,83.228l0.057,0.028
	C795.997,412.076,726,445.961,667,429.251v98.625C726,545.873,796,516.419,836,496.587z"/>
</svg>
