<?xml version="1.0" encoding="utf-8"?>
<!-- Generator: Adobe Illustrator 21.0.2, SVG Export Plug-In . SVG Version: 6.00 Build 0)  -->
<svg version="1.1" id="Ebene_1" xmlns="http://www.w3.org/2000/svg" xmlns:xlink="http://www.w3.org/1999/xlink" x="0px" y="0px"
	 viewBox="0 0 1024 1024" style="enable-background:new 0 0 1024 1024;" xml:space="preserve">
<style type="text/css">
	.st0{fill:#1D1D1B;}
</style>
<title>Dampflock</title>
<path class="st0" d="M819.8,706.5h-50.2c-1.9-13.2-6.2-25.9-12.6-37.6c9.2-27.3,14.2-58.8,14.2-92c0-54.5-12.3-100.6-31.7-129.6
	h80.4c19.8,0,48.6,50.5,48.6,129.6S839.7,706.5,819.8,706.5L819.8,706.5z M797.3,757l-12.1-18.2h34.6c8.1,0,15.6-2.8,22.9-6.9
	l19.8,69.3C835.8,795.6,812.5,779.7,797.3,757z M732.1,637.7c-20-17.5-45.8-28.4-74.3-28.4c-57,0-103.8,42.4-111.7,97.2H512
	c0-71.5-58.1-129.6-129.6-129.6c-70.5,0-127.7,56.6-129.3,126.8c-19.6-6.8-32.7-25.1-32.7-45.7V285.1h226.9V431
	c0,8.9,7.2,16.2,16.2,16.2h226.9c19.8,0,48.6,50.5,48.6,129.6C738.8,597.3,736.6,617.7,732.1,637.7z M657.8,803.7
	c-44.7,0-81-36.2-81.1-81c0-44.7,36.2-81,81-81.1c44.7,0,81,36.2,81.1,81l0,0C738.8,767.4,702.5,803.6,657.8,803.7z M382.4,803.7
	c-53.7,0-97.2-43.5-97.2-97.2s43.5-97.2,97.2-97.2s97.2,43.5,97.2,97.2l0,0C479.5,760.1,436.1,803.6,382.4,803.7z M187.9,252.8
	v-16.2c0-8.9,7.2-16.2,16.2-16.2h259.3c8.9,0,16.2,7.3,16.2,16.2v16.2H187.9z M576.8,366.2c-0.2-8.9,6.9-16.3,15.8-16.6
	c8.9-0.3,16.3,6.9,16.6,15.8c0,0.3,0,0.5,0,0.8v48.6h-32.4V366.2z M799.1,317.6l-24.3,97.2h-39.4L711,317.6H799.1z M706.4,236.6
	c0-8.9,7.3-16.2,16.2-16.2h64.8c8.9,0,16.2,7.2,16.2,16.2v48.6h-97.2V236.6z M155.5,609.2h32.4v32.4h-32.4V609.2z M900.2,815.4
	l-31.1-109c19.4-29,31.7-75.2,31.7-129.6c0-92.4-34.8-162-81-162h-11.7l27.4-109.5c0.3-1.1,0.4-2.3,0.4-3.4c0-0.2,0.1-0.3,0.1-0.5
	c0-0.2,0-0.1,0-0.2v-64.6c0-26.8-21.8-48.6-48.6-48.6h-64.8c-26.8,0-48.7,21.7-48.7,48.6v64.8c0,1.3,0.2,2.6,0.5,3.9l27.4,109.5
	h-60.2v-48.6c0.3-26.8-21.1-48.9-48-49.3s-48.9,21.1-49.3,48c0,0.4,0,0.9,0,1.3v48.6h-64.8V285.1h16.2c8.9,0,16.2-7.3,16.2-16.2
	v-32.4c0-26.8-21.8-48.6-48.6-48.6H204.1c-26.8,0-48.7,21.7-48.7,48.6V269c0,8.9,7.3,16.2,16.2,16.2l0,0h16.2v291.7h-32.4v-16.2
	c0.2-8.9-6.9-16.3-15.8-16.6c-8.9-0.3-16.3,6.9-16.6,15.8c0,0.3,0,0.5,0,0.8v129.6c-0.2,8.9,6.9,16.3,15.8,16.6
	c8.9,0.3,16.3-6.9,16.6-15.8c0-0.3,0-0.5,0-0.8v-16.2h34.1c6.7,32.7,33.3,58,67.3,63.5c14,56.5,64.7,98.5,125.5,98.5
	c60.2,0,110.5-41.4,125-97.2h38.7c7.9,54.8,54.8,97.2,111.7,97.2c48,0,88.8-30,105.3-72l7.2,10.9c25.5,38.2,68.3,61.2,114.3,61.2
	c5.1,0,9.9-2.3,12.9-6.4C900.7,825.6,901.6,820.4,900.2,815.4z"/>
<path class="st0" d="M381.6,741.8c-19.1,0-34.6-15.5-34.6-34.6c0-19.1,15.5-34.6,34.6-34.6s34.6,15.5,34.6,34.6l0,0
	C416.1,726.4,400.6,741.8,381.6,741.8z M381.6,638.1c-38.2,0-69.2,30.9-69.2,69.2s30.9,69.2,69.2,69.2s69.2-30.9,69.2-69.2l0,0
	C450.6,669.1,419.7,638.1,381.6,638.1z"/>
<path class="st0" d="M282.2,335.5h103.7v103.7H282.2V335.5z M403.2,301H264.9c-9.6,0-17.3,7.7-17.3,17.3v138.3
	c0,9.6,7.7,17.3,17.3,17.3h138.3c9.6,0,17.3-7.7,17.3-17.3V318.2C420.5,308.7,412.8,301,403.2,301L403.2,301z"/>
<path class="st0" d="M659,740.1c-9.6,0-17.3-7.7-17.3-17.3c0-9.6,7.7-17.3,17.3-17.3s17.3,7.7,17.3,17.3l0,0
	C676.3,732.4,668.6,740.1,659,740.1z M659,670.9c-28.7,0-51.9,23.2-51.9,51.9c0,28.7,23.2,51.9,51.9,51.9
	c28.7,0,51.9-23.2,51.9-51.9l0,0C710.8,694.2,687.6,671,659,670.9L659,670.9z"/>
</svg>
