<?xml version="1.0" encoding="utf-8"?>
<!-- Generator: Adobe Illustrator 16.0.0, SVG Export Plug-In . SVG Version: 6.00 Build 0)  -->
<!DOCTYPE svg PUBLIC "-//W3C//DTD SVG 1.1//EN" "http://www.w3.org/Graphics/SVG/1.1/DTD/svg11.dtd">
<svg version="1.1" id="Ebene_1" xmlns="http://www.w3.org/2000/svg" xmlns:xlink="http://www.w3.org/1999/xlink" x="0px" y="0px"
	 width="1024px" height="1024px" viewBox="0 0 1024 1024" enable-background="new 0 0 1024 1024" xml:space="preserve">
<g id="Ebene_1_1_">
</g>
<g>
	<path fill="currentColor" d="M874.357,492.766c-25.178,0-46.459-3.862-63.915-11.549c18.999-1.041,36.186-5.908,51.63-14.67
		c15.375-8.728,26.418-20.779,33.099-36.188c-16.952,9.77-38.271,14.638-63.949,14.638c-9.232,0-18.432-1.545-27.695-4.633
		c-8.225-42.6-27.729-79.292-58.545-110.109c-27.729-26.688-59.284-40.083-94.734-40.083c-4.633,0-9.501,0.27-14.636,0.806
		c0.505-1.041,7.722-3.357,21.551-6.948c13.898-3.592,24.91-7.419,33.101-11.548c8.258-4.096,12.354-8.225,12.354-12.321
		c0-5.639-3.827-8.492-11.548-8.492c-5.643,0.537-12.087,1.545-19.269,3.122c-7.185,1.543-15.645,4.364-25.412,8.426
		c-9.77,4.129-16.417,6.714-20.008,7.721c25.646-9.232,39.241-19.738,40.787-31.556c-23.097,3.056-43.104,12.824-60.09,29.239
		c7.183-7.687,11.077-15.645,11.614-23.834c-27.257,17.456-50.086,42.599-68.549,75.431
		c-18.497,32.865-35.954,71.638-52.386,116.285c-23.616-23.566-43.152-39.747-58.545-48.474
		c-52.352-29.273-118.349-59.082-197.926-89.362l-0.771,6.144c-0.504,19.034,5.639,36.725,18.463,53.173
		c12.857,16.416,28.769,29.776,47.787,40.048h-6.194c-13.328,0-26.939,2.049-40.803,6.144c7.184,40.083,35.919,66.234,86.255,78.585
		c-24.136,1.544-41.844,8.729-53.139,21.552c9.231,17.959,22.34,31.052,39.274,39.277c12.824,6.144,26.688,9.265,41.609,9.265
		c4.601,0,9.484-0.303,14.603-0.807c-21.03,9.266-31.555,20.813-31.555,34.644c0,11.852,6.143,20.813,18.497,26.99l27.694,6.144
		c3.106,0,6.162-0.269,9.25-0.772c-40.048,42.633-89.094,63.949-147.085,63.949c-54.449,0-100.894-18.497-139.431-55.455
		c36.994,50.32,82.161,89.059,135.57,116.285c53.394,27.225,111.149,40.785,173.287,40.785c84.712,0,163.012-23.598,234.885-70.83
		c71.871-47.233,117.326-109.875,136.326-187.924h4.633c37.496,0,66.734-11.782,87.816-35.415
		C890.538,491.993,882.581,492.766,874.357,492.766"/>
</g>
</svg>
