<?xml version="1.0" encoding="utf-8"?>
<!-- Generator: Adobe Illustrator 16.0.0, SVG Export Plug-In . SVG Version: 6.00 Build 0)  -->
<!DOCTYPE svg PUBLIC "-//W3C//DTD SVG 1.1//EN" "http://www.w3.org/Graphics/SVG/1.1/DTD/svg11.dtd">
<svg version="1.1" id="Ebene_1" xmlns="http://www.w3.org/2000/svg" xmlns:xlink="http://www.w3.org/1999/xlink" x="0px" y="0px"
	 width="1024px" height="1024px" viewBox="0 0 1024 1024" enable-background="new 0 0 1024 1024" xml:space="preserve">
<polygon points="419.088,366.001 679.961,512 419.088,657.984 "/>
<g>
	<path d="M512,856.141c-189.76,0-344.142-154.375-344.142-344.141c0-189.76,154.382-344.142,344.142-344.142
		c189.766,0,344.142,154.382,344.142,344.142C856.142,701.766,701.766,856.141,512,856.141z M512,194.331
		c-175.16,0-317.669,142.51-317.669,317.669c0,175.158,142.51,317.67,317.669,317.67c175.159,0,317.67-142.512,317.67-317.67
		C829.67,336.84,687.159,194.331,512,194.331z"/>
</g>
</svg>
