<?xml version="1.0" encoding="utf-8"?>
<!-- Generator: Adobe Illustrator 16.0.0, SVG Export Plug-In . SVG Version: 6.00 Build 0)  -->
<!DOCTYPE svg PUBLIC "-//W3C//DTD SVG 1.1//EN" "http://www.w3.org/Graphics/SVG/1.1/DTD/svg11.dtd">
<svg version="1.1" id="Ebene_1" xmlns="http://www.w3.org/2000/svg" xmlns:xlink="http://www.w3.org/1999/xlink" x="0px" y="0px"
	 width="1024px" height="1024px" viewBox="0 0 1024 1024" enable-background="new 0 0 1024 1024" xml:space="preserve">
<g>
	<path fill="currentColor" d="M756.939,486.988c14.064,32.335,21.97,68.005,21.97,105.532c0,146.502-118.777,265.261-265.27,265.261
		c-119.724,0-220.83-79.354-253.812-188.33c-8.262-25.613-12.816-52.885-12.816-81.249c0-58.403,18.828-112.346,50.744-156.066
		c31.826-43.612,76.649-77.131,128.768-94.875h170.94c52.138,17.745,96.953,51.263,128.778,94.875
		C738.559,449.005,748.852,467.404,756.939,486.988 M584.478,313.378H439.55v-77.661h144.928V313.378z M545.547,211.854h-67.121
		c-2.297-11.094,1.375-23.044,9.381-31.023c6.194-6.194,14.738-10.02,24.193-10.02s17.99,3.826,24.182,10.02
		C544.199,188.809,547.879,200.76,545.547,211.854 M800.861,588.202c0-63.522-20.567-122.292-55.398-170.056
		c-34.03-46.619-81.687-82.652-137.104-102.291V211.854H569.63c2.187-17.652-3.936-35.305-16.541-47.911
		C542.56,153.449,528.04,146.928,512,146.928c-16.022,0-30.56,6.521-41.08,17.015c-12.589,12.606-18.746,30.258-16.56,47.911
		h-38.693v104.002c-55.435,19.639-103.1,55.672-137.13,102.291c-34.822,47.764-55.398,106.533-55.398,170.056
		c0,79.756,32.326,151.969,84.619,204.251c52.265,52.267,124.479,84.62,204.243,84.62s151.996-32.354,204.242-84.62
		C768.525,740.171,800.861,667.958,800.861,588.202"/>
</g>
</svg>
