<?xml version="1.0" encoding="utf-8"?>
<!-- Generator: Adobe Illustrator 16.0.0, SVG Export Plug-In . SVG Version: 6.00 Build 0)  -->
<!DOCTYPE svg PUBLIC "-//W3C//DTD SVG 1.1//EN" "http://www.w3.org/Graphics/SVG/1.1/DTD/svg11.dtd">
<svg version="1.1" id="Ebene_1" xmlns="http://www.w3.org/2000/svg" xmlns:xlink="http://www.w3.org/1999/xlink" x="0px" y="0px"
	 width="1024px" height="1024px" viewBox="0 0 1024 1024" enable-background="new 0 0 1024 1024" xml:space="preserve">
<g id="Ebene_1_1_">
</g>
<g>
	<path d="M517.995,181.035c-177.934,0-322.421,144.501-322.421,322.405c0,58.591,15.822,116.345,46.126,166.375L183.6,842.965
		l178.278-57.295c47.928,26.516,101.806,40.176,156.117,40.176c177.901,0,322.404-144.474,322.404-322.405
		C840.399,325.536,695.896,181.035,517.995,181.035 M517.995,772.038c-52.179,0-103.938-15.821-147.558-44.469l-103.506,32.914
		l33.792-99.659c-33.344-45.767-51.313-100.927-51.313-157.384c0-147.99,120.61-268.571,268.585-268.571
		c147.959,0,268.569,120.581,268.569,268.571C786.564,651.429,665.954,772.038,517.995,772.038 M604.828,545.315
		c-11.125,0-32.509,41.501-45.361,41.501c-3.401,0-6.398-1.298-9.396-2.998c-23.978-11.989-44.915-24.383-64.57-43.173
		c-16.27-15.418-34.237-38.532-43.648-58.618c-1.268-2.134-2.132-4.295-2.132-6.398c0-9.829,29.511-28.215,29.511-44.498
		c0-4.265-21.801-62.423-24.813-69.687c-4.278-11.125-6.397-14.553-17.94-14.553c-5.576,0-10.721-1.269-15.822-1.269
		c-9.006,0-15.85,3.43-22.249,9.425c-20.534,19.223-30.809,39.337-31.672,67.552v3.401c-0.403,29.511,14.136,59.021,30.376,82.972
		c36.802,54.324,74.874,101.791,136.015,129.573c18.386,8.56,60.723,26.514,81.271,26.514c24.382,0,64.124-15.39,73.981-39.34
		c3.86-9.826,7.262-21.815,7.262-32.508c0-1.7,0-4.265-0.865-6.396C681.805,581.685,612.091,545.315,604.828,545.315"/>
</g>
</svg>
