<?xml version="1.0" encoding="utf-8"?>
<!-- Generator: Adobe Illustrator 16.0.0, SVG Export Plug-In . SVG Version: 6.00 Build 0)  -->
<!DOCTYPE svg PUBLIC "-//W3C//DTD SVG 1.1//EN" "http://www.w3.org/Graphics/SVG/1.1/DTD/svg11.dtd">
<svg version="1.1" id="Ebene_1" xmlns="http://www.w3.org/2000/svg" xmlns:xlink="http://www.w3.org/1999/xlink" x="0px" y="0px"
	 width="1024px" height="1024px" viewBox="0 0 1024 1024" enable-background="new 0 0 1024 1024" xml:space="preserve">
<g>
	<path fill="currentColor" d="M589.776,877.224H429.811c-22.498,0-40.792-18.294-40.792-40.802v-69.663
		c0-14.062,7.089-26.925,18.949-34.444l21.271-13.49c4.08-2.578,9.451-1.382,12.02,2.697c2.571,4.048,1.365,9.427-2.697,12.006
		l-21.284,13.487c-6.804,4.299-10.858,11.686-10.858,19.744v69.663c0,12.898,10.495,23.403,23.392,23.403h159.966
		c4.805,0,8.699,3.877,8.699,8.698S594.581,877.224,589.776,877.224"/>
	<path fill="currentColor" d="M749.758,877.224H589.794c-4.822,0-8.718-3.879-8.718-8.7s3.896-8.698,8.718-8.698h159.964
		c12.897,0,23.386-10.505,23.386-23.403v-69.663c0-8.059-4.064-15.445-10.859-19.744l-21.277-13.487
		c-4.046-2.579-5.26-7.958-2.697-12.006c2.579-4.079,7.96-5.275,12.006-2.697l21.276,13.49c11.868,7.52,18.95,20.383,18.95,34.444
		v69.663C790.542,858.93,772.265,877.224,749.758,877.224"/>
	<path fill="currentColor" d="M438.941,717.479h308.253c11.348-34.345,66.9-216.885,32.726-399.172
		C763.196,229,684.864,164.191,593.671,164.191c-91.195,0-169.525,64.81-186.266,154.116c-8.32,44.425-11.97,92.458-10.807,142.834
		c0.083,3.272-1.678,6.306-4.561,7.841c-2.866,1.584-6.374,1.381-9.062-0.457l-92.072-63.308
		c-8.234-5.664-18.131-7.706-27.952-5.801c-9.789,1.923-18.192,7.571-23.672,15.917c-9.475,14.415-7.764,33.197,4.166,45.656
		l158.953,191.999c0.328,0.405,0.625,0.826,0.876,1.298C422.562,688.765,434.178,709.182,438.941,717.479 M753.434,726.176h0.084
		H753.434z M753.434,734.876H433.899c-3.102,0-5.969-1.652-7.528-4.351c0,0-12.012-20.736-37.893-67.05l-158.017-190.92
		c-17.164-17.905-19.684-45.555-5.732-66.783c8.075-12.29,20.459-20.602,34.891-23.434c14.431-2.832,29.024,0.204,41.137,8.532
		l78.248,53.799c-0.11-45.471,3.691-88.969,11.287-129.568c18.284-97.533,103.814-168.327,203.379-168.327
		c99.557,0,185.087,70.793,203.379,168.327c38.609,206.079-34.698,411.984-35.439,414.042
		C760.363,732.584,757.092,734.876,753.434,734.876"/>
	<path fill="currentColor" d="M568.331,523.404c1.112,0,2.226,0.236,3.321,0.676c3.252,1.348,5.377,4.534,5.377,8.04v38.829
		c0,9.155,7.452,16.641,16.625,16.641c9.205,0,16.656-7.485,16.656-16.641v-38.93c0-3.508,2.124-6.692,5.361-8.041
		c3.271-1.365,6.997-0.608,9.511,1.887l27.952,27.971c6.288,6.29,17.265,6.29,23.536,0c3.168-3.152,4.891-7.316,4.891-11.768
		s-1.723-8.632-4.891-11.768l-27.969-27.973c-2.48-2.493-3.222-6.236-1.873-9.489c1.35-3.255,4.52-5.379,8.043-5.379h38.91
		c9.157,0,16.642-7.452,16.642-16.641c0-9.154-7.484-16.641-16.642-16.641h-38.826c-3.508,0-6.676-2.124-8.026-5.362
		c-1.347-3.253-0.604-6.996,1.89-9.475l27.852-27.887c3.168-3.152,4.891-7.317,4.891-11.784c0-4.435-1.723-8.616-4.891-11.752
		c-6.271-6.306-17.248-6.288-23.536-0.017l-27.952,27.988c-2.514,2.479-6.24,3.221-9.511,1.888c-3.237-1.35-5.361-4.536-5.361-8.06
		v-39.013c0-9.172-7.451-16.641-16.656-16.641c-9.173,0-16.625,7.469-16.625,16.641v38.913c0,3.522-2.125,6.709-5.377,8.041
		c-3.254,1.349-6.996,0.607-9.491-1.872l-27.972-27.97c-3.153-3.136-7.315-4.888-11.76-4.888c-4.451,0-8.632,1.752-11.768,4.888
		c-3.144,3.136-4.873,7.317-4.873,11.768c0,4.435,1.729,8.616,4.873,11.786l27.961,27.97c2.496,2.479,3.238,6.205,1.889,9.475
		c-1.348,3.238-4.518,5.362-8.025,5.362H493.55c-9.165,0-16.641,7.486-16.641,16.641c0,9.188,7.476,16.641,16.641,16.641h39.021
		c3.525,0,6.694,2.124,8.043,5.379c1.349,3.253,0.607,6.996-1.889,9.489l-28.063,28.057c-3.144,3.152-4.873,7.332-4.873,11.786
		c0,4.45,1.729,8.632,4.873,11.767c6.28,6.289,17.239,6.305,23.528,0l27.972-27.971
		C563.828,524.314,566.072,523.404,568.331,523.404 M593.654,604.988c-18.75,0-34.023-15.273-34.023-34.039v-17.82l-13.135,13.115
		c-12.829,12.864-35.303,12.864-48.15-0.015c-6.415-6.424-9.955-14.974-9.955-24.059c0-9.105,3.54-17.652,9.955-24.077
		l13.211-13.219H493.55c-18.765,0-34.049-15.273-34.049-34.056c0-18.765,15.284-34.04,34.049-34.04h17.921l-13.125-13.116
		c-6.415-6.424-9.955-14.973-9.955-24.077c0-9.087,3.54-17.635,9.955-24.077c6.423-6.422,14.988-9.979,24.083-9.979
		c9.113,0,17.643,3.556,24.066,9.979l13.135,13.119v-17.922c0-18.765,15.273-34.041,34.023-34.041
		c18.78,0,34.057,15.275,34.057,34.041v18.023l13.116-13.117c12.848-12.865,35.305-12.881,48.152,0
		c6.424,6.423,9.979,14.972,9.979,24.059c0,9.105-3.556,17.668-9.979,24.093l-13.017,13.015h17.819
		c18.766,0,34.041,15.275,34.041,34.04c0,18.782-15.275,34.056-34.041,34.056H675.86l13.119,13.119
		c6.424,6.422,9.979,14.969,9.979,24.074c0,9.088-3.556,17.652-9.979,24.074c-12.848,12.865-35.305,12.865-48.152,0l-13.116-13.114
		v17.921C627.711,589.715,612.435,604.988,593.654,604.988"/>
</g>
</svg>
