<?xml version="1.0" encoding="utf-8"?>
<!-- Generator: Adobe Illustrator 16.0.0, SVG Export Plug-In . SVG Version: 6.00 Build 0)  -->
<!DOCTYPE svg PUBLIC "-//W3C//DTD SVG 1.1//EN" "http://www.w3.org/Graphics/SVG/1.1/DTD/svg11.dtd">
<svg version="1.1" id="Ebene_1" xmlns="http://www.w3.org/2000/svg" xmlns:xlink="http://www.w3.org/1999/xlink" x="0px" y="0px"
	 width="1024px" height="1024px" viewBox="0 0 1024 1024" enable-background="new 0 0 1024 1024" xml:space="preserve">
<g id="Ebene_1_1_">
</g>
<g>
	<path fill="currentColor" d="M836.016,593.619c-0.899-3.352-3.117-6.036-5.935-7.637c-2.802-1.598-6.236-2.133-9.569-1.233
		l-104.486,28.477l-0.984,0.286l-0.833-0.502l-74.993-42.849l-4.535-2.602l4.902-1.768l117.24-42.432
		c2.501-0.899,4.568-2.549,6.036-4.616c1.449-2.084,2.284-4.619,2.284-7.285c0-2.618-0.852-5.171-2.351-7.256
		c-1.436-2.065-3.535-3.717-6.036-4.601l-117.073-41.831l-4.902-1.767l4.534-2.602l74.644-42.916l0.883-0.499l0.935,0.267
		L820.343,438.5c0.569,0.149,1.135,0.267,1.652,0.333h0.016c0.503,0.067,1.067,0.099,1.635,0.099v0.017
		c2.802,0,5.518-0.967,7.687-2.616c2.116-1.635,3.749-3.952,4.519-6.753c0.899-3.352,0.349-6.768-1.269-9.57
		c-1.601-2.786-4.267-4.985-7.634-5.886l-75.527-20.39l-5.604-1.533l5.054-2.884l69.072-39.715v-0.017l0.035-0.016
		c2.999-1.734,5.019-4.534,5.867-7.637c0.835-3.084,0.499-6.535-1.232-9.535l-0.034-0.034c-1.735-3.034-4.519-5.052-7.619-5.903
		c-3.119-0.833-6.586-0.483-9.588,1.251l-0.032-0.016l-69.059,39.696l-5.051,2.885l1.518-5.62l20.391-75.46
		c0.899-3.368,0.35-6.802-1.251-9.602v-0.019c-1.6-2.767-4.283-4.985-7.636-5.884c-3.367-0.901-6.802-0.349-9.604,1.268
		c-2.8,1.598-5.001,4.285-5.902,7.653h-0.032l-28.21,104.536l-0.267,0.95l-0.868,0.516l-75.608,43.449l-4.485,2.567l0.9-5.083
		l22.058-123.843h0.018c0.465-2.618,0.064-5.252-1-7.554c-1.067-2.3-2.837-4.302-5.137-5.602c-2.316-1.316-4.936-1.865-7.435-1.633
		c-2.535,0.232-5.021,1.232-7.053,2.933v0.034l-95.018,80.68l-3.984,3.383v-5.235v-86.398v-1.017l0.717-0.699l76.561-76.56
		c2.469-2.484,3.701-5.702,3.701-8.937c0-3.219-1.232-6.453-3.701-8.902l0,0v-0.018c-2.485-2.467-5.702-3.701-8.937-3.701
		c-3.2,0-6.453,1.234-8.902,3.701v0.018l-55.321,55.268l-4.117,4.136v-5.836V164.07c0-3.467-1.418-6.618-3.718-8.902h0.032
		c-2.291-2.284-5.468-3.717-8.953-3.717c-3.467,0-6.618,1.433-8.911,3.717h-0.016c-2.266,2.284-3.686,5.436-3.686,8.919v79.678
		v5.836l-4.133-4.136l-55.277-55.268l-0.019-0.018c-2.459-2.467-5.685-3.684-8.912-3.684c-3.225,0-6.459,1.217-8.911,3.684
		l-0.016,0.018c-2.459,2.45-3.71,5.701-3.71,8.902c0,3.251,1.251,6.468,3.71,8.937l76.568,76.56l0.699,0.699v1.017v86.948v5.185
		l-3.959-3.335l-95.964-80.792c-2.036-1.718-4.527-2.703-7.053-2.919s-5.137,0.301-7.428,1.651c-2.303,1.316-4.06,3.317-5.118,5.618
		c-1.077,2.319-1.452,4.952-0.975,7.57l22.531,123.427l0.925,5.116l-4.508-2.583l-75.495-43.147l-0.833-0.483l-0.276-0.984
		l-28.508-104.47v-0.034h-0.016c-0.927-3.333-3.128-6.001-5.927-7.601c-2.802-1.62-6.195-2.134-9.513-1.235h-0.05v0.017
		c-3.358,0.901-6.043,3.101-7.644,5.902c-1.608,2.818-2.135,6.252-1.233,9.62l20.572,75.425l1.534,5.62l-5.067-2.885l-69.174-39.547
		c-3.01-1.716-6.478-2.068-9.579-1.217v-0.016c-3.11,0.867-5.91,2.9-7.637,5.935h-0.016c-1.726,3.019-2.068,6.487-1.209,9.57
		c0.85,3.135,2.902,5.918,5.918,7.653l69.166,39.513l5.052,2.885l-5.634,1.55l-75.428,20.559c-3.358,0.917-6.027,3.135-7.644,5.934
		c-1.592,2.802-2.117,6.236-1.217,9.572l-0.016,0.016c0.766,2.75,2.409,5.084,4.527,6.701c2.149,1.651,4.851,2.585,7.66,2.585
		c0.584,0,1.15-0.035,1.643-0.102c0.583-0.066,1.159-0.184,1.709-0.333l104.453-28.476l0.983-0.283l0.858,0.499l74.986,42.848
		l4.535,2.602l-4.919,1.767l-117.18,42.432c-2.51,0.899-4.594,2.567-6.062,4.635c-1.452,2.084-2.285,4.617-2.285,7.285
		c0,2.634,0.852,5.169,2.335,7.253c1.45,2.068,3.55,3.701,6.043,4.601h0.016l117.066,41.815l4.935,1.767l-4.559,2.602
		l-74.644,42.916l-0.865,0.483l-0.959-0.252l-104.554-28.243l-0.066-0.016h-0.034v-0.017c-3.358-0.867-6.744-0.317-9.512,1.267
		c-2.775,1.602-4.951,4.269-5.852,7.62l-0.016,0.066l-0.016,0.05c-0.893,3.352-0.343,6.735,1.258,9.519
		c1.607,2.802,4.301,5.004,7.669,5.92l75.477,20.372l5.636,1.536l-5.054,2.9l-69.089,39.716c-3.026,1.73-5.06,4.549-5.911,7.65
		c-0.833,3.136-0.492,6.586,1.243,9.603c1.15,1.987,2.767,3.568,4.609,4.617c1.935,1.119,4.135,1.719,6.353,1.719
		c1.092,0,2.184-0.148,3.242-0.433c1.026-0.268,2.068-0.682,3.043-1.252l69.075-39.695l5.051-2.902l-1.518,5.617l-20.381,75.479
		c-0.909,3.386-0.375,6.819,1.243,9.619c1.591,2.785,4.283,4.987,7.669,5.888v0.016c0.492,0.133,1.042,0.215,1.633,0.315h0.018
		c0.515,0.066,1.059,0.102,1.64,0.102c2.818,0,5.537-0.95,7.704-2.604c2.116-1.632,3.733-3.948,4.485-6.716l28.241-104.52
		l0.25-0.987l0.875-0.482l75.612-43.447l4.492-2.584l-0.899,5.084l-22.06,123.826c-0.465,2.635-0.09,5.287,0.984,7.588h-0.016
		c1.075,2.299,2.868,4.285,5.16,5.617c0.994,0.534,2.011,0.969,3.034,1.234c1.06,0.283,2.15,0.433,3.26,0.433
		c1.477,0,2.959-0.25,4.342-0.767c1.385-0.502,2.678-1.25,3.835-2.216h-0.016l95.033-80.729l3.975-3.367v5.217v86.383v0.998
		l-0.699,0.701l-76.568,76.576v0.017c-2.459,2.468-3.71,5.718-3.71,8.937s1.251,6.453,3.71,8.921
		c1.21,1.201,2.627,2.136,4.092,2.732c1.519,0.635,3.176,0.969,4.835,0.969c1.652,0,3.31-0.334,4.828-0.969h0.016
		c1.469-0.597,2.85-1.515,4.086-2.717l55.277-55.318l4.133-4.136v5.837v79.679c0,3.481,1.419,6.649,3.702,8.935
		c2.277,2.284,5.444,3.701,8.911,3.701c3.502,0,6.662-1.417,8.953-3.701c2.268-2.269,3.686-5.435,3.686-8.935v-79.679v-5.854
		l4.117,4.152l55.321,55.284l-0.035,0.019c1.233,1.201,2.618,2.114,4.085,2.717h0.017c1.534,0.632,3.202,0.968,4.852,0.968
		c1.651,0,3.285-0.336,4.836-0.968c1.467-0.581,2.852-1.516,4.085-2.735c2.469-2.466,3.701-5.7,3.701-8.918
		c0-3.235-1.232-6.47-3.701-8.938v-0.016l-76.561-76.561l-0.717-0.717v-1v-86.947v-5.187l3.984,3.354l95.933,80.761l0,0
		c2.035,1.715,4.504,2.699,7.037,2.917c2.55,0.233,5.169-0.316,7.469-1.635c2.3-1.335,4.069-3.335,5.117-5.636v-0.016
		c1.053-2.285,1.417-4.934,0.935-7.536v-0.016l-22.49-123.426l-0.935-5.084l4.503,2.548l75.508,43.165l0.851,0.483l0.268,0.971
		l28.476,104.465c0.768,2.77,2.402,5.086,4.501,6.704c2.168,1.65,4.868,2.601,7.67,2.601c0.566,0,1.15-0.034,1.702-0.101
		c0.534-0.066,1.1-0.181,1.65-0.351v0.017c3.367-0.935,6.051-3.132,7.652-5.934v-0.016c1.583-2.802,2.135-6.22,1.2-9.555
		l-20.541-75.46l-1.532-5.617l5.032,2.899l69.177,39.515c0.95,0.55,1.982,0.984,3,1.25v0.019c1.051,0.266,2.15,0.414,3.251,0.414
		c2.219,0,4.437-0.6,6.369-1.733c1.867-1.05,3.468-2.634,4.602-4.616v-0.017c1.733-3.037,2.066-6.503,1.234-9.589h-0.018
		c-0.851-3.1-2.884-5.901-5.918-7.637v-0.016l-69.157-39.496l-5.07-2.884l5.619-1.536l75.442-20.557
		c3.368-0.934,6.036-3.134,7.653-5.951v-0.017C836.4,600.391,836.949,596.971,836.016,593.619 M708.872,513.858L606.97,550.753
		l-1.065,0.368l-0.968-0.55l-63.874-36.513l-3.65-2.101l3.65-2.1l63.956-36.746l0.984-0.552l1.033,0.369l101.82,36.361l6.335,2.285
		L708.872,513.858z M612.056,342.433l-19.139,107.503l-0.184,1.099l-1.001,0.569l-63.49,36.479l-3.617,2.067v-4.152v-73.827v-1.116
		l0.867-0.734l82.612-70.158l5.133-4.35L612.056,342.433z M415.17,340.565l83.33,70.208l0.873,0.715v1.102v73.51v4.168l-3.618-2.068
		l-63.77-36.463l-0.968-0.552l-0.209-1.116L411.26,342.833l-1.208-6.569L415.17,340.565z M315.129,510.141l101.9-36.897l1.042-0.382
		l0.975,0.55l63.89,36.497l3.669,2.098l-3.653,2.103l-63.972,36.762l-0.975,0.568l-1.042-0.385l-101.818-36.379l-6.337-2.269
		L315.129,510.141z M411.945,681.582l19.157-107.537l0.198-1.099l0.975-0.567l63.48-36.479l3.618-2.084v4.169v73.808v1.115
		l-0.857,0.737l-82.628,70.19l-5.119,4.333L411.945,681.582z M608.838,683.399l-83.346-70.174l-0.867-0.73v-1.104v-73.475v-4.168
		l3.617,2.065l63.789,36.447L593,572.83l0.197,1.114l19.575,107.189l1.201,6.567L608.838,683.399z"/>
</g>
</svg>
