<?xml version="1.0" encoding="utf-8"?>
<!-- Generator: Adobe Illustrator 21.0.2, SVG Export Plug-In . SVG Version: 6.00 Build 0)  -->
<svg version="1.1" id="Ebene_1" xmlns="http://www.w3.org/2000/svg" xmlns:xlink="http://www.w3.org/1999/xlink" x="0px" y="0px"
	 viewBox="0 0 1024 1024" style="enable-background:new 0 0 1024 1024;" xml:space="preserve">
<path d="M279.8,914.9L150.5,791.6l247.9-258.5L293.9,425L209.3,506L98.8,390.9l83.4-81.1l-11.8-11.8l129.3-123.4l11.8,11.8
	l83.4-81.1l110.4,115.1l-83.4,81.1L521.8,405l98.7-102.2l-85.8-81.1l110.5-116.3l84.6,82.2l11.8-12.9l129.2,123.4l-14.1,15.3
	l69.3,161l-11.8,14.1l-163.3-65.8L645.2,533.1l247.9,256.1L765,912.6L521.8,662.3L279.8,914.9z M519.5,625.9L765,879.7l95.2-91.7
	l-247.9-255l11.8-11.8l121-125.7l146.9,58.8l-63.5-145.7l9.4-9.4l-95.2-90.5L731,220.5l-84.6-81.1l-77.5,81.1l84.6,81.1L531.2,428.5
	l-9.4,9.4l-9.4-9.4L389,300.4l83.4-79.9l-78.7-81.1l-83.4,79.9l-11.8-11.8l-94,91.7l10.6,11.8l-83.4,81.1l78.7,81.1l83.4-81.1
	l8.2,8.2l135.1,131.6L184.6,791.6l94,90.5L519.5,625.9"/>
</svg>
