<?xml version="1.0" encoding="utf-8"?>
<!-- Generator: Adobe Illustrator 16.0.0, SVG Export Plug-In . SVG Version: 6.00 Build 0)  -->
<!DOCTYPE svg PUBLIC "-//W3C//DTD SVG 1.1//EN" "http://www.w3.org/Graphics/SVG/1.1/DTD/svg11.dtd">
<svg version="1.1" xmlns="http://www.w3.org/2000/svg" xmlns:xlink="http://www.w3.org/1999/xlink" x="0px" y="0px" width="1024px"
	 height="1024px" viewBox="0 0 1024 1024" enable-background="new 0 0 1024 1024" xml:space="preserve">
<g id="Ebene_1">
</g>
<g id="Ebene_2">
	<g>
		<path fill="currentColor" d="M764.97,657.319h-0.021c-21.837-0.112-40.64-1.888-55.886-5.276c-15.146-3.364-27.73-7.212-37.406-11.432
			l-2.689-1.179v-67.178h13.334l1.06,0.627c10.701,6.353,22.398,11.727,34.764,15.968c12.195,4.172,24.479,6.288,36.503,6.288
			c7.301,0,15.351-0.854,23.918-2.545c8.072-1.596,14.483-4.453,19.054-8.494c3.658-3.334,6.504-6.796,8.399-10.245
			c1.189-2.186,2.617-6.722,2.617-15.813c0-5.398-1.211-10.07-3.593-13.879c-2.455-3.922-5.666-7.134-9.548-9.554
			c-5.966-3.641-13.328-6.091-21.85-7.26c-8.976-1.24-17.2-1.868-24.448-1.868c-10.57,0-20.834,0.921-30.496,2.735
			c-9.841,1.85-18.594,3.693-26.021,5.491l-1.057,0.126h-12.471V372.308h201.287v60.736H753.664v34.899
			c2.822-0.14,6.029-0.262,9.628-0.376c5.793-0.193,10.898-0.281,15.299-0.281c15.169,0,28.942,1.481,40.937,4.404
			c12.037,2.927,22.629,7.099,31.473,12.393c11.635,7.038,20.841,16.477,27.389,28.072c6.529,11.59,9.841,26.235,9.841,43.527
			c0,14.609-2.781,28.383-8.272,40.93c-5.518,12.61-13.647,23.57-24.163,32.575c-11.613,9.588-25.053,16.745-40.008,21.319
			C800.964,655.027,783.871,657.319,764.97,657.319z M677.941,633.517c8.769,3.554,19.877,6.836,33.068,9.764
			c14.617,3.251,32.773,4.951,53.966,5.065c18.009,0,34.219-2.161,48.186-6.421c13.82-4.231,26.222-10.827,36.856-19.609
			c9.422-8.062,16.748-17.939,21.719-29.298c4.991-11.411,7.52-23.971,7.52-37.336c0-15.731-2.924-28.891-8.687-39.119
			c-5.776-10.232-13.916-18.572-24.197-24.79c-8.054-4.82-17.805-8.65-28.965-11.363c-11.302-2.752-24.362-4.15-38.816-4.15
			c-4.312,0-9.321,0.088-15.013,0.276c-5.702,0.176-10.404,0.395-14.119,0.627l-4.771,0.302V424.07h126.759v-42.787h-183.34v143.575
			h2.963c7.463-1.792,16.191-3.628,25.956-5.46c10.205-1.92,21.024-2.892,32.151-2.892c7.66,0,16.296,0.657,25.669,1.954
			c9.751,1.337,18.278,4.201,25.338,8.51c5.084,3.164,9.259,7.341,12.446,12.432c3.29,5.254,4.959,11.525,4.959,18.639
			c0,8.938-1.217,15.521-3.72,20.118c-2.38,4.333-5.836,8.574-10.281,12.619c-5.824,5.154-13.648,8.712-23.304,10.622
			c-9.146,1.802-17.774,2.713-25.657,2.713c-13.015,0-26.273-2.278-39.407-6.771c-12.546-4.304-24.434-9.724-35.374-16.113h-1.905
			V633.517z M516.365,657.319c-16.639,0-32.055-2.3-45.824-6.845c-13.944-4.609-26.083-11.766-36.091-21.257
			c-11.494-10.867-20.376-25.027-26.384-42.081c-5.956-16.85-8.975-37.213-8.975-60.518c0-24.049,2.813-45.74,8.361-64.473
			c5.618-18.949,14.908-35.951,27.616-50.526c12.288-14.04,28.418-25.079,47.954-32.818c19.404-7.682,42.717-11.577,69.294-11.577
			c8.987,0,18.939,0.623,29.58,1.854c10.771,1.236,17.593,2.143,20.845,2.765l3.642,0.701v61.402l-13.326-0.443
			c-2.992-1.433-8.303-3.133-15.788-5.053c-7.415-1.897-15.995-2.857-25.494-2.857c-22.013,0-39.287,5.368-51.342,15.955
			c-10.083,8.865-16.893,20.85-20.311,35.705c7.068-3.646,14.443-6.757,22.012-9.281c20.162-6.723,45.371-7.007,65.42-1.622
			c9.49,2.55,18.417,6.678,26.533,12.257c10.635,7.437,19.243,17.52,25.609,29.995c6.349,12.458,9.57,28.112,9.57,46.525
			c0,14.456-2.682,28.233-7.968,40.95c-5.306,12.766-12.896,23.69-22.562,32.476c-10.162,9.299-22.116,16.503-35.517,21.411
			C549.889,654.845,534.125,657.319,516.365,657.319z M552.315,376.2c-25.442,0-47.642,3.681-65.99,10.947
			c-18.194,7.208-33.164,17.427-44.496,30.376c-11.854,13.593-20.525,29.465-25.771,47.173c-5.302,17.906-7.993,38.738-7.993,61.923
			c0,22.283,2.848,41.64,8.461,57.533c5.535,15.696,13.638,28.667,24.093,38.549c9.049,8.585,20.062,15.062,32.739,19.255
			c12.852,4.238,27.322,6.39,43.006,6.39c16.704,0,31.434-2.292,43.769-6.811c12.296-4.496,23.247-11.096,32.555-19.61
			c8.694-7.899,15.528-17.751,20.319-29.288c4.834-11.623,7.284-24.243,7.284-37.507c0-16.981-2.895-31.262-8.59-42.45
			c-5.692-11.148-13.34-20.131-22.729-26.696c-7.244-4.982-15.246-8.676-23.747-10.964c-18.361-4.925-41.765-4.706-60.254,1.464
			c-9.996,3.339-19.623,7.756-28.62,13.129l-7.945,4.745l1.196-9.175c2.774-21.341,11.153-38.291,24.903-50.372
			c13.742-12.073,33.011-18.19,57.267-18.19c10.248,0,19.573,1.056,27.72,3.138c7.471,1.915,12.884,3.624,16.485,5.214h1.43v-44.908
			c-3.678-0.535-9.213-1.231-16.543-2.073C570.563,376.804,560.961,376.2,552.315,376.2z M237.05,657.319
			c-22.634,0-42.353-1.806-58.611-5.372c-16.235-3.545-29.684-7.603-39.964-12.062l-2.704-1.171v-66.818h12.822l1.069,0.648
			c10.053,6.082,22.283,11.437,36.354,15.907c13.943,4.438,26.84,6.687,38.326,6.687c6.792,0,14.281-0.565,22.257-1.674
			c7.515-1.057,13.904-3.348,18.983-6.81c3.944-2.668,7.107-5.907,9.426-9.642c2.204-3.557,3.321-9.026,3.321-16.248
			c0-6.735-1.477-11.906-4.395-15.364c-3.09-3.654-7.091-6.195-12.227-7.769c-5.57-1.815-12.345-2.813-20.219-2.984
			c-8.305-0.176-16.039-0.263-23.142-0.263h-19.386v-57.292h19.93c9.307,0,17.612-0.298,24.684-0.885
			c6.779-0.574,12.538-1.863,17.117-3.834c4.522-1.941,7.914-4.509,10.084-7.621c2.116-3.023,3.189-7.809,3.189-14.224
			c0-4.409-1.021-7.77-3.124-10.285c-2.344-2.8-5.359-5.057-8.961-6.705c-4.277-1.972-9.439-3.309-15.35-3.975
			c-6.192-0.706-11.582-1.06-16.017-1.06c-10.881,0-22.918,1.924-35.776,5.714c-12.91,3.817-25.583,9.382-37.66,16.543l-1.056,0.626
			h-12.45v-66.179l2.813-1.13c10.092-4.062,23.966-8.019,41.231-11.757c17.322-3.742,35.114-5.64,52.887-5.64
			c17.332,0,32.765,1.534,45.863,4.558c13.239,3.067,24.361,7.244,33.063,12.419c10.561,6.314,18.549,14.132,23.76,23.242
			c5.219,9.132,7.866,19.904,7.866,32.007c0,15.96-5.035,30.429-14.96,43.006c-7.371,9.33-16.556,16.213-27.405,20.565
			c2.682,0.767,5.412,1.661,8.185,2.682c7.357,2.712,14.167,6.701,20.241,11.857c6.359,5.47,11.481,11.906,15.241,19.154
			c3.834,7.429,5.78,17.227,5.78,29.132c0,13.278-2.672,25.882-7.949,37.459c-5.315,11.657-13.571,21.762-24.535,30.04
			c-10.543,7.918-23.089,14.053-37.305,18.25C274.267,655.213,257.006,657.319,237.05,657.319z M144.746,632.78
			c9.387,3.794,21.345,7.288,35.609,10.402c15.631,3.428,34.707,5.163,56.696,5.163c19.097,0,35.5-1.985,48.755-5.898
			c13.186-3.896,24.777-9.549,34.448-16.814c9.75-7.361,17.076-16.311,21.766-26.591c4.741-10.402,7.142-21.753,7.142-33.738
			c0-10.459-1.608-18.873-4.776-25.003c-3.225-6.224-7.634-11.763-13.098-16.455c-5.25-4.461-11.152-7.918-17.516-10.263
			c-6.573-2.424-12.852-4.058-18.667-4.86l-3.874-0.53v-10.083l3.549-0.758c14.114-3.019,25.644-10.083,34.272-20.999
			c8.765-11.108,13.028-23.356,13.028-37.445c0-10.521-2.249-19.794-6.683-27.555c-4.435-7.756-11.354-14.479-20.565-19.986
			c-7.897-4.698-18.155-8.528-30.487-11.38c-12.436-2.875-27.19-4.33-43.843-4.33c-17.138,0-34.294,1.827-50.99,5.438
			c-15.197,3.291-27.612,6.722-36.967,10.219v51.099h1.021c12.397-7.235,25.386-12.888,38.629-16.801
			c13.685-4.036,26.573-6.083,38.317-6.083c4.772,0,10.5,0.377,17.024,1.118c6.867,0.776,12.954,2.371,18.09,4.737
			c4.811,2.205,8.887,5.268,12.094,9.102c3.462,4.136,5.219,9.536,5.219,16.043c0,8.414-1.573,14.746-4.808,19.364
			c-3.137,4.5-7.813,8.112-13.891,10.728c-5.469,2.349-12.169,3.874-19.917,4.526c-7.322,0.614-15.881,0.921-25.434,0.921h-10.955
			v39.342h10.412c7.165,0,14.96,0.087,23.339,0.263c8.755,0.192,16.402,1.337,22.726,3.405c6.665,2.033,12.204,5.587,16.38,10.534
			c4.321,5.128,6.512,12.239,6.512,21.152c0,9.04-1.525,15.903-4.667,20.978c-2.989,4.815-7.029,8.965-12.012,12.335
			c-6.218,4.237-13.887,7.024-22.787,8.274c-8.387,1.17-16.293,1.761-23.497,1.761c-12.41,0-26.218-2.393-41.043-7.107
			c-14.25-4.527-26.757-9.952-37.199-16.136h-1.354V632.78z M516.539,611.387c-5.831,0-11.379-0.985-16.489-2.932
			c-5.245-1.999-9.86-5.184-13.72-9.461c-5.324-5.441-9.688-13.476-12.853-23.746c-3.085-10.022-4.649-22.84-4.649-38.094
			c0-4.308,0.07-7.883,0.188-10.719c0.11-2.699,0.18-4.628,0.18-5.803v-3.102l2.906-1.096c4.991-1.884,10.592-3.475,16.643-4.732
			c13.287-2.77,25.359-2.38,36.911,0.092c6.552,1.393,12.353,4.031,17.247,7.835c5.031,3.812,9.036,8.944,11.867,15.229
			c2.832,6.252,4.208,13.957,4.208,23.549c0,10.333-1.197,18.383-3.665,24.615c-2.436,6.121-5.749,11.498-9.85,15.988
			c-3.908,4.182-8.639,7.319-14.104,9.356C526.023,610.37,521.036,611.387,516.539,611.387z M478.096,523.823
			c-0.031,0.869-0.066,1.863-0.114,2.979c-0.109,2.739-0.18,6.192-0.18,10.352c0,14.355,1.433,26.284,4.255,35.455
			c2.734,8.892,6.375,15.701,10.811,20.241c3.023,3.348,6.472,5.731,10.381,7.217c7.028,2.683,14.632,3.786,24.966-0.104
			c4.215-1.574,7.697-3.874,10.656-7.037c3.33-3.651,6.069-8.112,8.104-13.218c2.007-5.079,3.027-12.247,3.027-21.301
			c0-8.172-1.148-14.856-3.414-19.86c-2.208-4.903-5.285-8.869-9.145-11.796c-3.866-2.997-8.443-5.07-13.664-6.184
			c-10.341-2.204-21.126-2.59-33.203-0.079C486.106,521.418,481.922,522.535,478.096,523.823z"/>
	</g>
</g>
</svg>
