<?xml version="1.0" encoding="utf-8"?>
<!-- Generator: Adobe Illustrator 16.0.0, SVG Export Plug-In . SVG Version: 6.00 Build 0)  -->
<!DOCTYPE svg PUBLIC "-//W3C//DTD SVG 1.1//EN" "http://www.w3.org/Graphics/SVG/1.1/DTD/svg11.dtd">
<svg version="1.1" id="Ebene_1" xmlns="http://www.w3.org/2000/svg" xmlns:xlink="http://www.w3.org/1999/xlink" x="0px" y="0px"
	 width="1024px" height="1024px" viewBox="0 0 1024 1024" enable-background="new 0 0 1024 1024" xml:space="preserve">
<g id="Ebene_1_1_">
</g>
<g>
	<path fill="currentColor" d="M571.05,634.063c-5.233,0-10.068,2.202-14.417,6.577v103.656c4.809,4.806,10.27,7.207,16.391,7.207
		c7.865,0,11.813-4.574,11.813-13.755V650.48C584.837,639.555,580.26,634.063,571.05,634.063 M695.415,634.723
		c-9.84,0-14.758,5.918-14.758,17.702v18.392h29.516v-18.392C710.173,640.641,705.255,634.723,695.415,634.723 M353.209,775.79
		h-38.083V583.551h-39.358v-32.835h117.443v32.835h-40.002V775.79z M455.565,757.429c-13.114,14.013-26.242,20.991-39.385,20.991
		c-15.731,0-23.612-9.611-23.612-28.857V609.777h34.123V737.09c0,7.438,2.962,11.155,8.854,11.155
		c5.907,0,12.585-4.177,20.021-12.443V609.777h33.452V775.79h-33.452V757.429z M588.784,777.791
		c-11.813,0-22.54-5.034-32.151-15.103v13.102H522.48V550.716h34.152v72.193c9.184-10.039,19.223-15.073,30.205-15.073
		c21.825,0,32.78,13.755,32.78,41.33v91.872C619.618,765.52,609.318,777.791,588.784,777.791 M694.441,780.396
		c-15.328,0.428-27.344-4.149-36.094-13.761c-8.756-9.638-13.131-22.339-13.131-38.07v-74.164
		c0.43-15.304,5.464-27.346,15.072-36.099c9.611-8.725,22.024-13.129,37.1-13.129c15.076,0,26.8,4.404,35.097,13.129
		c8.296,8.753,12.469,20.795,12.469,36.099v41.989h-64.297v31.516c0,4.809,0.229,8.525,0.629,11.158
		c0.457,2.603,1.772,5.232,3.975,7.865c2.146,2.633,5.349,3.832,9.469,3.631c4.176-0.256,7.322-0.799,9.555-1.656
		c2.173-0.861,3.716-3.063,4.573-6.551l1.975-7.893c0.428-1.746,0.428-5.034,0-9.843l-0.659-8.552h34.781v12.499
		C744.954,763.119,728.106,780.396,694.441,780.396 M787.632,573.711c-1.318-22.339-9.642-39.812-24.942-52.518
		c-15.331-12.697-33.924-19.447-55.775-20.332c-42.903-2.202-107.833-3.292-194.899-3.292c-87.082,0-152.038,1.089-194.914,3.292
		c-21.452,0.428-39.816,7.207-55.135,20.332c-15.314,13.103-23.838,30.639-25.568,52.518c-2.631,41.991-3.948,73.709-3.948,95.134
		c0,21.422,1.316,53.144,3.948,95.161c2.173,22.31,10.697,39.786,25.568,52.484c14.889,12.674,33.253,19.48,55.135,20.338
		c42.876,2.203,107.72,3.289,194.569,3.289c86.839,0,151.911-1.086,195.244-3.289c22.309-0.427,40.872-7.207,55.775-20.338
		c14.874-13.125,23.167-30.603,24.942-52.484c2.6-42.018,3.918-73.739,3.918-95.161C791.55,647.42,790.231,615.702,787.632,573.711
		 M361.733,294.778h-3.289l-30.19-110.896H280.36l37.415,112.208c11.795,31.95,18.118,50.543,19.002,55.806v110.237h47.266v-115.5
		l5.251-18.361c1.73-5.693,3.918-11.813,6.563-18.364c2.633-6.581,4.791-12.499,6.551-17.735l36.084-108.29h-47.883L361.733,294.778
		z M497.571,431.298c-11.829,0-17.72-5.693-17.72-17.079V302.015c0-5.236,1.727-8.955,5.248-11.158
		c3.491-2.203,7.438-3.488,11.799-3.918c4.36-0.457,8.551,0.858,12.484,3.918c3.921,3.06,5.892,6.78,5.892,11.158v112.205
		C515.273,425.605,509.382,431.298,497.571,431.298 M540.845,265.945c-11.327-9.641-25.456-14.559-42.303-14.788
		c-16.848-0.229-31.407,4.262-43.648,13.443c-12.241,9.21-18.361,22.339-18.361,39.385v106.316
		c0.442,17.049,6.121,30.833,17.073,41.333c10.929,10.499,25.571,15.758,43.965,15.758c18.361,0,33.007-4.802,43.959-14.443
		c10.929-9.611,16.421-23.627,16.421-42.018V304.645C557.951,288.456,552.258,275.526,540.845,265.945 M671.446,256.734v155.514
		c-9.181,10.496-17.503,15.762-24.912,15.762c-7.468,0-11.154-4.577-11.154-13.791V256.734h-42.019V428.01
		c0,24.481,9.837,36.723,29.546,36.723c16.159,0,32.348-8.521,48.539-25.568v22.968h42.016V256.734H671.446z"/>
</g>
</svg>
